<?xml version="1.0" encoding="utf-8"?>
<!-- Generator: Adobe Illustrator 24.0.1, SVG Export Plug-In . SVG Version: 6.00 Build 0)  -->
<svg version="1.1" id="Camada_1" xmlns="http://www.w3.org/2000/svg" xmlns:xlink="http://www.w3.org/1999/xlink" x="0px" y="0px"
	 viewBox="0 0 134 70" style="enable-background:new 0 0 134 70;" xml:space="preserve">
<style type="text/css">
	.st0{fill:#FFFFFF;}
</style>
<path class="st0" d="M4.5,57.7c-0.1,0-0.3,0-0.4,0.1c-0.1,0.1-0.2,0.2-0.2,0.3L3,60.3c-0.1,0.1-0.1,0.3-0.1,0.5
	c0,0.5,0.5,0.8,1.5,0.9c0.2,0,0.3,0.1,0.3,0.3c0,0.2-0.1,0.3-0.3,0.3s-0.5,0-1.1-0.1c-0.5-0.1-0.9-0.1-1.1-0.1c-0.3,0-0.6,0-1,0.1
	c-0.3,0.1-0.7,0.1-1,0.1c0,0-0.1,0-0.1,0c0,0-0.1,0-0.1-0.1C0,62.1,0,62.1,0,62c0,0,0-0.1,0-0.1c0,0,0-0.1,0-0.1c0,0,0,0,0.1-0.1
	c0,0,0.1,0,0.1,0l0.3,0c0.4-0.1,0.8-0.3,1-0.5c0.3-0.4,0.5-0.8,0.7-1.2L6.7,49c0-0.1,0.1-0.2,0.3-0.2c0.1,0,0.2,0,0.2,0
	c0.1,0,0.1,0.1,0.2,0.1c1.8,4.7,3.3,8.4,4.4,11c0.1,0.3,0.3,0.6,0.5,0.9c0.1,0.2,0.3,0.3,0.5,0.5c0.1,0.1,0.3,0.2,0.5,0.2l0.5,0.1
	c0.1,0,0.2,0.1,0.2,0.3c0,0.2-0.1,0.3-0.2,0.3c-0.4,0-0.8,0-1.2-0.1c-0.4-0.1-0.9-0.1-1.3-0.1c-0.5,0-1,0-1.5,0.1
	c-0.5,0-0.9,0.1-1.4,0.1c0,0-0.1,0-0.1,0c0,0-0.1,0-0.1-0.1c0-0.1-0.1-0.2-0.1-0.2c0,0,0-0.1,0-0.1c0,0,0-0.1,0.1-0.1
	c0,0,0.1-0.1,0.1-0.1c0,0,0.1,0,0.1,0c0.3,0,0.7-0.1,1-0.3c0.1-0.1,0.2-0.2,0.2-0.3c0-0.1,0.1-0.2,0.1-0.3c0-0.3-0.1-0.7-0.2-1
	c-0.1-0.5-0.4-1-0.7-1.7c0-0.1,0-0.1-0.1-0.2c0-0.1-0.1-0.1-0.2-0.1c-0.2-0.1-0.4-0.1-0.5-0.1L4.5,57.7z M7.8,56.9
	c0.3,0,0.4-0.1,0.4-0.2l0-0.2l-1.7-4.5c0,0,0-0.1-0.1-0.1c0,0-0.1,0-0.1,0c0,0-0.1,0-0.1,0s0,0-0.1,0.1l-1.8,4.5
	c0,0.1-0.1,0.1-0.1,0.2c0,0.1,0.1,0.2,0.3,0.2H7.8z"/>
<path class="st0" d="M16.6,51.4c0-0.2,0-0.4-0.1-0.6c-0.1-0.2-0.2-0.3-0.3-0.5c-0.4-0.3-0.9-0.4-1.3-0.5c-0.1,0-0.2-0.1-0.2-0.3
	c0-0.2,0.1-0.3,0.2-0.3h0.7l1,0c0.9,0.1,1.4,0.1,1.5,0.2l7.8,9.2c0,0,0,0,0,0c0,0,0,0,0.1,0c0.1,0,0.1,0,0.1-0.1v-5.1
	c0-0.9,0-1.8-0.2-2.7c-0.1-0.2-0.1-0.3-0.2-0.5c-0.1-0.1-0.2-0.2-0.3-0.2c-0.3-0.1-0.6-0.1-0.9-0.1c-0.1,0-0.2-0.1-0.2-0.3
	c0-0.2,0.1-0.3,0.2-0.3c0.3,0,0.7,0,1,0.1c0.4,0,0.7,0.1,1.1,0.1c0.3,0,0.7,0,1-0.1c0.4,0,0.8-0.1,1.1,0c0,0,0.1,0,0.1,0
	c0,0,0.1,0,0.1,0.1c0,0.1,0.1,0.1,0.1,0.2c0,0.1,0,0.2-0.1,0.2c0,0,0,0.1-0.1,0.1c0,0-0.1,0-0.1,0L28.1,50c-0.2,0-0.3,0.1-0.5,0.2
	c-0.2,0.2-0.3,0.4-0.4,0.6C27.1,51.2,27,52.3,27,54v8.3c0,0-0.1,0.1-0.2,0.1c-0.1,0-0.2,0-0.3,0.1c-0.2,0-0.3,0-0.3-0.1l-8.3-9.7
	c0,0-0.1,0-0.1,0c0,0-0.1,0-0.1,0c-0.1,0-0.1,0.1-0.1,0.2v7c0,0.4,0,0.7,0.1,1.1c0.1,0.2,0.2,0.4,0.3,0.6c0.2,0.1,0.3,0.2,0.6,0.3
	c0.2,0,0.5,0.1,0.8,0.1c0.1,0,0.2,0.1,0.2,0.3c0,0.1,0,0.2-0.1,0.2c0,0,0,0.1-0.1,0.1c0,0-0.1,0-0.1,0c-0.3,0-0.6,0-0.9-0.1
	c-0.4,0-0.8-0.1-1.2-0.1c-0.4,0-0.9,0-1.3,0.1c-0.3,0-0.6,0.1-1,0.1c0,0-0.1,0-0.1,0c0,0-0.1,0-0.1-0.1c0-0.1-0.1-0.1-0.1-0.2
	c0-0.2,0.1-0.3,0.2-0.3c0.3,0,0.6-0.1,0.8-0.1c0.2,0,0.4-0.1,0.5-0.3c0.1-0.2,0.2-0.4,0.2-0.6c0.1-0.3,0.1-0.7,0.1-1.1V51.4z"/>
<path class="st0" d="M42.1,60.6c0,0,0,0.1,0,0.1c0,0,0,0.1-0.1,0.1c-0.3,0.2-0.7,0.5-1,0.7c-0.3,0.2-0.7,0.4-1.1,0.5
	c-0.5,0.1-0.9,0.3-1.4,0.3c-0.6,0.1-1.3,0.1-1.9,0.1c-2.1,0-3.7-0.6-4.9-1.7c-1.1-1.2-1.7-2.8-1.7-4.9c0-1.2,0.3-2.5,0.8-3.6
	c0.5-1,1.4-1.8,2.4-2.4c1.1-0.6,2.3-0.8,3.6-0.8c1.2,0,2.3,0.3,3.3,0.8c0.2,0.1,0.5,0.2,0.7,0.2c0.2,0,0.3-0.1,0.4-0.4
	c0-0.1,0.1-0.2,0.3-0.2c0.1,0,0.1,0,0.2,0c0,0,0,0,0.1,0c0,0,0,0,0,0.1v0c-0.1,0.4-0.1,0.8-0.1,1.2c0,0.5,0.1,1.2,0.2,2.2
	c0,0,0,0.1,0,0.1c0,0-0.1,0.1-0.1,0.1c-0.1,0.1-0.2,0.1-0.3,0.1c-0.2,0-0.3-0.1-0.3-0.2c-0.1-1-0.6-1.9-1.5-2.6
	c-0.9-0.6-1.9-0.9-3-0.9c-0.8,0-1.6,0.2-2.3,0.7c-0.7,0.5-1.2,1.2-1.5,2c-0.4,0.9-0.5,1.9-0.5,2.9c0,1.9,0.4,3.4,1.2,4.5
	c0.3,0.5,0.8,0.9,1.4,1.2c0.6,0.3,1.2,0.4,1.8,0.4c1.2,0,2.1-0.2,2.6-0.6c0.3-0.2,0.5-0.5,0.6-0.8c0.1-0.3,0.2-0.7,0.2-1
	c0-0.3,0-0.7-0.1-1c0-0.1-0.1-0.2-0.2-0.3c-0.1-0.1-0.2-0.1-0.3-0.2c-0.4-0.1-0.9-0.2-1.4-0.2c-0.2,0-0.2-0.1-0.2-0.3
	c0-0.1,0-0.1,0.1-0.2c0,0,0,0,0.1-0.1c0,0,0.1,0,0.1,0c0.5,0,0.9,0,1.4,0c0.5,0,0.9,0.1,1.3,0.1l1-0.1l1.2,0c0.1,0,0.2,0.1,0.2,0.3
	c0,0,0,0.1,0,0.1c0,0,0,0.1,0,0.1c0,0,0,0.1-0.1,0.1s-0.1,0-0.1,0c-0.2,0-0.5,0.1-0.7,0.2c-0.1,0.1-0.3,0.2-0.3,0.3
	c-0.1,0.3-0.1,0.6-0.1,1L42.1,60.6z"/>
<path class="st0" d="M51.1,62.4c-2,0-3.6-0.6-4.8-1.7c-1.1-1.1-1.7-2.8-1.7-5.1c0-1.2,0.3-2.4,0.8-3.4c0.5-1,1.3-1.8,2.3-2.4
	c1-0.5,2.2-0.8,3.4-0.8c1.2,0,2.3,0.3,3.4,0.8c1,0.5,1.8,1.3,2.3,2.3c0.5,1.1,0.8,2.2,0.8,3.4c0,1.2-0.3,2.5-0.8,3.6
	c-0.5,1-1.3,1.8-2.3,2.4C53.4,62.1,52.3,62.4,51.1,62.4z M51.2,61.6c0.8,0,1.5-0.3,2.1-0.8c0.6-0.6,1.1-1.3,1.4-2.1
	c0.3-0.9,0.5-1.9,0.5-2.9c0-1.1-0.1-2.1-0.5-3.2c-0.2-0.8-0.7-1.5-1.4-2.1c-0.6-0.5-1.4-0.7-2.2-0.7c-0.8,0-1.5,0.3-2.1,0.8
	c-0.6,0.6-1.1,1.3-1.4,2.1c-0.3,1-0.5,2-0.5,3c0,2,0.4,3.4,1.1,4.4c0.3,0.5,0.8,0.9,1.3,1.1C50,61.5,50.6,61.6,51.2,61.6z"/>
<path class="st0" d="M66.1,49c1.1,0,2.1,0.3,3.1,0.8l0.4,0.2c0.1,0,0.2,0.1,0.3,0.1c0.1,0,0.2,0,0.3-0.1c0.1-0.1,0.1-0.2,0.1-0.3
	c0-0.1,0.1-0.1,0.3-0.1c0.2,0,0.3,0,0.3,0.1v0c-0.1,0.4-0.1,0.9-0.1,1.3c0,0.4,0,0.7,0.1,1.1c0,0.4,0.1,0.7,0.2,1.1c0,0,0,0.1,0,0.1
	c0,0,0,0-0.1,0.1c-0.1,0-0.2,0.1-0.2,0.1c-0.2,0-0.3-0.1-0.3-0.2c-0.6-2.2-2-3.3-4.3-3.3c-0.6,0-1.2,0.1-1.8,0.4
	c-0.6,0.3-1,0.7-1.4,1.1c-0.8,1-1.2,2.4-1.2,4.3c0,1.1,0.2,2.1,0.5,3.1c0.3,0.8,0.8,1.6,1.5,2.1c0.7,0.5,1.5,0.8,2.4,0.8
	c0.8,0,1.5-0.1,2.2-0.3c0.6-0.3,1.1-0.7,1.4-1.2c0.4-0.7,0.7-1.5,0.8-2.3c0,0,0-0.1,0-0.1c0,0,0,0,0.1-0.1c0,0,0,0,0.1,0
	c0,0,0.1,0,0.1,0c0.1,0,0.2,0,0.3,0.1c0.1,0.1,0.1,0.1,0.1,0.2v0c-0.1,0.5-0.1,1-0.1,1.5c0,0.3,0,1.3,0.1,2.7c0,0,0,0.1,0,0.1
	c0,0,0,0.1-0.1,0.1c-0.1,0-0.1,0.1-0.2,0.1c-0.2,0-0.3-0.1-0.3-0.2c0-0.2-0.1-0.4-0.3-0.5c-0.1-0.1-0.1-0.1-0.2-0.1
	c-0.1,0-0.2-0.1-0.3-0.1c-0.2,0-0.3,0-0.5,0.1c-0.5,0.3-1,0.5-1.6,0.7c-0.6,0.1-1.2,0.2-1.8,0.2c-2.3,0-4-0.6-5.1-1.7
	c-1.1-1.1-1.7-2.7-1.7-4.8c0-1.3,0.3-2.5,0.9-3.7c0.5-1,1.4-1.9,2.4-2.4C63.5,49.2,64.8,48.9,66.1,49z"/>
<path class="st0" d="M84.7,57.1c0,1.8-0.4,3.1-1.3,4c-0.8,0.9-2.1,1.3-3.9,1.3c-1.8,0-3.2-0.4-4-1.2c-0.8-0.8-1.2-2-1.2-3.7v-5.4
	c0-0.5,0-0.9-0.2-1.4c-0.1-0.3-0.3-0.5-0.5-0.7c-0.4-0.2-0.7-0.3-1.1-0.3c0,0-0.1,0-0.1,0c0,0-0.1,0-0.1-0.1c0-0.1-0.1-0.1-0.1-0.2
	c0-0.1,0-0.1,0.1-0.2c0,0,0-0.1,0.1-0.1c0,0,0.1,0,0.1,0c0.4,0,0.9,0,1.4,0.1c0.5,0.1,1,0.1,1.5,0.1c0.5,0,0.9,0,1.5-0.1
	c0.5-0.1,1-0.1,1.4-0.1c0.1,0,0.2,0.1,0.2,0.3c0,0.1,0,0.2-0.1,0.3c0,0,0,0.1-0.1,0.1c0,0-0.1,0-0.1,0c-0.4,0-0.8,0.1-1.1,0.2
	c-0.3,0.1-0.4,0.3-0.5,0.6c-0.1,0.5-0.2,1-0.2,1.5v5.2c-0.1,1.1,0.3,2.1,1,2.9c0.3,0.4,0.7,0.6,1.1,0.8c0.4,0.2,0.9,0.3,1.4,0.3
	c0.5,0,1,0,1.5-0.2c0.5-0.2,0.9-0.5,1.3-0.8c0.7-0.7,1-1.8,1-3.2v-4c0-0.5,0-1.1-0.1-1.6c0-0.4-0.1-0.8-0.3-1.2
	c-0.1-0.1-0.2-0.3-0.3-0.3C83,50,82.9,50,82.7,50l-0.6,0c0,0-0.1,0-0.1,0c0,0,0,0-0.1-0.1c0-0.1-0.1-0.1-0.1-0.2
	c0-0.2,0.1-0.3,0.2-0.3c0.3,0,0.7,0,1,0.1c0.4,0,0.7,0.1,1.1,0.1c0.3,0,0.7,0,1-0.1c0.4,0,0.7-0.1,1.1-0.1c0,0,0.1,0,0.1,0
	c0,0,0.1,0,0.1,0.1c0,0.1,0.1,0.1,0.1,0.2c0,0.1,0,0.2-0.1,0.2c0,0,0,0.1-0.1,0.1c0,0-0.1,0-0.1,0l-0.5,0c-0.2,0-0.3,0.1-0.4,0.2
	c-0.1,0.1-0.3,0.3-0.3,0.5c-0.1,0.3-0.2,0.6-0.2,0.9c0,0.4-0.1,0.9-0.1,1.3V54L84.7,57.1z"/>
<path class="st0" d="M89.7,52.6c0-0.5,0-1.1-0.2-1.6c-0.1-0.3-0.3-0.6-0.5-0.8c-0.4-0.2-0.8-0.3-1.2-0.3c-0.2,0-0.2-0.1-0.2-0.3
	c0-0.1,0-0.1,0.1-0.2c0,0,0-0.1,0.1-0.1c0,0,0.1,0,0.1,0c0.4,0,0.8,0,1.2,0c0.4,0,0.8,0,1.2,0l3.4-0.1c1.1-0.1,2.2,0.3,3,0.9
	c0.4,0.3,0.7,0.7,0.9,1.1c0.2,0.4,0.3,0.9,0.3,1.4c0,1.7-1,2.8-2.9,3.2c-0.1,0-0.1,0.1-0.1,0.1c0,0.1,0,0.1,0.1,0.2
	c0.7,0.3,1.3,0.8,1.7,1.4c0.5,0.7,0.8,1.5,0.9,2.3c0.1,0.4,0.2,0.7,0.3,1.1c0.1,0.2,0.2,0.3,0.3,0.4c0.1,0.1,0.3,0.1,0.4,0.1
	s0.3-0.1,0.4-0.2c0.2-0.2,0.3-0.4,0.3-0.6c0-0.1,0-0.1,0.1-0.2c0.1,0,0.1-0.1,0.2-0.1c0.1,0,0.2,0,0.3,0.1c0,0,0.1,0,0.1,0.1
	c0,0,0,0.1,0,0.1v0c0,0.5-0.3,1-0.7,1.3c-0.4,0.3-1,0.5-1.5,0.5c-0.4,0-0.7-0.1-1.1-0.2c-0.3-0.1-0.5-0.4-0.7-0.6
	c-0.3-0.8-0.5-1.6-0.7-2.4L95,58.6c-0.2-0.7-0.5-1.3-0.9-1.8c-0.2-0.2-0.4-0.3-0.7-0.4c-0.3-0.1-0.5-0.1-0.8-0.1
	c-0.5,0-0.8,0.2-0.8,0.7v2.6c0,0.4,0,0.8,0.2,1.2c0.1,0.3,0.3,0.5,0.6,0.6c0.4,0.2,0.9,0.3,1.3,0.3c0,0,0.1,0,0.1,0
	c0,0,0.1,0,0.1,0.1c0,0.1,0.1,0.1,0.1,0.2c0,0.1,0,0.2-0.1,0.2c0,0-0.1,0.1-0.1,0.1c0,0-0.1,0-0.1,0c-0.5,0-1,0-1.7-0.1
	c-0.7-0.1-1.2-0.1-1.4-0.1c-0.5,0-1,0-1.5,0.1c-0.5,0-0.9,0.1-1.4,0.1c0,0-0.1,0-0.1,0c0,0-0.1,0-0.1-0.1c0-0.1-0.1-0.2-0.1-0.2
	c0-0.2,0.1-0.3,0.2-0.3c0.4,0,0.8-0.1,1.2-0.3c0.2-0.1,0.4-0.3,0.5-0.5c0.1-0.4,0.2-0.8,0.1-1.1L89.7,52.6z M91.8,54.8
	c0,0.3,0.1,0.5,0.3,0.6c0.3,0.1,0.6,0.1,0.8,0.1c1,0,1.7-0.2,2.1-0.6c0.4-0.4,0.6-1.1,0.6-2.2c0-1-0.2-1.6-0.6-2
	c-0.4-0.4-1-0.6-2-0.6c-0.3,0-0.7,0-1,0.2c-0.1,0.1-0.2,0.2-0.2,0.4c0,0.1-0.1,0.3,0,0.4V54.8z"/>
<path class="st0" d="M102.7,51.9c0,0.4,0.1,0.9,0.4,1.2c0.4,0.4,0.8,0.7,1.3,0.9c1,0.4,1.9,0.9,2.8,1.4c0.5,0.3,0.9,0.6,1.2,1
	c0.3,0.3,0.5,0.7,0.7,1.1c0.1,0.4,0.2,0.9,0.2,1.3c0,0.7-0.2,1.4-0.6,1.9c-0.4,0.6-1,1-1.7,1.2c-0.8,0.3-1.6,0.4-2.4,0.4
	c-0.4,0-0.8-0.1-1.2-0.2c-0.4-0.1-0.8-0.3-1.2-0.5c-0.1,0-0.1-0.1-0.2-0.1c-0.1,0-0.1,0-0.2,0c-0.2,0-0.4,0.2-0.6,0.5
	c0,0.1-0.1,0.1-0.1,0.1c-0.1,0-0.1,0-0.2,0c-0.1,0-0.1,0-0.2-0.1c0,0,0,0-0.1-0.1c0,0,0-0.1,0-0.1c0.1-0.6,0.1-1.3,0.2-1.9
	c0-0.7,0-1.4-0.1-2v0c0,0,0-0.1,0-0.1c0,0,0-0.1,0.1-0.1c0.1-0.1,0.1-0.1,0.2-0.1c0.2,0,0.3,0.1,0.3,0.2c0.1,1,0.5,1.9,1.2,2.5
	c0.3,0.3,0.7,0.5,1.1,0.7c0.4,0.2,0.8,0.2,1.2,0.2c0.7,0,1.3-0.2,1.9-0.6c0.2-0.2,0.4-0.4,0.6-0.7c0.1-0.3,0.2-0.6,0.2-0.9
	c0-0.4-0.1-0.8-0.3-1.2c-0.2-0.3-0.4-0.6-0.7-0.9c-0.3-0.3-0.6-0.5-1-0.6c-0.4-0.2-0.7-0.4-1-0.5c-0.4-0.2-0.9-0.4-1.3-0.6
	c-0.4-0.2-0.8-0.4-1.1-0.7c-0.3-0.3-0.6-0.6-0.8-1c-0.2-0.5-0.3-1-0.3-1.5c0-0.5,0.1-0.9,0.3-1.4c0.2-0.4,0.5-0.8,0.9-1.1
	c1-0.6,2.1-0.9,3.2-0.9c0.3,0,0.6,0,0.9,0.1c0.3,0.1,0.6,0.1,0.8,0.2c0.2,0.1,0.5,0.1,0.7,0.2c0.1,0,0.1,0,0.2,0
	c0.1,0,0.1-0.1,0.1-0.1c0-0.1,0.1-0.1,0.3-0.1c0.1,0,0.1,0,0.2,0c0.1,0,0.1,0.1,0.1,0.1v0c-0.1,0.5-0.2,0.9-0.2,1.4
	c0,0.3,0,0.6,0.1,0.9c0,0.3,0.1,0.6,0.1,1c0,0,0,0.1-0.1,0.1c-0.1,0-0.1,0.1-0.2,0.1c-0.2,0-0.2-0.1-0.3-0.2
	c-0.1-0.6-0.3-1.2-0.6-1.7c-0.2-0.4-0.5-0.6-0.9-0.8c-0.5-0.2-1-0.3-1.6-0.2c-0.6,0-1.2,0.2-1.7,0.5c-0.2,0.2-0.4,0.4-0.5,0.6
	C102.7,51.3,102.7,51.6,102.7,51.9z"/>
<path class="st0" d="M117.4,62.4c-2,0-3.6-0.6-4.8-1.7c-1.1-1.1-1.7-2.8-1.7-5.1c0-1.2,0.3-2.4,0.8-3.4c0.5-1,1.3-1.8,2.3-2.4
	c1-0.5,2.2-0.8,3.4-0.8c1.2,0,2.3,0.3,3.4,0.8c1,0.5,1.8,1.3,2.3,2.3c0.5,1.1,0.8,2.2,0.8,3.4c0,1.2-0.3,2.5-0.8,3.6
	c-0.5,1-1.3,1.8-2.3,2.4C119.7,62.1,118.6,62.4,117.4,62.4z M117.5,61.6c0.8,0,1.5-0.3,2.1-0.8c0.6-0.6,1.1-1.3,1.4-2.1
	c0.3-0.9,0.5-1.9,0.5-2.9c0-1.1-0.1-2.1-0.5-3.2c-0.2-0.8-0.7-1.5-1.4-2.1c-0.6-0.5-1.4-0.7-2.2-0.7c-0.8,0-1.5,0.3-2.1,0.8
	c-0.6,0.6-1.1,1.3-1.4,2.1c-0.3,1-0.5,2-0.5,3c0,2,0.4,3.4,1.1,4.4c0.3,0.5,0.8,0.9,1.3,1.1C116.3,61.5,116.9,61.6,117.5,61.6z"/>
<path class="st0" d="M127.4,51.9c0,0.4,0.1,0.9,0.4,1.2c0.3,0.4,0.8,0.7,1.3,0.9c1,0.4,1.9,0.9,2.8,1.4c0.5,0.3,0.9,0.6,1.2,1
	c0.3,0.3,0.5,0.7,0.7,1.1c0.1,0.4,0.2,0.9,0.2,1.3c0,0.7-0.2,1.4-0.6,1.9c-0.4,0.6-1,1-1.7,1.2c-0.8,0.3-1.6,0.4-2.4,0.4
	c-0.4,0-0.8-0.1-1.2-0.2c-0.4-0.1-0.8-0.3-1.2-0.5c-0.1,0-0.1-0.1-0.2-0.1c-0.1,0-0.1,0-0.2,0c-0.3,0-0.4,0.2-0.6,0.5
	c0,0.1-0.1,0.1-0.1,0.1c-0.1,0-0.1,0-0.2,0c-0.1,0-0.1,0-0.2-0.1c0,0,0,0-0.1-0.1c0,0,0-0.1,0-0.1c0.1-0.6,0.1-1.3,0.2-1.9
	c0-0.7,0-1.4-0.1-2v0c0,0,0-0.1,0-0.1c0,0,0-0.1,0.1-0.1c0.1-0.1,0.1-0.1,0.2-0.1c0.2,0,0.3,0.1,0.3,0.2c0.1,1,0.5,1.9,1.2,2.5
	c0.3,0.3,0.7,0.5,1.1,0.7c0.4,0.2,0.8,0.2,1.2,0.2c0.7,0,1.3-0.2,1.9-0.6c0.2-0.2,0.4-0.4,0.6-0.7c0.1-0.3,0.2-0.6,0.2-0.9
	c0-0.4-0.1-0.8-0.3-1.2c-0.2-0.3-0.4-0.6-0.7-0.9c-0.3-0.3-0.6-0.5-1-0.6c-0.4-0.2-0.7-0.4-1-0.5c-0.4-0.2-0.9-0.4-1.3-0.6
	c-0.4-0.2-0.8-0.4-1.1-0.7c-0.3-0.3-0.6-0.6-0.8-1c-0.2-0.5-0.3-1-0.3-1.5c0-0.5,0.1-0.9,0.3-1.4c0.2-0.4,0.5-0.8,0.9-1.1
	c1-0.6,2.1-0.9,3.2-0.9c0.3,0,0.6,0,0.9,0.1c0.3,0.1,0.6,0.1,0.8,0.2c0.2,0.1,0.5,0.1,0.7,0.2c0.1,0,0.1,0,0.2,0
	c0.1,0,0.1-0.1,0.1-0.1c0-0.1,0.1-0.1,0.3-0.1c0.1,0,0.1,0,0.2,0c0.1,0,0.1,0.1,0.1,0.1v0c-0.1,0.5-0.2,0.9-0.2,1.4
	c0,0.3,0,0.6,0.1,0.9c0,0.3,0.1,0.6,0.1,1c0,0,0,0.1-0.1,0.1c-0.1,0-0.1,0.1-0.2,0.1c-0.2,0-0.2-0.1-0.3-0.2
	c-0.1-0.6-0.3-1.2-0.6-1.7c-0.2-0.4-0.5-0.6-0.9-0.8c-0.5-0.2-1-0.3-1.6-0.2c-0.6,0-1.2,0.2-1.7,0.5c-0.2,0.2-0.4,0.4-0.5,0.6
	C127.4,51.3,127.4,51.6,127.4,51.9z"/>
<path class="st0" d="M1.5,68.4c0,0-0.1,0-0.1,0c0,0-0.1,0.1-0.1,0.1L1,69.3c0,0,0,0.1,0,0.1c0,0.2,0.2,0.3,0.5,0.3
	c0.1,0,0.1,0,0.1,0.1c0,0.1,0,0.1-0.1,0.1c-0.1,0-0.2,0-0.4,0c-0.2,0-0.3,0-0.4,0c-0.1,0-0.2,0-0.3,0c-0.1,0-0.2,0-0.3,0
	c0,0,0,0,0,0c0,0,0,0,0,0c0,0,0-0.1,0-0.1c0,0,0,0,0,0c0,0,0,0,0,0c0,0,0,0,0,0c0,0,0,0,0,0h0.1c0.1,0,0.3-0.1,0.4-0.2
	c0.1-0.1,0.2-0.3,0.2-0.4l1.5-3.7c0,0,0-0.1,0.1-0.1c0.1,0,0.1,0,0.1,0.1C3.1,67,3.6,68.3,4,69.2c0,0.1,0.1,0.2,0.1,0.3
	c0,0.1,0.1,0.1,0.1,0.2c0,0,0.1,0.1,0.2,0.1l0.2,0c0,0,0.1,0,0.1,0.1c0,0.1,0,0.1-0.1,0.1c-0.1,0-0.3,0-0.4,0c-0.1,0-0.3,0-0.4,0
	c-0.2,0-0.3,0-0.5,0c-0.2,0-0.3,0-0.5,0c0,0,0,0,0,0c0,0,0,0,0,0c0,0,0-0.1,0-0.1c0,0,0,0,0,0c0,0,0,0,0,0c0,0,0,0,0,0c0,0,0,0,0,0
	c0.1,0,0.2,0,0.3-0.1c0,0,0.1-0.1,0.1-0.1c0,0,0-0.1,0-0.1c0-0.1,0-0.2-0.1-0.3c0-0.1-0.1-0.3-0.2-0.6c0,0,0,0,0-0.1c0,0,0,0-0.1,0
	c-0.1,0-0.1,0-0.2,0H1.5z M2.6,68.1c0.1,0,0.1,0,0.1-0.1l0-0.1l-0.6-1.5c0,0,0,0,0,0c0,0,0,0,0,0c0,0,0,0,0,0s0,0,0,0L1.5,68
	c0,0,0,0,0,0.1c0,0,0,0.1,0.1,0.1L2.6,68.1z"/>
<path class="st0" d="M7.7,66.4c0,0.1,0,0.3,0.1,0.4c0.1,0.1,0.3,0.2,0.4,0.3c0.3,0.1,0.6,0.3,1,0.5c0.2,0.1,0.3,0.2,0.4,0.3
	c0.1,0.1,0.2,0.2,0.2,0.4c0,0.1,0.1,0.3,0.1,0.5c0,0.2-0.1,0.5-0.2,0.6c-0.1,0.2-0.3,0.3-0.6,0.4C8.9,69.9,8.6,70,8.3,70
	c-0.1,0-0.3,0-0.4-0.1c-0.1,0-0.3-0.1-0.4-0.2l-0.1,0c0,0,0,0-0.1,0c-0.1,0-0.1,0.1-0.2,0.2c0,0,0,0,0,0c0,0,0,0-0.1,0
	c0,0,0,0-0.1,0c0,0,0,0,0,0c0,0,0,0,0,0c0-0.2,0-0.4,0.1-0.6c0-0.2,0-0.5,0-0.7c0,0,0,0,0,0c0,0,0,0,0,0c0,0,0.1,0,0.1,0
	c0.1,0,0.1,0,0.1,0.1c0,0.3,0.2,0.6,0.4,0.8c0.1,0.1,0.2,0.2,0.4,0.2c0.1,0.1,0.3,0.1,0.4,0.1c0.2,0,0.4-0.1,0.6-0.2
	c0.1-0.1,0.1-0.1,0.2-0.2c0-0.1,0.1-0.2,0.1-0.3c0-0.1,0-0.3-0.1-0.4c-0.1-0.1-0.2-0.2-0.2-0.3c-0.1-0.1-0.2-0.2-0.3-0.2L8.2,68
	l-0.4-0.2c-0.1-0.1-0.3-0.1-0.4-0.2c-0.1-0.1-0.2-0.2-0.3-0.3C7.1,67,7,66.8,7,66.7c0-0.2,0-0.3,0.1-0.5c0.1-0.1,0.2-0.3,0.3-0.4
	c0.3-0.2,0.7-0.3,1.1-0.3c0.1,0,0.2,0,0.3,0c0.1,0,0.2,0,0.3,0.1c0.1,0,0.2,0.1,0.2,0.1c0,0,0,0,0.1,0s0,0,0,0c0,0,0,0,0,0
	c0,0,0,0,0.1,0c0,0,0,0,0.1,0c0,0,0,0,0,0c0,0.1-0.1,0.3-0.1,0.5c0,0.1,0,0.2,0,0.3c0,0.1,0,0.2,0,0.3c0,0,0,0,0,0c0,0,0,0-0.1,0
	c-0.1,0-0.1,0-0.1-0.1c0-0.2-0.1-0.4-0.2-0.6C9.2,66,9.1,65.9,9,65.9c-0.2-0.1-0.3-0.1-0.5-0.1c-0.2,0-0.4,0.1-0.6,0.2
	c-0.1,0.1-0.1,0.1-0.2,0.2C7.7,66.3,7.7,66.3,7.7,66.4z"/>
<path class="st0" d="M14.6,68.2c0,0.5-0.1,1-0.4,1.3c-0.2,0.2-0.4,0.3-0.6,0.3C13.4,70,13.2,70,12.9,70c-0.5,0-1-0.1-1.3-0.4
	c-0.2-0.2-0.3-0.4-0.3-0.6c-0.1-0.2-0.1-0.4-0.1-0.7v-1.8c0-0.2,0-0.3-0.1-0.5c0-0.1-0.1-0.2-0.2-0.2c-0.1-0.1-0.2-0.1-0.4-0.1
	c0,0,0,0,0,0c0,0,0,0,0,0c0,0,0-0.1,0-0.1c0,0,0,0,0-0.1c0,0,0,0,0,0c0,0,0,0,0,0c0.1,0,0.3,0,0.5,0c0.2,0,0.3,0,0.5,0
	c0.2,0,0.3,0,0.5,0c0.2,0,0.3,0,0.5,0c0,0,0.1,0,0.1,0.1c0,0,0,0.1,0,0.1c0,0,0,0,0,0c0,0,0,0,0,0c-0.1,0-0.3,0-0.4,0.1
	c0,0-0.1,0-0.1,0.1c0,0-0.1,0.1-0.1,0.1c0,0.2-0.1,0.3-0.1,0.5v1.7c0,0.4,0.1,0.7,0.3,1c0.1,0.1,0.2,0.2,0.4,0.3
	c0.1,0.1,0.3,0.1,0.5,0.1c0.2,0,0.4,0,0.5-0.1c0.2-0.1,0.3-0.2,0.4-0.3c0.2-0.3,0.4-0.7,0.3-1.1v-1.3c0-0.2,0-0.4,0-0.5
	c0-0.1,0-0.3-0.1-0.4c0,0-0.1-0.1-0.1-0.1c0,0-0.1,0-0.1,0h-0.2c0,0,0,0,0,0c0,0,0,0,0,0c0,0,0-0.1,0-0.1c0-0.1,0-0.1,0.1-0.1
	c0.1,0,0.2,0,0.3,0c0.1,0,0.2,0,0.4,0c0.1,0,0.2,0,0.3,0c0.1,0,0.2,0,0.4,0c0,0,0,0,0,0c0,0,0,0,0,0c0,0,0,0,0,0.1c0,0,0,0.1,0,0.1
	c0,0,0,0,0,0c0,0,0,0,0,0H15c-0.1,0-0.1,0-0.1,0.1c0,0-0.1,0.1-0.1,0.2c0,0.1-0.1,0.2-0.1,0.3c0,0.2,0,0.3,0,0.5L14.6,68.2
	L14.6,68.2z"/>
<path class="st0" d="M16.5,68.4c0,0-0.1,0-0.1,0c0,0-0.1,0.1-0.1,0.1L16,69.3c0,0,0,0.1,0,0.1c0,0.2,0.2,0.3,0.5,0.3
	c0.1,0,0.1,0,0.1,0.1c0,0.1,0,0.1-0.1,0.1c-0.1,0-0.2,0-0.4,0c-0.2,0-0.3,0-0.4,0c-0.1,0-0.2,0-0.3,0c-0.1,0-0.2,0-0.3,0
	c0,0,0,0,0,0s0,0,0,0c0,0,0-0.1,0-0.1c0,0,0,0,0,0c0,0,0,0,0,0c0,0,0,0,0,0c0,0,0,0,0,0h0.1c0.1,0,0.3-0.1,0.4-0.2
	c0.1-0.1,0.2-0.3,0.2-0.4l1.5-3.7c0,0,0-0.1,0.1-0.1c0.1,0,0.1,0,0.1,0.1c0.6,1.6,1.1,2.8,1.5,3.7c0,0.1,0.1,0.2,0.1,0.3
	c0,0.1,0.1,0.1,0.1,0.2c0,0,0.1,0.1,0.2,0.1l0.2,0c0,0,0.1,0,0.1,0.1c0,0.1,0,0.1-0.1,0.1c-0.1,0-0.3,0-0.4,0c-0.1,0-0.3,0-0.4,0
	c-0.2,0-0.3,0-0.5,0c-0.2,0-0.3,0-0.5,0c0,0,0,0,0,0c0,0,0,0,0,0c0,0,0-0.1,0-0.1c0,0,0,0,0,0c0,0,0,0,0,0c0,0,0,0,0,0c0,0,0,0,0,0
	c0.1,0,0.2,0,0.3-0.1c0,0,0.1-0.1,0.1-0.1c0,0,0-0.1,0-0.1c0-0.1,0-0.2-0.1-0.3c0-0.1-0.1-0.3-0.2-0.6c0,0,0,0,0-0.1c0,0,0,0-0.1,0
	c-0.1,0-0.1,0-0.2,0H16.5z M17.6,68.1c0.1,0,0.1,0,0.1-0.1V68l-0.6-1.5c0,0,0,0,0,0c0,0,0,0,0,0c0,0,0,0,0,0s0,0,0,0L16.5,68
	c0,0,0,0,0,0.1c0,0,0,0.1,0.1,0.1L17.6,68.1z"/>
<path class="st0" d="M23.3,69c0,0.1,0,0.2,0,0.3c0,0.1,0.1,0.2,0.1,0.2c0.2,0.1,0.4,0.2,0.6,0.2c0.1,0,0.1,0,0.1,0.1
	c0,0.1,0,0.1-0.1,0.1c-0.2,0-0.4,0-0.6,0c-0.2,0-0.3,0-0.5,0c-0.2,0-0.3,0-0.5,0c-0.2,0-0.3,0-0.5,0c0,0,0,0,0,0c0,0,0,0,0,0
	c0,0,0-0.1,0-0.1c0-0.1,0-0.1,0.1-0.1c0.1,0,0.3,0,0.4-0.1c0.1,0,0.1-0.1,0.2-0.2c0-0.1,0-0.3,0-0.4v-2.4c0-0.2,0-0.3,0-0.5
	c0-0.1-0.1-0.2-0.1-0.3c0-0.1-0.1-0.1-0.2-0.1c-0.1,0-0.2,0-0.3-0.1c0,0,0,0,0,0c0,0,0,0,0,0c0,0,0,0,0-0.1c0,0,0,0,0-0.1
	c0,0,0,0,0,0c0,0,0,0,0,0c0.1,0,0.3,0,0.4,0c0.1,0,0.3,0,0.4,0c0.3,0,0.5,0,0.6,0c0.2,0,0.3,0,0.5,0c0.4,0,0.7,0.1,1,0.3
	c0.1,0.1,0.2,0.2,0.3,0.4c0.1,0.1,0.1,0.3,0.1,0.4c0,0.2,0,0.4-0.1,0.5c-0.1,0.2-0.2,0.3-0.4,0.4C24.4,67.9,24,68,23.5,68
	c0,0-0.1,0-0.1,0c0,0,0,0.1,0,0.1L23.3,69z M23.3,67.6C23.3,67.7,23.3,67.7,23.3,67.6c0.1,0.1,0.1,0.1,0.1,0.1c0.2,0,0.5,0,0.7-0.1
	c0.1-0.1,0.3-0.2,0.3-0.3c0.1-0.2,0.1-0.4,0.1-0.6c0-0.3,0-0.5-0.2-0.7c-0.1-0.1-0.2-0.1-0.3-0.2c-0.1,0-0.2,0-0.3,0
	c-0.1,0-0.2,0-0.3,0.1c0,0-0.1,0.1-0.1,0.1c0,0,0,0.1,0,0.1V67.6z"/>
<path class="st0" d="M26.4,66.5c0-0.2,0-0.3-0.1-0.5c0-0.1-0.1-0.2-0.2-0.2c-0.1-0.1-0.2-0.1-0.4-0.1c-0.1,0-0.1,0-0.1-0.1
	c0-0.1,0-0.1,0.1-0.1c0.1,0,0.3,0,0.5,0c0.2,0,0.3,0,0.5,0H27l0.7,0c0,0,0.1,0,0.1,0.1c0,0,0,0.1,0,0.1c0,0,0,0,0,0c0,0,0,0,0,0
	c-0.1,0-0.3,0-0.4,0.1c-0.1,0-0.1,0.1-0.2,0.2c0,0.2-0.1,0.3-0.1,0.5v2.2c0,0.2,0,0.4,0.1,0.5c0,0.1,0.1,0.1,0.1,0.1
	c0,0,0.1,0.1,0.2,0.1c0.2,0.1,0.4,0.1,0.6,0.1c0.2,0,0.4,0,0.5-0.1c0.1-0.1,0.2-0.2,0.3-0.3c0.1-0.2,0.2-0.4,0.2-0.5
	c0,0,0.1-0.1,0.1-0.1c0,0,0.1,0,0.1,0c0,0,0,0,0,0c0,0.3-0.1,0.7-0.1,1v0.1c0,0,0,0,0,0c0,0,0,0,0,0c0,0-0.1,0-0.1,0h-2.4
	c-0.2,0-0.3,0-0.5,0l-0.5,0c0,0,0,0,0,0c0,0,0,0,0,0c0,0,0,0,0-0.1s0-0.1,0-0.1c0,0,0,0,0,0c0,0,0,0,0,0c0.2,0,0.3,0,0.5-0.1
	c0,0,0.1,0,0.1-0.1c0,0,0-0.1,0.1-0.1c0-0.1,0-0.3,0-0.4L26.4,66.5z"/>
<path class="st0" d="M31.2,68.4c0,0-0.1,0-0.1,0c0,0-0.1,0.1-0.1,0.1l-0.3,0.8c0,0,0,0.1,0,0.1c0,0.2,0.2,0.3,0.5,0.3
	c0.1,0,0.1,0,0.1,0.1c0,0.1,0,0.1-0.1,0.1c-0.1,0-0.2,0-0.4,0c-0.2,0-0.3,0-0.4,0c-0.1,0-0.2,0-0.3,0c-0.1,0-0.2,0-0.3,0
	c0,0,0,0,0,0c0,0,0,0,0,0c0,0,0-0.1,0-0.1c0,0,0,0,0,0c0,0,0,0,0,0c0,0,0,0,0,0c0,0,0,0,0,0h0.1c0.1,0,0.3-0.1,0.4-0.2
	c0.1-0.1,0.2-0.3,0.2-0.4l1.5-3.7c0,0,0-0.1,0.1-0.1c0.1,0,0.1,0,0.1,0.1c0.6,1.6,1.1,2.8,1.5,3.7c0,0.1,0.1,0.2,0.2,0.3
	c0,0.1,0.1,0.1,0.1,0.2c0,0,0.1,0.1,0.2,0.1l0.2,0c0.1,0,0.1,0,0.1,0.1c0,0.1,0,0.1-0.1,0.1c-0.1,0-0.3,0-0.4,0c-0.1,0-0.3,0-0.4,0
	c-0.2,0-0.3,0-0.5,0c-0.2,0-0.3,0-0.5,0c0,0,0,0,0,0c0,0,0,0,0,0c0,0,0-0.1,0-0.1c0,0,0,0,0,0c0,0,0,0,0,0c0,0,0,0,0,0c0,0,0,0,0,0
	c0.1,0,0.2,0,0.3-0.1c0,0,0.1-0.1,0.1-0.1c0,0,0-0.1,0-0.1c0-0.1,0-0.2-0.1-0.3c-0.1-0.1-0.1-0.3-0.2-0.6c0,0,0,0,0-0.1
	c0,0,0,0-0.1,0c-0.1,0-0.1,0-0.2,0H31.2z M32.3,68.1c0.1,0,0.1,0,0.1-0.1V68l-0.6-1.5c0,0,0,0,0,0c0,0,0,0,0,0s0,0,0,0c0,0,0,0,0,0
	L31.2,68c0,0,0,0,0,0.1c0,0,0,0.1,0.1,0.1L32.3,68.1z"/>
<path class="st0" d="M36.5,69.1c0,0.1,0,0.3,0,0.4c0,0,0,0.1,0.1,0.1c0,0,0.1,0,0.1,0.1c0.1,0,0.3,0.1,0.4,0.1c0,0,0,0,0,0
	c0,0,0,0,0,0c0,0,0,0,0,0.1s0,0.1,0,0.1c0,0,0,0,0,0c0,0,0,0,0,0c-0.2,0-0.3,0-0.5,0c-0.2,0-0.3,0-0.5,0c-0.2,0-0.3,0-0.5,0
	c-0.2,0-0.3,0-0.5,0c0,0,0,0,0,0c0,0,0,0,0,0c0,0,0,0,0-0.1c0-0.1,0-0.1,0.1-0.1c0.1,0,0.3,0,0.4-0.1c0,0,0.1,0,0.1-0.1
	c0,0,0-0.1,0.1-0.1c0-0.1,0-0.3,0-0.4v-2.8c0-0.2,0-0.3-0.1-0.3c-0.1-0.1-0.3-0.1-0.4-0.1c-0.2,0-0.3,0-0.5,0.1
	c-0.1,0-0.2,0.1-0.3,0.2c-0.1,0.2-0.1,0.4-0.2,0.5c0,0,0,0.1-0.1,0.1c0,0,0,0-0.1,0c0,0,0,0,0,0c0,0,0,0,0,0c0-0.2,0-0.4,0-0.5
	c0-0.2,0-0.3,0-0.5c0-0.1,0.1-0.1,0.3-0.1h3.5c0.1,0,0.1,0,0.2,0c0.1,0,0.1,0,0.1,0.1c0,0.1,0,0.3,0,0.4c0,0.1,0,0.3,0,0.5
	c0,0,0,0,0,0c0,0,0,0,0,0c0,0-0.1,0-0.1,0c-0.1,0-0.1,0-0.1-0.1c0-0.2-0.1-0.3-0.1-0.5c-0.1-0.1-0.2-0.2-0.3-0.3
	c-0.2-0.1-0.3-0.1-0.5-0.1c-0.1,0-0.3,0-0.4,0.1c-0.1,0-0.1,0.1-0.1,0.3L36.5,69.1z"/>
<path class="st0" d="M39.5,68.4c0,0-0.1,0-0.1,0c0,0-0.1,0.1-0.1,0.1L39,69.3c0,0,0,0.1,0,0.1c0,0.2,0.2,0.3,0.5,0.3
	c0.1,0,0.1,0,0.1,0.1c0,0.1,0,0.1-0.1,0.1c-0.1,0-0.2,0-0.4,0c-0.2,0-0.3,0-0.4,0c-0.1,0-0.2,0-0.3,0c-0.1,0-0.2,0-0.3,0
	c0,0,0,0,0,0c0,0,0,0,0,0c0,0,0-0.1,0-0.1c0,0,0,0,0,0s0,0,0,0c0,0,0,0,0,0c0,0,0,0,0,0h0.1c0.1,0,0.3-0.1,0.4-0.2
	c0.1-0.1,0.2-0.3,0.2-0.4l1.5-3.7c0,0,0-0.1,0.1-0.1c0.1,0,0.1,0,0.1,0.1c0.6,1.6,1.1,2.8,1.5,3.7c0,0.1,0.1,0.2,0.2,0.3
	c0,0.1,0.1,0.1,0.1,0.2c0,0,0.1,0.1,0.2,0.1l0.2,0c0.1,0,0.1,0,0.1,0.1c0,0.1,0,0.1-0.1,0.1c-0.1,0-0.3,0-0.4,0c-0.1,0-0.3,0-0.4,0
	c-0.2,0-0.3,0-0.5,0c-0.2,0-0.3,0-0.5,0c0,0,0,0,0,0c0,0,0,0,0,0c0,0,0-0.1,0-0.1c0,0,0,0,0,0c0,0,0,0,0,0c0,0,0,0,0,0c0,0,0,0,0,0
	c0.1,0,0.2,0,0.3-0.1c0,0,0.1-0.1,0.1-0.1c0,0,0-0.1,0-0.1c0-0.1,0-0.2-0.1-0.3c-0.1-0.1-0.1-0.3-0.2-0.6c0,0,0,0,0-0.1
	c0,0,0,0-0.1,0c-0.1,0-0.1,0-0.2,0H39.5z M40.6,68.1c0.1,0,0.1,0,0.1-0.1V68l-0.6-1.5c0,0,0,0,0,0c0,0,0,0,0,0c0,0,0,0,0,0
	c0,0,0,0,0,0L39.5,68c0,0,0,0,0,0.1c0,0,0,0.1,0.1,0.1L40.6,68.1z"/>
<path class="st0" d="M46.2,65.6c0,0,0.1,0,0.1,0c0,0,0,0,0,0.1v0.1c0,0.1,0,0.2,0,0.3v0.1v0.5c0,0,0,0,0,0c0,0,0,0-0.1,0
	c0,0,0,0-0.1,0c0,0,0,0,0-0.1c0-0.2-0.1-0.3-0.1-0.5c0-0.1-0.1-0.1-0.2-0.2c-0.2,0-0.3-0.1-0.5-0.1h-0.4c-0.1,0-0.3,0-0.4,0
	c0,0,0,0-0.1,0c0,0,0,0,0,0.1c0,0.1,0,0.2,0,0.3v1.2c0,0.1,0,0.1,0.1,0.1c0.2,0,0.3,0,0.5,0c0.1,0,0.2,0,0.3-0.1
	c0.1,0,0.1-0.1,0.1-0.2c0-0.1,0-0.2,0.1-0.3c0-0.1,0-0.1,0.1-0.1c0,0,0,0,0.1,0c0,0,0,0,0,0c0,0,0,0,0,0c0,0.1,0,0.2,0,0.3
	c0,0.1,0,0.2,0,0.4c0,0.1,0,0.2,0,0.3c0,0.1,0,0.3,0,0.4c0,0,0,0.1-0.1,0.1c0,0-0.1,0-0.1,0c0,0,0,0,0,0c0,0,0,0,0,0
	c0-0.1,0-0.3-0.1-0.4c-0.1-0.1-0.1-0.1-0.2-0.1c-0.2,0-0.4,0-0.5,0c-0.1,0-0.1,0-0.1,0.1v1c0,0.1,0,0.3,0.1,0.4
	c0,0.1,0.1,0.2,0.2,0.2c0.2,0.1,0.3,0.1,0.5,0.1c0.1,0,0.1,0,0.1,0.1c0,0,0,0.1,0,0.1c0,0,0,0,0,0c0,0,0,0,0,0c-0.2,0-0.4,0-0.6,0
	c-0.2,0-0.3,0-0.5,0c-0.2,0-0.3,0-0.5,0c-0.2,0-0.3,0-0.5,0c0,0,0,0,0,0c0,0,0,0,0,0c0,0,0-0.1,0-0.1c0-0.1,0-0.1,0.1-0.1
	c0.1,0,0.3,0,0.4-0.1c0.1,0,0.1-0.1,0.2-0.2c0-0.1,0.1-0.2,0-0.4v-2.4c0-0.2,0-0.4-0.1-0.5c0-0.1-0.1-0.2-0.2-0.3
	c-0.1-0.1-0.3-0.1-0.4-0.1c-0.1,0-0.1,0-0.1-0.1c0,0,0,0,0-0.1c0,0,0,0,0,0c0,0,0,0,0,0c0.1,0,0.3,0,0.4,0c0.1,0,0.3,0,0.4,0
	L46.2,65.6z"/>
<path class="st0" d="M49,69.9c-0.3,0-0.6,0-0.9-0.1c-0.3-0.1-0.5-0.3-0.7-0.4c-0.2-0.2-0.4-0.5-0.5-0.8c-0.1-0.3-0.1-0.6-0.1-0.9
	c0-0.4,0.1-0.8,0.3-1.1c0.2-0.3,0.4-0.6,0.8-0.8c0.3-0.2,0.7-0.3,1.1-0.3c0.4,0,0.8,0.1,1.1,0.3c0.3,0.2,0.6,0.5,0.8,0.8
	c0.2,0.4,0.3,0.7,0.3,1.1c0,0.4-0.1,0.8-0.3,1.2c-0.2,0.3-0.4,0.6-0.8,0.8C49.8,69.9,49.4,70,49,69.9z M49.1,69.7
	c0.3,0,0.5-0.1,0.7-0.3c0.2-0.2,0.4-0.4,0.5-0.7c0.1-0.3,0.2-0.7,0.2-1c0-0.4,0-0.7-0.2-1.1c-0.1-0.3-0.2-0.5-0.5-0.7
	c-0.2-0.2-0.5-0.2-0.7-0.2c-0.3,0-0.5,0.1-0.7,0.3c-0.2,0.2-0.4,0.4-0.5,0.7c-0.1,0.3-0.2,0.7-0.2,1c0,0.5,0.1,1,0.4,1.5
	c0.1,0.2,0.3,0.3,0.4,0.4C48.7,69.7,48.9,69.7,49.1,69.7z"/>
<path class="st0" d="M52.5,66.7c0-0.2,0-0.4-0.1-0.5c0-0.1-0.1-0.2-0.2-0.3c-0.1-0.1-0.3-0.1-0.4-0.1c-0.1,0-0.1,0-0.1-0.1
	c0,0,0,0,0-0.1c0,0,0,0,0,0c0,0,0,0,0,0c0.1,0,0.3,0,0.4,0c0.1,0,0.3,0,0.4,0l1.1,0c0.4,0,0.7,0.1,1,0.3c0.1,0.1,0.2,0.2,0.3,0.4
	c0.1,0.1,0.1,0.3,0.1,0.5c0,0.3-0.1,0.5-0.3,0.7c-0.2,0.2-0.4,0.3-0.7,0.3c0,0,0,0,0,0c0,0,0,0,0,0.1c0.2,0.1,0.4,0.3,0.6,0.5
	c0.2,0.2,0.3,0.5,0.3,0.8c0,0.1,0,0.2,0.1,0.4c0,0.1,0.1,0.1,0.1,0.1c0,0,0.1,0,0.1,0c0.1,0,0.1,0,0.2-0.1c0.1-0.1,0.1-0.1,0.1-0.2
	c0,0,0,0,0-0.1c0,0,0,0,0.1,0c0,0,0.1,0,0.1,0c0,0,0,0,0,0c0,0,0,0,0,0c0,0.1,0,0.2-0.1,0.3c0,0.1-0.1,0.1-0.2,0.2
	c-0.1,0.1-0.3,0.2-0.5,0.2c-0.1,0-0.2,0-0.4-0.1c-0.1,0-0.2-0.1-0.2-0.2c-0.1-0.3-0.2-0.5-0.2-0.8l-0.1-0.2
	c-0.1-0.2-0.2-0.4-0.3-0.6c-0.1-0.1-0.3-0.2-0.5-0.2c-0.2,0-0.3,0.1-0.3,0.2V69c0,0.1,0,0.3,0.1,0.4c0,0.1,0.1,0.2,0.2,0.2
	c0.1,0.1,0.3,0.1,0.5,0.1c0,0,0,0,0,0c0,0,0,0,0,0c0,0,0,0,0,0.1c0,0,0,0.1,0,0.1c0,0,0,0,0,0c0,0,0,0,0,0c-0.2,0-0.3,0-0.6,0
	c-0.2,0-0.4,0-0.5,0c-0.2,0-0.3,0-0.5,0c-0.2,0-0.3,0-0.5,0c0,0,0,0,0,0c0,0,0,0,0,0c0,0,0-0.1,0-0.1c0-0.1,0-0.1,0.1-0.1
	c0.1,0,0.3,0,0.4-0.1c0.1,0,0.1-0.1,0.2-0.2c0-0.1,0-0.2,0-0.4L52.5,66.7z M53.2,67.4c0,0.1,0,0.2,0.1,0.2c0.1,0,0.2,0,0.3,0
	c0.2,0,0.5,0,0.7-0.2c0.2-0.2,0.2-0.5,0.2-0.7c0-0.2,0-0.5-0.2-0.7c-0.1-0.1-0.2-0.1-0.3-0.2c-0.1,0-0.2,0-0.4,0
	c-0.1,0-0.2,0-0.3,0.1c0,0-0.1,0.1-0.1,0.1s0,0.1,0,0.1V67.4z"/>
<path class="st0" d="M56.9,66.4c0-0.1,0-0.2,0-0.3c0-0.1-0.1-0.1-0.1-0.2c-0.1,0-0.3-0.1-0.4-0.1c0,0,0,0,0,0c0,0,0,0,0,0
	c0,0,0,0,0-0.1c0,0,0,0,0-0.1c0,0,0,0,0,0c0,0,0,0,0,0h0.2c0.8,0,1.2,0,1.2,0.1l1.3,3c0,0,0,0,0,0c0,0,0,0,0,0l1.3-3
	c0,0,0.2-0.1,0.5-0.1c0.3,0,0.6,0,0.8,0c0.1,0,0.1,0,0.1,0.1c0,0.1,0,0.1-0.1,0.1c-0.1,0-0.3,0.1-0.3,0.1c0,0-0.1,0-0.1,0
	c0,0-0.1,0-0.1,0.1c0,0.1-0.1,0.2-0.1,0.3c0,0.1,0,0.3,0,0.5V69c0,0.1,0,0.3,0,0.4c0,0,0,0.1,0.1,0.1s0.1,0.1,0.1,0.1
	c0.1,0,0.3,0.1,0.4,0.1c0,0,0,0,0,0c0,0,0,0,0,0c0,0,0,0,0,0.1c0,0,0,0.1,0,0.1c0,0,0,0,0,0c0,0,0,0,0,0c-0.2,0-0.3,0-0.5,0
	c-0.2,0-0.3,0-0.5,0c-0.2,0-0.3,0-0.5,0c-0.2,0-0.3,0-0.5,0c0,0,0,0,0,0c0,0,0,0,0,0c0,0,0,0,0-0.1c0,0,0-0.1,0-0.1c0,0,0,0,0,0
	c0,0,0,0,0,0c0.1,0,0.3,0,0.4-0.1c0,0,0.1,0,0.1-0.1c0,0,0-0.1,0.1-0.1c0-0.1,0-0.3,0-0.4v-2.4c0,0,0,0,0,0c0,0,0,0,0,0c0,0,0,0,0,0
	c0,0,0,0,0,0c0,0-0.1,0-0.1,0l-0.9,2.2c-0.1,0.2-0.2,0.5-0.4,1c0,0,0,0-0.1,0s-0.1,0-0.1,0l-1.5-3.2c0,0,0,0,0,0c0,0,0,0,0,0
	c0,0,0,0,0,0v2.4c0,0.1,0,0.2,0,0.4c0,0.1,0.1,0.1,0.1,0.2c0.1,0,0.1,0.1,0.2,0.1c0.1,0,0.2,0,0.3,0c0.1,0,0.1,0,0.1,0.1
	c0,0.1,0,0.1-0.1,0.1c-0.1,0-0.2,0-0.3,0c-0.1,0-0.3,0-0.4,0c-0.1,0-0.3,0-0.4,0c-0.1,0-0.2,0-0.3,0c0,0,0,0,0,0s0,0,0,0
	c0,0,0-0.1,0-0.1c0-0.1,0-0.1,0.1-0.1c0.1,0,0.2,0,0.3,0c0.1,0,0.1,0,0.2-0.1c0-0.1,0.1-0.1,0.1-0.2c0-0.1,0-0.2,0-0.4L56.9,66.4z"
	/>
<path class="st0" d="M63.6,68.4c0,0-0.1,0-0.1,0c0,0-0.1,0.1-0.1,0.1l-0.3,0.8c0,0,0,0.1,0,0.1c0,0.2,0.2,0.3,0.5,0.3
	c0.1,0,0.1,0,0.1,0.1c0,0.1,0,0.1-0.1,0.1c-0.1,0-0.2,0-0.4,0c-0.2,0-0.3,0-0.4,0c-0.1,0-0.2,0-0.3,0c-0.1,0-0.2,0-0.3,0
	c0,0,0,0,0,0c0,0,0,0,0,0c0,0,0-0.1,0-0.1c0,0,0,0,0,0c0,0,0,0,0,0c0,0,0,0,0,0c0,0,0,0,0,0h0.1c0.1,0,0.3-0.1,0.4-0.2
	c0.1-0.1,0.2-0.3,0.2-0.4l1.5-3.7c0,0,0-0.1,0.1-0.1c0.1,0,0.1,0,0.1,0.1c0.6,1.6,1.1,2.8,1.5,3.7c0,0.1,0.1,0.2,0.1,0.3
	c0,0.1,0.1,0.1,0.1,0.2c0,0,0.1,0.1,0.2,0.1l0.2,0c0,0,0.1,0,0.1,0.1c0,0.1,0,0.1-0.1,0.1c-0.1,0-0.3,0-0.4,0c-0.1,0-0.3,0-0.4,0
	c-0.2,0-0.3,0-0.5,0c-0.2,0-0.3,0-0.5,0c0,0,0,0,0,0c0,0,0,0,0,0c0,0,0-0.1,0-0.1c0,0,0,0,0,0c0,0,0,0,0,0c0,0,0,0,0,0c0,0,0,0,0,0
	c0.1,0,0.2,0,0.3-0.1c0,0,0.1-0.1,0.1-0.1c0,0,0-0.1,0-0.1c0-0.1,0-0.2-0.1-0.3c0-0.1-0.1-0.3-0.2-0.6c0,0,0,0,0-0.1c0,0,0,0-0.1,0
	c-0.1,0-0.1,0-0.2,0H63.6z M64.8,68.1c0.1,0,0.1,0,0.1-0.1V68l-0.6-1.5c0,0,0,0,0,0c0,0,0,0,0,0c0,0,0,0,0,0c0,0,0,0,0,0L63.6,68
	c0,0,0,0,0,0.1c0,0,0,0.1,0.1,0.1L64.8,68.1z"/>
<path class="st0" d="M69.8,66.7c0-0.2,0-0.4-0.1-0.5c0-0.1-0.1-0.2-0.2-0.3c-0.1-0.1-0.2-0.1-0.4-0.1c-0.1,0-0.1,0-0.1-0.1
	c0,0,0,0,0-0.1c0,0,0,0,0,0c0,0,0,0,0,0c0.1,0,0.3,0,0.4,0c0.1,0,0.3,0,0.4,0c0.2,0,0.4,0,0.5,0s0.3,0,0.5,0c0.4,0,0.9,0.1,1.3,0.3
	c0.4,0.2,0.7,0.5,0.9,0.8c0.2,0.3,0.3,0.7,0.3,1.1c0,0.4-0.1,0.8-0.3,1.1c-0.2,0.3-0.5,0.6-0.8,0.7c-0.4,0.2-0.8,0.3-1.2,0.2
	c-0.2,0-0.4,0-0.6,0c-0.2,0-0.3,0-0.5,0c-0.2,0-0.5,0-0.7,0l-0.2,0c0,0,0,0,0,0s0,0,0,0c0,0,0-0.1,0-0.1c0,0,0,0,0,0c0,0,0,0,0,0
	c0,0,0,0,0,0c0,0,0,0,0,0c0.1,0,0.3,0,0.4-0.1c0.1,0,0.1-0.1,0.2-0.2c0-0.1,0.1-0.2,0.1-0.3L69.8,66.7z M70.5,68.7
	c0,0.2,0,0.4,0.1,0.6c0,0.1,0,0.1,0.1,0.1c0,0,0.1,0.1,0.1,0.1c0.2,0.1,0.4,0.1,0.6,0.1c0.2,0,0.4,0,0.5-0.1
	c0.2-0.1,0.3-0.2,0.4-0.4c0.3-0.4,0.4-0.9,0.4-1.3c0-0.5-0.1-1.1-0.5-1.5c-0.2-0.2-0.4-0.3-0.7-0.4c-0.2-0.1-0.5-0.1-0.8-0.1
	c-0.1,0-0.1,0-0.2,0c0,0-0.1,0.1-0.1,0.2L70.5,68.7z"/>
<path class="st0" d="M77.1,65.6c0,0,0.1,0,0.1,0c0,0,0,0,0,0.1v0.1c0,0.1,0,0.2,0,0.2v0.1v0.5c0,0,0,0,0,0s0,0,0,0c0,0,0,0-0.1,0
	c-0.1,0-0.1,0-0.1-0.1c0-0.2-0.1-0.3-0.1-0.5c0-0.1-0.1-0.1-0.2-0.2c-0.2-0.1-0.3-0.1-0.5-0.1h-0.4c-0.1,0-0.3,0-0.4,0
	c0,0,0,0-0.1,0c0,0,0,0,0,0.1c0,0.1,0,0.2,0,0.3v1.1c0,0.1,0,0.1,0.1,0.1c0.2,0,0.4,0,0.5,0c0.1,0,0.2-0.1,0.2-0.1
	c0.1-0.1,0.1-0.3,0.1-0.4c0,0,0.1-0.1,0.1-0.1c0.1,0,0.1,0,0.1,0.1c0,0.1,0,0.2,0,0.3s0,0.3,0,0.4c0,0.1,0,0.2,0,0.3
	c0,0.1,0,0.3,0,0.4c0,0,0,0.1-0.1,0.1c-0.1,0-0.1,0-0.1-0.1c0-0.1,0-0.3-0.1-0.4c-0.1-0.1-0.2-0.1-0.2-0.1c-0.2,0-0.4,0-0.5,0
	c-0.1,0-0.1,0-0.1,0.1v0.8c0,0.2,0,0.4,0.1,0.6c0,0,0,0.1,0.1,0.1c0,0,0.1,0.1,0.1,0.1c0.2,0,0.4,0.1,0.6,0.1c0.2,0,0.3,0,0.5-0.1
	c0.2,0,0.3-0.1,0.4-0.3c0.1-0.2,0.1-0.3,0.2-0.5c0,0,0-0.1,0.1-0.1c0,0,0.1,0,0.1,0c0,0,0,0,0,0l-0.1,0.5c0,0.1,0,0.3,0,0.4v0.1
	c0,0,0,0,0,0c0,0,0,0,0,0c0,0-0.1,0-0.1,0H75c-0.2,0-0.5,0-0.9,0c0,0,0,0,0,0c0,0,0,0,0,0c0,0,0-0.1,0-0.1c0-0.1,0-0.1,0.1-0.1
	c0.2,0,0.3-0.1,0.5-0.2c0.1-0.1,0.1-0.3,0.1-0.4v-2.5c0-0.2,0-0.4-0.1-0.5c0-0.1-0.1-0.2-0.2-0.2c-0.1-0.1-0.3-0.1-0.4-0.1
	c0,0-0.1,0-0.1-0.1c0,0,0,0,0-0.1c0,0,0,0,0,0c0,0,0,0,0,0l0.8,0H77.1z"/>
<path class="st0" d="M82.2,65.5c0.4,0,0.7,0.1,1,0.3l0.1,0.1c0,0,0.1,0,0.1,0c0.1,0,0.1,0,0.1-0.1c0-0.1,0,0,0.1,0
	c0.1,0,0.1,0,0.1,0c0,0.1,0,0.3,0,0.4c0,0.1,0,0.2,0,0.4c0,0.1,0,0.2,0.1,0.4c0,0,0,0,0,0s0,0,0,0c0,0-0.1,0-0.1,0
	c-0.1,0-0.1,0-0.1-0.1c-0.1-0.3-0.2-0.6-0.5-0.8c-0.3-0.2-0.6-0.3-0.9-0.3c-0.2,0-0.4,0-0.6,0.1c-0.2,0.1-0.3,0.2-0.5,0.4
	c-0.3,0.4-0.4,0.9-0.4,1.4c0,0.4,0.1,0.7,0.2,1c0.1,0.3,0.3,0.5,0.5,0.7c0.2,0.2,0.5,0.3,0.8,0.3c0.3,0,0.5,0,0.7-0.1
	c0.2-0.1,0.4-0.2,0.5-0.4c0.1-0.2,0.2-0.5,0.3-0.8c0,0,0,0,0,0c0,0,0,0,0,0c0,0,0,0,0,0c0,0,0,0,0,0c0,0,0.1,0,0.1,0c0,0,0,0,0,0.1
	c0,0.2,0,0.3,0,0.5c0,0.1,0,0.4,0,0.9c0,0,0,0,0,0c0,0,0,0,0,0c0,0,0,0-0.1,0c-0.1,0-0.1,0-0.1-0.1c0-0.1,0-0.1-0.1-0.2
	c0,0-0.1-0.1-0.2-0.1c-0.1,0-0.1,0-0.2,0c-0.2,0.1-0.3,0.2-0.5,0.2c-0.2,0-0.4,0.1-0.6,0.1c-0.3,0-0.6,0-0.9-0.1
	c-0.3-0.1-0.6-0.3-0.8-0.5c-0.2-0.2-0.4-0.5-0.5-0.8c-0.1-0.3-0.1-0.6-0.1-0.9c0-0.4,0.1-0.8,0.3-1.2c0.2-0.3,0.5-0.6,0.8-0.8
	C81.4,65.5,81.8,65.4,82.2,65.5z"/>
<path class="st0" d="M88.6,68.2c0,0.5-0.1,1-0.4,1.3c-0.2,0.2-0.4,0.3-0.6,0.3C87.4,70,87.1,70,86.9,70c-0.5,0-1-0.1-1.3-0.4
	c-0.2-0.2-0.3-0.4-0.3-0.6c-0.1-0.2-0.1-0.4-0.1-0.7v-1.8c0-0.2,0-0.3-0.1-0.5c0-0.1-0.1-0.2-0.2-0.2c-0.1-0.1-0.2-0.1-0.4-0.1
	c0,0,0,0,0,0c0,0,0,0,0,0c0,0,0-0.1,0-0.1c0,0,0,0,0-0.1c0,0,0,0,0,0c0,0,0,0,0,0c0.1,0,0.3,0,0.5,0c0.2,0,0.3,0,0.5,0
	c0.2,0,0.3,0,0.5,0c0.2,0,0.3,0,0.5,0c0,0,0.1,0,0.1,0.1c0,0,0,0.1,0,0.1c0,0,0,0,0,0c0,0,0,0,0,0c-0.1,0-0.3,0-0.4,0.1
	c-0.1,0-0.1,0.1-0.2,0.2c0,0.2-0.1,0.3-0.1,0.5v1.7c0,0.4,0.1,0.7,0.3,1c0.1,0.1,0.2,0.2,0.4,0.3c0.1,0.1,0.3,0.1,0.5,0.1
	c0.2,0,0.3,0,0.5-0.1c0.2-0.1,0.3-0.2,0.4-0.3c0.2-0.3,0.4-0.7,0.3-1.1v-1.3c0-0.2,0-0.4,0-0.5c0-0.1,0-0.3-0.1-0.4
	c0,0-0.1-0.1-0.1-0.1c0,0-0.1,0-0.1,0h-0.2c0,0,0,0,0,0c0,0,0,0,0,0c0,0,0-0.1,0-0.1c0-0.1,0-0.1,0.1-0.1c0.1,0,0.2,0,0.3,0
	c0.1,0,0.2,0,0.4,0c0.1,0,0.2,0,0.3,0c0.1,0,0.2,0,0.4,0c0,0,0,0,0,0c0,0,0,0,0,0c0,0,0,0,0,0.1c0,0,0,0.1,0,0.1c0,0,0,0,0,0
	c0,0,0,0,0,0H89c-0.1,0-0.1,0-0.1,0.1c0,0-0.1,0.1-0.1,0.2c0,0.1-0.1,0.2-0.1,0.3c0,0.2,0,0.3,0,0.5L88.6,68.2L88.6,68.2z"/>
<path class="st0" d="M90.4,66.7c0-0.2,0-0.4-0.1-0.5c0-0.1-0.1-0.2-0.2-0.3c-0.1-0.1-0.3-0.1-0.4-0.1c-0.1,0-0.1,0-0.1-0.1
	c0,0,0,0,0-0.1c0,0,0,0,0,0c0,0,0,0,0,0c0.1,0,0.3,0,0.4,0s0.3,0,0.4,0l1.1,0c0.4,0,0.7,0.1,1,0.3c0.1,0.1,0.2,0.2,0.3,0.4
	c0.1,0.1,0.1,0.3,0.1,0.5c0,0.3-0.1,0.5-0.3,0.7c-0.2,0.2-0.4,0.3-0.7,0.3c0,0,0,0,0,0c0,0,0,0,0,0.1c0.2,0.1,0.4,0.3,0.6,0.5
	c0.2,0.2,0.3,0.5,0.3,0.8c0,0.1,0,0.2,0.1,0.4c0,0.1,0.1,0.1,0.1,0.1c0,0,0.1,0,0.1,0c0.1,0,0.1,0,0.2-0.1c0.1-0.1,0.1-0.1,0.1-0.2
	c0,0,0,0,0-0.1c0,0,0,0,0.1,0c0,0,0.1,0,0.1,0c0,0,0,0,0,0c0,0,0,0,0,0c0,0.1,0,0.2-0.1,0.3c0,0.1-0.1,0.1-0.2,0.2
	c-0.1,0.1-0.3,0.2-0.5,0.2c-0.1,0-0.2,0-0.4-0.1c-0.1,0-0.2-0.1-0.2-0.2c-0.1-0.3-0.2-0.5-0.2-0.8l-0.1-0.2
	c-0.1-0.2-0.2-0.4-0.3-0.6c-0.1-0.1-0.3-0.2-0.5-0.2c-0.2,0-0.3,0.1-0.3,0.2V69c0,0.1,0,0.3,0.1,0.4c0,0.1,0.1,0.2,0.2,0.2
	c0.1,0.1,0.3,0.1,0.5,0.1c0,0,0,0,0,0c0,0,0,0,0,0c0,0,0,0,0,0.1c0,0,0,0.1,0,0.1c0,0,0,0,0,0s0,0,0,0c-0.2,0-0.3,0-0.6,0
	c-0.2,0-0.4,0-0.5,0c-0.2,0-0.3,0-0.5,0c-0.2,0-0.3,0-0.5,0c0,0,0,0,0,0c0,0,0,0,0,0c0,0,0-0.1,0-0.1c0,0,0,0,0-0.1c0,0,0,0,0.1,0
	c0.1,0,0.3,0,0.4-0.1c0.1,0,0.1-0.1,0.2-0.2c0-0.1,0-0.2,0-0.4L90.4,66.7z M91.1,67.4c0,0.1,0,0.2,0.1,0.2c0.1,0,0.2,0,0.3,0
	c0.2,0,0.5,0,0.7-0.2c0.2-0.2,0.2-0.5,0.2-0.7c0-0.2,0-0.5-0.2-0.7c-0.1-0.1-0.2-0.1-0.3-0.2s-0.2,0-0.4,0c-0.1,0-0.2,0-0.3,0.1
	c0,0-0.1,0.1-0.1,0.1c0,0,0,0.1,0,0.1V67.4z"/>
<path class="st0" d="M94.9,66.4c0,0.1,0,0.3,0.1,0.4c0.1,0.1,0.3,0.2,0.4,0.3c0.3,0.1,0.6,0.3,1,0.5c0.2,0.1,0.3,0.2,0.4,0.3
	c0.1,0.1,0.2,0.2,0.2,0.4c0,0.1,0.1,0.3,0.1,0.5c0,0.2-0.1,0.5-0.2,0.6c-0.1,0.2-0.3,0.3-0.6,0.4c-0.3,0.1-0.5,0.1-0.8,0.1
	c-0.1,0-0.3,0-0.4-0.1c-0.1,0-0.3-0.1-0.4-0.2l-0.1,0c0,0,0,0-0.1,0c-0.1,0-0.1,0.1-0.2,0.2c0,0,0,0,0,0c0,0,0,0-0.1,0
	c0,0,0,0-0.1,0c0,0,0,0,0,0c0,0,0,0,0,0c0-0.2,0-0.4,0.1-0.6c0-0.2,0-0.5,0-0.7c0,0,0,0,0,0c0,0,0,0,0,0c0,0,0.1,0,0.1,0
	c0.1,0,0.1,0,0.1,0.1c0,0.3,0.2,0.6,0.4,0.8c0.1,0.1,0.2,0.2,0.4,0.2c0.1,0.1,0.3,0.1,0.4,0.1c0.2,0,0.4-0.1,0.6-0.2
	c0.1-0.1,0.1-0.1,0.2-0.2c0-0.1,0.1-0.2,0.1-0.3c0-0.1,0-0.3-0.1-0.4c-0.1-0.1-0.2-0.2-0.2-0.3c-0.1-0.1-0.2-0.2-0.3-0.2L95.5,68
	l-0.4-0.2c-0.1-0.1-0.3-0.1-0.4-0.2c-0.1-0.1-0.2-0.2-0.3-0.3c-0.1-0.2-0.1-0.3-0.1-0.5c0-0.2,0-0.3,0.1-0.5
	c0.1-0.1,0.2-0.3,0.3-0.4c0.3-0.2,0.7-0.3,1.1-0.3c0.1,0,0.2,0,0.3,0c0.1,0,0.2,0,0.3,0.1c0.1,0,0.2,0.1,0.2,0.1c0,0,0,0,0.1,0
	s0,0,0,0c0,0,0,0,0,0c0,0,0,0,0.1,0h0.1c0,0,0,0,0,0c0,0.1-0.1,0.3-0.1,0.5c0,0.1,0,0.2,0,0.3c0,0.1,0,0.2,0,0.3c0,0,0,0,0,0
	c0,0,0,0-0.1,0c-0.1,0-0.1,0-0.1-0.1c0-0.2-0.1-0.4-0.2-0.6c-0.1-0.1-0.2-0.2-0.3-0.3c-0.2-0.1-0.3-0.1-0.5-0.1
	c-0.2,0-0.4,0.1-0.6,0.2C95.1,66,95,66.1,95,66.2C95,66.3,94.9,66.3,94.9,66.4z"/>
<path class="st0" d="M100,69.9c-0.3,0-0.6,0-0.9-0.1c-0.3-0.1-0.5-0.2-0.7-0.4c-0.2-0.2-0.4-0.5-0.5-0.8c-0.1-0.3-0.1-0.6-0.1-0.9
	c0-0.4,0.1-0.8,0.3-1.1c0.2-0.3,0.4-0.6,0.8-0.8c0.3-0.2,0.7-0.3,1.1-0.3c0.4,0,0.8,0.1,1.1,0.3c0.3,0.2,0.6,0.4,0.8,0.8
	c0.2,0.4,0.3,0.7,0.3,1.1c0,0.4-0.1,0.8-0.3,1.2c-0.2,0.3-0.4,0.6-0.8,0.8C100.8,69.9,100.4,70,100,69.9z M100,69.7
	c0.3,0,0.5-0.1,0.7-0.3c0.2-0.2,0.4-0.4,0.5-0.7c0.1-0.3,0.2-0.7,0.2-1c0-0.4,0-0.7-0.2-1.1c-0.1-0.3-0.2-0.5-0.5-0.7
	c-0.2-0.2-0.5-0.2-0.7-0.2c-0.3,0-0.5,0.1-0.7,0.3c-0.2,0.2-0.4,0.4-0.5,0.7c-0.1,0.3-0.2,0.7-0.2,1c0,0.5,0.1,1,0.4,1.5
	c0.1,0.2,0.3,0.3,0.4,0.4C99.6,69.7,99.8,69.7,100,69.7z"/>
<path class="st0" d="M103.5,66.4c0,0.1,0,0.3,0.1,0.4c0.1,0.1,0.3,0.2,0.4,0.3c0.3,0.1,0.6,0.3,1,0.5c0.2,0.1,0.3,0.2,0.4,0.3
	c0.1,0.1,0.2,0.2,0.2,0.4c0,0.1,0.1,0.3,0.1,0.5c0,0.2-0.1,0.5-0.2,0.6c-0.1,0.2-0.3,0.3-0.6,0.4c-0.3,0.1-0.5,0.1-0.8,0.1
	c-0.1,0-0.3,0-0.4-0.1c-0.1,0-0.3-0.1-0.4-0.2l-0.1,0c0,0-0.1,0-0.1,0c-0.1,0-0.1,0.1-0.2,0.2c0,0,0,0,0,0c0,0,0,0-0.1,0
	c0,0,0,0-0.1,0c0,0,0,0,0,0c0,0,0,0,0,0c0-0.2,0-0.4,0.1-0.6c0-0.2,0-0.5,0-0.7c0,0,0,0,0-0.1c0,0,0.1,0,0.1,0c0.1,0,0.1,0,0.1,0.1
	c0,0.3,0.2,0.6,0.4,0.8c0.1,0.1,0.2,0.2,0.4,0.2c0.1,0.1,0.3,0.1,0.4,0.1c0.2,0,0.4-0.1,0.6-0.2c0.1-0.1,0.1-0.1,0.2-0.2
	c0-0.1,0.1-0.2,0.1-0.3c0-0.1,0-0.3-0.1-0.4c-0.1-0.1-0.1-0.2-0.2-0.3c-0.1-0.1-0.2-0.2-0.3-0.2l-0.3-0.2l-0.4-0.2
	c-0.1-0.1-0.3-0.1-0.4-0.2c-0.1-0.1-0.2-0.3-0.3-0.4c-0.1-0.2-0.1-0.3-0.1-0.5c0-0.2,0-0.3,0.1-0.5c0.1-0.1,0.2-0.3,0.3-0.4
	c0.3-0.2,0.7-0.3,1.1-0.3c0.1,0,0.2,0,0.3,0c0.1,0,0.2,0,0.3,0.1c0.1,0,0.2,0.1,0.2,0.1c0,0,0,0,0.1,0c0,0,0,0,0,0c0,0,0,0,0,0
	c0,0,0,0,0.1,0h0.1c0,0,0,0,0,0c0,0.1-0.1,0.3-0.1,0.5c0,0.1,0,0.2,0,0.3c0,0.1,0,0.2,0,0.3c0,0,0,0,0,0c0,0,0,0-0.1,0
	c-0.1,0-0.1,0-0.1-0.1c0-0.2-0.1-0.4-0.2-0.6c-0.1-0.1-0.2-0.2-0.3-0.3c-0.2-0.1-0.3-0.1-0.5-0.1c-0.2,0-0.4,0.1-0.6,0.2
	c-0.1,0.1-0.2,0.1-0.2,0.2C103.5,66.2,103.5,66.3,103.5,66.4z"/>
<path class="st0" d="M110.4,69.9c-0.3,0-0.6,0-0.9-0.1c-0.3-0.1-0.5-0.2-0.7-0.4c-0.2-0.2-0.4-0.5-0.5-0.8c-0.1-0.3-0.1-0.6-0.1-0.9
	c0-0.4,0.1-0.8,0.3-1.1c0.2-0.3,0.4-0.6,0.8-0.8c0.3-0.2,0.7-0.3,1.1-0.3c0.4,0,0.8,0.1,1.1,0.3c0.3,0.2,0.6,0.4,0.8,0.8
	c0.2,0.4,0.3,0.7,0.3,1.1c0,0.4-0.1,0.8-0.3,1.2c-0.2,0.3-0.4,0.6-0.8,0.8C111.2,69.9,110.8,70,110.4,69.9z M110.4,69.7
	c0.3,0,0.5-0.1,0.7-0.3c0.2-0.2,0.4-0.4,0.5-0.7c0.1-0.3,0.2-0.7,0.2-1c0-0.4,0-0.7-0.2-1.1c-0.1-0.3-0.2-0.5-0.5-0.7
	c-0.2-0.2-0.4-0.2-0.7-0.3c-0.3,0-0.5,0.1-0.7,0.3c-0.2,0.2-0.4,0.4-0.5,0.7c-0.1,0.3-0.2,0.7-0.2,1c0,0.5,0.1,1,0.4,1.5
	c0.1,0.2,0.3,0.3,0.4,0.4C110,69.6,110.2,69.7,110.4,69.7L110.4,69.7z"/>
<path class="st0" d="M113.8,66.3c0-0.1,0-0.1,0-0.2c0-0.1-0.1-0.1-0.1-0.2c-0.1-0.1-0.3-0.1-0.5-0.2c0,0-0.1,0-0.1-0.1
	c0-0.1,0-0.1,0.1-0.1h0.2h0.3c0.3,0,0.5,0,0.5,0.1l2.6,3.1c0,0,0,0,0,0c0,0,0,0,0,0c0,0,0,0,0,0v-1.7c0-0.3,0-0.6-0.1-0.9
	c0-0.1,0-0.1-0.1-0.2c0,0-0.1-0.1-0.1-0.1c-0.1,0-0.2,0-0.3,0c0,0-0.1,0-0.1-0.1c0-0.1,0-0.1,0.1-0.1c0.1,0,0.2,0,0.3,0
	c0.1,0,0.2,0,0.4,0c0.1,0,0.2,0,0.3,0c0.1,0,0.2,0,0.4,0c0,0,0,0,0,0c0,0,0,0,0,0c0,0,0,0,0,0.1c0,0,0,0,0,0.1c0,0,0,0,0,0
	c0,0,0,0,0,0h-0.2c-0.1,0-0.1,0-0.2,0.1c-0.1,0.1-0.1,0.1-0.1,0.2c-0.1,0.4-0.1,0.7-0.1,1.1v2.8c0,0,0,0-0.1,0c0,0-0.1,0-0.1,0
	c-0.1,0-0.1,0-0.1,0l-2.8-3.3c0,0,0,0-0.1,0c0,0,0,0,0,0.1V69c0,0.1,0,0.2,0,0.4c0,0.1,0,0.1,0.1,0.2c0.1,0,0.1,0.1,0.2,0.1
	c0.1,0,0.2,0,0.3,0c0.1,0,0.1,0,0.1,0.1c0,0,0,0.1,0,0.1c0,0,0,0,0,0c0,0,0,0,0,0c-0.1,0-0.2,0-0.3,0c-0.1,0-0.3,0-0.4,0
	c-0.1,0-0.3,0-0.4,0c-0.1,0-0.2,0-0.3,0c0,0,0,0,0,0c0,0,0,0,0,0c0,0,0,0,0-0.1c0,0,0,0,0-0.1c0,0,0,0,0.1,0c0.1,0,0.2,0,0.3,0
	c0.1,0,0.1,0,0.2-0.1c0-0.1,0.1-0.1,0.1-0.2c0-0.1,0-0.2,0-0.4V66.3z"/>
<path class="st0" d="M119.1,66.5c0-0.2,0-0.3-0.1-0.5c0-0.1-0.1-0.2-0.2-0.2c-0.1-0.1-0.2-0.1-0.4-0.1c-0.1,0-0.1,0-0.1-0.1
	c0-0.1,0-0.1,0.1-0.1c0.1,0,0.3,0,0.5,0c0.2,0,0.3,0,0.5,0h0.3l0.7,0c0,0,0.1,0,0.1,0.1c0,0,0,0.1,0,0.1c0,0,0,0,0,0c0,0,0,0,0,0
	c-0.1,0-0.3,0-0.4,0.1c0,0-0.1,0-0.1,0.1c0,0-0.1,0.1-0.1,0.1c0,0.2-0.1,0.3-0.1,0.5v2.2c0,0.2,0,0.4,0.1,0.5c0,0.1,0.1,0.1,0.1,0.1
	c0,0,0.1,0.1,0.2,0.1c0.2,0.1,0.4,0.1,0.6,0.1c0.2,0,0.4,0,0.5-0.1c0.1-0.1,0.2-0.2,0.3-0.3c0.1-0.2,0.2-0.4,0.2-0.5
	c0,0,0.1-0.1,0.1-0.1c0,0,0.1,0,0.1,0c0,0,0,0,0,0c-0.1,0.5-0.1,0.8-0.1,1v0.1c0,0,0,0,0,0c0,0,0,0,0,0c0,0-0.1,0-0.1,0h-2.3
	c-0.2,0-0.3,0-0.5,0l-0.5,0c0,0,0,0,0,0c0,0,0,0,0,0c0,0,0,0,0-0.1s0-0.1,0-0.1c0,0,0,0,0,0c0,0,0,0,0,0c0.2,0,0.3,0,0.5-0.1
	c0.1,0,0.1-0.1,0.1-0.2c0-0.1,0-0.3,0-0.4L119.1,66.5z"/>
<path class="st0" d="M123.2,66.5c0-0.2,0-0.3-0.1-0.5c0-0.1-0.1-0.2-0.2-0.2c-0.1-0.1-0.2-0.1-0.4-0.1c0,0,0,0,0,0c0,0,0,0,0,0
	c0,0,0-0.1,0-0.1c0,0,0,0,0-0.1c0,0,0,0,0,0c0,0,0,0,0,0c0.1,0,0.3,0,0.5,0c0.2,0,0.3,0,0.5,0h0.3l0.7,0c0,0,0.1,0,0.1,0.1
	c0,0,0,0.1,0,0.1c0,0,0,0,0,0c0,0,0,0,0,0c-0.1,0-0.3,0-0.4,0.1c0,0-0.1,0-0.1,0.1c0,0-0.1,0.1-0.1,0.1c0,0.2-0.1,0.3-0.1,0.5v2.5
	c0,0.1,0,0.3,0,0.4c0,0,0,0.1,0.1,0.1c0,0,0.1,0.1,0.1,0.1c0.1,0,0.3,0.1,0.4,0.1c0,0,0,0,0,0c0,0,0,0,0,0c0,0,0,0,0,0.1
	s0,0.1,0,0.1c0,0,0,0,0,0c0,0,0,0,0,0c-0.2,0-0.3,0-0.5,0c-0.2,0-0.3,0-0.5,0c-0.2,0-0.3,0-0.5,0c-0.2,0-0.3,0-0.5,0
	c-0.1,0-0.1,0-0.1-0.1c0-0.1,0-0.1,0.1-0.1c0.1,0,0.3,0,0.4-0.1c0.1,0,0.1-0.1,0.2-0.2c0-0.1,0-0.3,0-0.4L123.2,66.5z"/>
<path class="st0" d="M125.8,66.3c0-0.1,0-0.1,0-0.2c0-0.1-0.1-0.1-0.1-0.2c-0.1-0.1-0.3-0.1-0.5-0.2c0,0-0.1,0-0.1-0.1
	c0-0.1,0-0.1,0.1-0.1h0.2h0.3c0.3,0,0.5,0,0.5,0.1l2.6,3.1c0,0,0,0,0,0c0,0,0,0,0,0c0,0,0,0,0,0c0,0,0,0,0,0c0,0,0,0,0,0v-1.7
	c0-0.3,0-0.6-0.1-0.9c0-0.1,0-0.1-0.1-0.2c0,0-0.1-0.1-0.1-0.1c-0.1,0-0.2,0-0.3,0c0,0-0.1,0-0.1-0.1c0-0.1,0-0.1,0.1-0.1
	c0.1,0,0.2,0,0.3,0c0.1,0,0.2,0,0.4,0c0.1,0,0.2,0,0.3,0c0.1,0,0.2,0,0.4,0c0,0,0,0,0,0s0,0,0,0c0,0,0,0,0,0.1c0,0,0,0,0,0.1
	c0,0,0,0,0,0s0,0,0,0h-0.2c-0.1,0-0.1,0-0.2,0.1c-0.1,0.1-0.1,0.1-0.1,0.2c-0.1,0.4-0.1,0.7-0.1,1.1v2.8c0,0,0,0-0.1,0
	c0,0-0.1,0-0.1,0c-0.1,0-0.1,0-0.1,0l-2.8-3.3c0,0,0,0-0.1,0c0,0,0,0,0,0.1V69c0,0.1,0,0.2,0,0.4c0,0.1,0,0.1,0.1,0.2
	c0.1,0,0.1,0.1,0.2,0.1c0.1,0,0.2,0,0.3,0c0,0,0,0,0.1,0c0,0,0,0,0,0.1c0,0,0,0.1,0,0.1c0,0,0,0,0,0c0,0,0,0,0,0c-0.1,0-0.2,0-0.3,0
	c-0.1,0-0.3,0-0.4,0c-0.1,0-0.3,0-0.4,0c-0.1,0-0.2,0-0.3,0c0,0,0,0,0,0c0,0,0,0,0,0c0,0,0,0,0-0.1c0-0.1,0-0.1,0.1-0.1
	c0.1,0,0.2,0,0.3,0c0.1,0,0.1,0,0.2-0.1c0-0.1,0.1-0.1,0.1-0.2c0-0.1,0-0.2,0-0.4L125.8,66.3z"/>
<path class="st0" d="M133.5,65.6c0,0,0.1,0,0.1,0c0,0,0,0,0,0.1v0.1c0,0.1,0,0.2,0,0.2v0.1v0.5c0,0,0,0,0,0c0,0,0,0,0,0
	c0,0,0,0-0.1,0c-0.1,0-0.1,0-0.1-0.1c0-0.2-0.1-0.3-0.1-0.5c0-0.1-0.1-0.1-0.2-0.2c-0.2-0.1-0.3-0.1-0.5-0.1h-0.4
	c-0.1,0-0.3,0-0.4,0c0,0,0,0-0.1,0c0,0,0,0,0,0.1c0,0.1,0,0.2,0,0.3v1.1c0,0.1,0,0.1,0.1,0.1c0.2,0,0.4,0,0.5,0
	c0.1,0,0.2-0.1,0.3-0.1c0.1-0.1,0.1-0.3,0.1-0.4c0,0,0.1-0.1,0.1-0.1c0.1,0,0.1,0,0.1,0.1c0,0.1,0,0.2,0,0.3c0,0.1,0,0.2,0,0.4
	c0,0.1,0,0.2,0,0.3c0,0.1,0,0.3,0,0.4c0,0,0,0.1-0.1,0.1c-0.1,0-0.1,0-0.1-0.1c0-0.1,0-0.3-0.1-0.4c-0.1-0.1-0.2-0.1-0.2-0.1
	c-0.2,0-0.4,0-0.5,0c-0.1,0-0.1,0-0.1,0.1v0.8c0,0.2,0,0.4,0.1,0.6c0,0,0,0.1,0.1,0.1c0,0,0.1,0.1,0.1,0.1c0.2,0,0.4,0.1,0.6,0.1
	c0.2,0,0.3,0,0.5-0.1c0.2,0,0.3-0.1,0.4-0.3c0.1-0.2,0.1-0.3,0.2-0.5c0,0,0-0.1,0.1-0.1c0,0,0.1,0,0.1,0c0,0,0,0,0,0l-0.1,0.5
	c0,0.1,0,0.3,0,0.4v0.1c0,0,0,0,0,0c0,0,0,0,0,0c0,0-0.1,0-0.1,0h-2.3c-0.2,0-0.5,0-0.9,0c0,0,0,0,0,0s0,0,0,0c0,0,0,0,0-0.1
	c0-0.1,0-0.1,0.1-0.1c0.2,0,0.3-0.1,0.5-0.2c0.1-0.1,0.1-0.3,0.1-0.4v-2.5c0-0.2,0-0.4-0.1-0.5c0-0.1-0.1-0.2-0.2-0.2
	c-0.1-0.1-0.3-0.1-0.4-0.1c0,0-0.1,0-0.1-0.1c0,0,0,0,0-0.1c0,0,0,0,0,0c0,0,0,0,0,0l0.8,0H133.5z"/>
<path class="st0" d="M98.9,37.1c-0.1-0.2-0.3-0.3-0.4-0.4c-0.2-0.1-0.4-0.2-0.6-0.2l-0.6,0.2c-2,1.4-4.3,2.3-6.8,2.7v0.2l-3.4,5.9
	c0.9-0.2,1.7-0.3,2.6-0.6c2.5-0.6,4.9-1.8,6.8-3.4c1.9-1.6,2.8-2.7,2.8-3.3C99.3,37.8,99.2,37.4,98.9,37.1z M86,39.9
	c-2.2,0-4.4-0.4-6.4-1.3c-2-0.9-3.8-2.2-5.2-3.9c-3.1-3.5-4.6-7.9-4.6-13.2c0-5.6,1.2-10,3.5-13.2C75.7,5,78.9,3.4,83,3.4
	c1.8,0,3.5,0.3,5.1,0.9C89.8,5,90.6,5.9,90.6,7c0,0.6-0.3,1.2-0.7,1.7c-0.5,0.6-0.8,1.4-0.7,2.2c0,0.6,0.1,1.2,0.3,1.7
	c0.2,0.5,0.6,1,1,1.4c1,0.7,2.2,1.1,3.4,1.1c1.7,0,2.9-0.5,3.7-1.6c0.8-0.9,1.2-2.1,1.2-3.2c0-3-1.4-5.4-4.3-7.3C91.6,1,88,0,83.8,0
	C78.9,0,74.7,0.9,71,2.8c-1.5,0.8-3,1.8-4.3,2.9C65,7.2,63.6,9,62.5,10.9c-1.3,2.3-2.2,4.7-2.6,7.3c0,0.2-0.1,0.4-0.1,0.6
	c-0.1,0.4-0.1,0.9-0.2,1.3c-0.1,0.7-0.1,1.5-0.1,2.2c0,0.1,0,0.2,0,0.4c-0.1,4.2,0.9,8.4,2.9,12.1l0.1,0.2c0.7,1.3,1.6,2.6,2.6,3.7
	c1.5,1.7,3.3,3.2,5.3,4.3c3.3,1.9,7.1,2.9,11,2.9c0.8,0,1.6,0,2.5-0.1l3.5-6.1C87,39.9,86.5,39.9,86,39.9z"/>
<path class="st0" d="M69.2,15.4c0-5.5-1.5-9.5-4.5-11.8C61.7,1.2,57.6,0,52.4,0c-4.7,0-8.8,1.1-12.1,3.4c-3.3,2.3-5,5-5,8.2
	c0,1.2,0.4,2.4,1.1,3.4c0.7,0.9,2,1.4,3.8,1.4c1.2,0,2.4-0.4,3.3-1.3c0.9-0.8,1.4-1.7,1.4-2.6c0-0.7-0.3-1.5-0.7-2.1
	c-0.4-0.6-0.6-1.3-0.7-2.1c0-1.5,0.7-2.7,2.1-3.6c1.5-1,3.2-1.5,5-1.4c3.1,0,5.5,0.9,7,2.7C59.2,8,60,11,60,15.1c0,1.2,0,2.2,0,2.8
	s0,1.2,0,1.5c0,0.2,0,0.4-0.1,0.6c0,0-0.1,0.1-0.1,0.1c0,0-0.1,0-0.1,0h9.6L69.2,15.4z"/>
<path class="st0" d="M59.1,38.5c-2.1,1.2-4.5,1.8-7,1.8c-2.2,0-3.8-0.6-5-1.9c-1.2-1.2-1.7-3-1.7-5.4c0-3,1.4-5.4,4.1-7.4
	c2.7-1.9,6.9-3.1,12.5-3.6c0.1,0,0.1,0,0.2,0v-3.3c-8.8,0-15.5,1.3-20,4c-4.6,2.6-6.8,6.5-6.8,11.5c0,3.8,1.1,6.7,3.2,8.8
	c2.2,2,5.2,3.1,9.2,3.1c3.3,0,6-0.4,8.3-1.3c2.1-0.8,7.4-4,9.3-6l-2.6-3.7C62.1,35.8,60.6,37.7,59.1,38.5z"/>
</svg>
