<svg width="134" height="70" viewBox="0 0 134 70" fill="none" xmlns="http://www.w3.org/2000/svg">
<path d="M4.48068 57.6769C4.34684 57.6654 4.21275 57.6958 4.09728 57.7636C4.00052 57.8416 3.92707 57.9441 3.88479 58.0602L3.01637 60.3104C2.95933 60.4568 2.92356 60.6104 2.91013 60.7668C2.91013 61.3053 3.41363 61.6066 4.42063 61.6796C4.59154 61.6796 4.67931 61.7846 4.67931 61.9945C4.67931 62.2045 4.59154 62.3231 4.42063 62.3231C4.24972 62.3231 3.87556 62.3003 3.36282 62.2501C2.85008 62.1999 2.46668 62.1725 2.22186 62.1725C1.89692 62.1724 1.57251 62.1984 1.25182 62.2501C0.918695 62.3013 0.58193 62.3257 0.24482 62.3231C0.207024 62.3226 0.170141 62.3116 0.138317 62.2914C0.106493 62.2713 0.0809881 62.2427 0.0646695 62.209C0.0224163 62.1352 0.000142267 62.0519 -1.20373e-07 61.9671C-0.00518275 61.9334 -0.00336617 61.8991 0.00533889 61.8661C0.0140439 61.8331 0.0294551 61.8022 0.0506331 61.7753C0.071811 61.7484 0.0983121 61.726 0.128521 61.7096C0.15873 61.6931 0.192014 61.6829 0.226343 61.6796L0.521976 61.6431C0.913341 61.5712 1.27655 61.3925 1.57055 61.1273C1.87799 60.7611 2.11728 60.3438 2.27729 59.895L6.65173 49.0187C6.6933 48.9092 6.79493 48.859 6.96584 48.859C7.04405 48.8547 7.1223 48.8667 7.19551 48.8942C7.26872 48.9217 7.33526 48.9642 7.39081 49.0187C9.23851 53.6985 10.7151 57.3711 11.8207 60.0365C11.9413 60.3374 12.0963 60.6238 12.2826 60.89C12.4084 61.0676 12.5648 61.2221 12.7445 61.3464C12.8829 61.447 13.0398 61.5199 13.2065 61.5609L13.7053 61.675C13.8531 61.675 13.9271 61.812 13.9271 62.0128C13.9271 62.2136 13.8578 62.3186 13.7284 62.3186C13.33 62.3198 12.9319 62.2954 12.5367 62.2456C12.1108 62.1916 11.6818 62.1657 11.2525 62.168C10.7403 62.1668 10.2283 62.1927 9.71891 62.2456C9.25867 62.2947 8.79606 62.319 8.33314 62.3186C8.29344 62.3201 8.25399 62.3117 8.21845 62.2942C8.18292 62.2766 8.15245 62.2505 8.12989 62.2182C8.08349 62.1442 8.05945 62.0587 8.0606 61.9717C8.05611 61.9355 8.05924 61.8987 8.06981 61.8638C8.08038 61.8288 8.09815 61.7964 8.122 61.7685C8.14586 61.7406 8.17529 61.718 8.20845 61.7019C8.2416 61.6858 8.27776 61.6767 8.31466 61.675C8.65935 61.6485 8.99685 61.5636 9.31242 61.424C9.41063 61.3556 9.48826 61.2622 9.53706 61.1537C9.58586 61.0452 9.60401 60.9257 9.58957 60.8079C9.56661 60.4637 9.49027 60.125 9.36323 59.8037C9.21542 59.3473 8.99369 58.7905 8.70268 58.0785C8.68704 58.0099 8.65556 57.9457 8.61069 57.8911C8.56581 57.8365 8.50877 57.7928 8.444 57.7636C8.27109 57.7087 8.08951 57.6855 7.90817 57.6951L4.48068 57.6769ZM7.81578 56.9329C8.09294 56.9329 8.23151 56.8599 8.23151 56.7184L8.18532 56.5313L6.49467 52.0584C6.48453 52.0268 6.46408 51.9993 6.43651 51.9803C6.40895 51.9613 6.3758 51.9519 6.34224 51.9534C6.30851 51.9511 6.27498 51.9602 6.24724 51.9793C6.2195 51.9984 6.19923 52.0263 6.1898 52.0584L4.42063 56.5313C4.38815 56.5985 4.36932 56.6714 4.3652 56.7458C4.3652 56.869 4.47606 56.9329 4.69778 56.9329H7.81578Z" fill="black"/>
<path d="M16.5785 51.424C16.5915 51.2259 16.5592 51.0275 16.484 50.8434C16.4089 50.6593 16.2928 50.4943 16.1443 50.3606C15.7546 50.075 15.2851 49.9156 14.8001 49.9042C14.6661 49.9042 14.6015 49.7992 14.6015 49.5892C14.6015 49.3793 14.6754 49.2789 14.8186 49.2789H15.5484L16.5785 49.3063C17.4685 49.358 17.9535 49.4356 18.0336 49.539L25.8309 58.6992C25.8413 58.7135 25.8553 58.7247 25.8715 58.732C25.8877 58.7392 25.9056 58.742 25.9233 58.7403C26.0157 58.7403 26.0665 58.6947 26.0665 58.6079V53.4687C26.1117 52.5703 26.0512 51.6697 25.8863 50.785C25.8354 50.6108 25.7592 50.4447 25.66 50.2921C25.5781 50.1794 25.4638 50.0935 25.332 50.0456C25.0415 49.9646 24.7422 49.9186 24.4405 49.9087C24.3065 49.9087 24.2419 49.7992 24.2419 49.5801C24.2419 49.361 24.3065 49.2834 24.4405 49.2834C24.7723 49.2847 25.1038 49.303 25.4336 49.3382C25.7911 49.3766 26.1503 49.3964 26.5099 49.3975C26.8418 49.3961 27.1734 49.3763 27.5031 49.3382C27.8807 49.3017 28.26 49.2865 28.6394 49.2926C28.6746 49.2917 28.7095 49.3001 28.7403 49.317C28.7711 49.3338 28.7969 49.3585 28.8149 49.3884C28.8557 49.4559 28.8765 49.5334 28.875 49.612C28.8766 49.6878 28.8557 49.7624 28.8149 49.8266C28.796 49.8553 28.7699 49.8788 28.7392 49.8948C28.7085 49.9108 28.6741 49.9187 28.6394 49.9178L28.0897 49.9726C27.9194 49.9843 27.7574 50.0499 27.6278 50.1597C27.4609 50.3473 27.3281 50.5619 27.2351 50.7942C27.0596 51.2323 26.9718 52.2973 26.9718 53.989V62.2729C26.9718 62.314 26.9164 62.3551 26.8102 62.3825C26.7039 62.415 26.5934 62.432 26.4822 62.4327C26.302 62.4327 26.1958 62.3962 26.1589 62.3277L17.8442 52.5787C17.8208 52.5575 17.7929 52.5415 17.7626 52.5321C17.7323 52.5226 17.7002 52.5198 17.6687 52.524C17.5809 52.524 17.5347 52.5742 17.5347 52.6746V59.6394C17.5246 59.9954 17.5603 60.3512 17.6409 60.6983C17.6944 60.916 17.8098 61.1139 17.9735 61.2688C18.1314 61.4021 18.323 61.4904 18.5278 61.5244C18.7434 61.5701 19.0021 61.6111 19.3039 61.6477C19.4471 61.6477 19.521 61.7754 19.521 61.9626C19.5221 62.0389 19.4995 62.1138 19.4563 62.1771C19.4387 62.2073 19.413 62.2323 19.3821 62.2492C19.3511 62.2661 19.3161 62.2743 19.2808 62.2729C18.9718 62.2696 18.6633 62.2483 18.3569 62.209C17.9539 62.1599 17.5481 62.137 17.1421 62.1406C16.7084 62.1375 16.2749 62.1603 15.8441 62.209C15.5251 62.2471 15.2044 62.2684 14.8832 62.2729C14.8488 62.2732 14.815 62.2639 14.7856 62.2462C14.7562 62.2284 14.7324 62.2029 14.717 62.1725C14.6755 62.1069 14.6546 62.0307 14.6569 61.9535C14.6569 61.7754 14.7308 61.6705 14.8832 61.6477C15.2158 61.6111 15.4976 61.5701 15.724 61.5244C15.9269 61.4933 16.1163 61.4045 16.269 61.2688C16.395 61.1043 16.4718 60.9083 16.4907 60.7029C16.5567 60.3538 16.5861 59.999 16.5785 59.644V51.424Z" fill="black"/>
<path d="M42.0722 60.6207C42.0778 60.6598 42.071 60.6996 42.0528 60.7347C42.0346 60.7699 42.0059 60.7986 41.9706 60.817C41.638 61.0543 41.3146 61.2734 41.0052 61.4696C40.6768 61.6788 40.3229 61.846 39.952 61.9671C39.502 62.1163 39.0376 62.2188 38.5662 62.2729C37.9393 62.3465 37.3082 62.3801 36.6769 62.3733C34.5752 62.3733 32.9492 61.7983 31.8128 60.639C30.6765 59.4797 30.0991 57.8366 30.0991 55.7097C30.0703 54.4672 30.3561 53.2372 30.9306 52.1315C31.4666 51.127 32.2975 50.306 33.3141 49.7764C34.4255 49.2103 35.6625 48.9279 36.9125 48.9548C38.0771 48.9535 39.2229 49.244 40.243 49.7992C40.4568 49.9319 40.6986 50.0147 40.9497 50.0411C41.1114 50.0411 41.2407 49.9224 41.3285 49.6851C41.3285 49.571 41.444 49.5162 41.6195 49.5162C41.6896 49.5133 41.7594 49.5274 41.8228 49.5573C41.8468 49.567 41.8674 49.5834 41.8821 49.6044C41.8969 49.6255 41.9052 49.6503 41.9059 49.676V49.7033C41.8118 50.1074 41.7668 50.5211 41.7719 50.9357C41.7719 51.4149 41.8228 52.1543 41.9244 53.1584C41.9224 53.1984 41.9103 53.2372 41.8894 53.2715C41.8684 53.3057 41.8392 53.3343 41.8043 53.3546C41.7283 53.407 41.6382 53.4356 41.5456 53.4368C41.3701 53.4368 41.2731 53.3729 41.2546 53.2405C41.1312 52.2329 40.6099 51.3142 39.8041 50.6846C38.9386 50.0663 37.8873 49.7543 36.8201 49.7992C36.0071 49.7807 35.2115 50.0331 34.5613 50.5158C33.8915 51.0384 33.3827 51.7355 33.0924 52.5285C32.7392 53.4449 32.5637 54.4188 32.575 55.3994C32.575 57.3285 32.9584 58.8392 33.7252 59.9315C34.0634 60.4493 34.531 60.8721 35.0828 61.1591C35.6347 61.4461 36.2522 61.5877 36.8755 61.5701C38.1073 61.5701 38.9711 61.3784 39.4669 60.995C39.729 60.7707 39.9337 60.4884 40.0645 60.1712C40.1954 59.854 40.2486 59.5107 40.2199 59.1693C40.2352 58.822 40.1978 58.4743 40.109 58.1378C40.0751 58.0342 40.0203 57.9384 39.9481 57.856C39.8759 57.7737 39.7877 57.7066 39.6887 57.6586C39.2417 57.5089 38.7746 57.4259 38.3029 57.4121C38.1412 57.4121 38.0581 57.3117 38.0581 57.1109C38.0573 57.0459 38.0767 56.9822 38.1135 56.9283C38.1289 56.9019 38.1512 56.88 38.1779 56.8648C38.2047 56.8495 38.2351 56.8416 38.2659 56.8416C38.7279 56.8416 39.1898 56.8416 39.6517 56.8873C40.1136 56.9329 40.5756 56.9375 40.9359 56.9375L41.9567 56.8873L43.2039 56.8416C43.3286 56.8416 43.3933 56.9329 43.3933 57.1109C43.3992 57.1461 43.3976 57.1822 43.3888 57.2168C43.3799 57.2515 43.3639 57.2839 43.3418 57.3122C43.3197 57.3404 43.292 57.3639 43.2603 57.3811C43.2286 57.3983 43.1937 57.4089 43.1577 57.4121C42.9174 57.4203 42.6808 57.4729 42.4602 57.5673C42.3113 57.633 42.1915 57.7497 42.123 57.8959C42.0351 58.2122 42.0008 58.5407 42.0214 58.8681L42.0722 60.6207Z" fill="black"/>
<path d="M51.1075 62.3733C49.0811 62.3733 47.4937 61.8074 46.345 60.6755C45.1964 59.5436 44.6236 57.8472 44.6266 55.5865C44.6106 54.3963 44.8965 53.221 45.4581 52.168C45.9827 51.1762 46.7843 50.3541 47.7677 49.7992C48.8047 49.2522 49.962 48.9661 51.1375 48.9661C52.3129 48.9661 53.4703 49.2522 54.5072 49.7992C55.4788 50.3388 56.269 51.1481 56.7799 52.1269C57.3298 53.1865 57.6059 54.364 57.5837 55.5545C57.6112 56.8042 57.3306 58.0416 56.766 59.1602C56.2529 60.167 55.4491 61.0008 54.4564 61.5564C53.4321 62.1145 52.277 62.3963 51.1075 62.3733ZM51.186 61.5701C51.9507 61.575 52.6887 61.2928 53.2508 60.7805C53.889 60.1928 54.3658 59.4547 54.6366 58.6353C54.9581 57.6854 55.1143 56.6884 55.0985 55.6869C55.1181 54.6164 54.9621 53.5498 54.6366 52.5285C54.3915 51.7299 53.9203 51.0172 53.2785 50.4747C52.6562 49.9896 51.8813 49.736 51.089 49.7581C50.31 49.7443 49.5527 50.0121 48.9595 50.5112C48.3152 51.0791 47.8367 51.8072 47.5737 52.6198C47.2459 53.6029 47.0897 54.6338 47.1118 55.6686C47.1118 57.6267 47.4629 59.0963 48.165 60.0867C48.4995 60.5672 48.9524 60.9555 49.481 61.2151C50.0096 61.4746 50.5964 61.5968 51.186 61.5701Z" fill="black"/>
<path d="M66.0554 48.9548C67.1222 48.9751 68.17 49.2375 69.1179 49.7216L69.5106 49.8996C69.6082 49.9486 69.7153 49.9766 69.8247 49.9817C69.9257 49.9823 70.0232 49.9456 70.0984 49.879C70.1735 49.8123 70.2208 49.7204 70.2312 49.6212C70.2589 49.5253 70.3605 49.4797 70.536 49.4797C70.7116 49.4797 70.8178 49.5253 70.8178 49.6212V49.6486C70.7208 50.0738 70.6758 50.509 70.6839 50.9448C70.6847 51.3022 70.711 51.659 70.7624 52.0128C70.8117 52.3749 70.8625 52.7446 70.9148 53.1219C70.9117 53.1522 70.9001 53.181 70.8814 53.2052C70.8626 53.2294 70.8374 53.2479 70.8086 53.2588C70.7317 53.293 70.6481 53.3101 70.5638 53.309C70.3605 53.309 70.2496 53.2542 70.2312 53.1401C69.6153 50.9128 68.1848 49.7992 65.9399 49.7992C65.329 49.7754 64.7214 49.8993 64.17 50.1602C63.6186 50.4211 63.1399 50.811 62.7757 51.2962C62.0089 52.2958 61.6209 53.7106 61.6209 55.55C61.6011 56.6137 61.7796 57.672 62.1475 58.6718C62.4441 59.5043 62.9647 60.2412 63.6534 60.8033C64.3283 61.3214 65.164 61.5924 66.0184 61.5701C66.7785 61.6035 67.5379 61.4904 68.2541 61.2369C68.8326 60.9691 69.3157 60.5347 69.6399 59.9909C70.0645 59.3035 70.3368 58.5351 70.439 57.7362C70.4413 57.7071 70.4495 57.6788 70.4632 57.653C70.4769 57.6272 70.4958 57.6044 70.5187 57.586C70.5416 57.5677 70.5681 57.5541 70.5965 57.5462C70.6249 57.5383 70.6546 57.5361 70.6839 57.5399C70.7809 57.5403 70.8757 57.5689 70.9564 57.6221C71.0395 57.6769 71.0811 57.7271 71.0811 57.7727V57.8092C71.0154 58.3101 70.9845 58.8149 70.9887 59.32C70.9887 59.6623 71.0349 60.5842 71.1319 62.0584C71.1347 62.0942 71.127 62.1299 71.1098 62.1615C71.0927 62.193 71.0666 62.2191 71.0349 62.2364C70.9718 62.2726 70.9 62.2915 70.8271 62.2912C70.6654 62.2912 70.5684 62.2319 70.5453 62.1132C70.5083 61.9187 70.4115 61.7402 70.2681 61.602C70.2083 61.5405 70.1366 61.4914 70.0573 61.4577C69.9779 61.424 69.8926 61.4063 69.8062 61.4058C69.6441 61.4115 69.4858 61.4553 69.3443 61.5336C68.8416 61.8203 68.3026 62.0397 67.7414 62.1862C67.134 62.3116 66.5141 62.3682 65.8937 62.3551C63.6056 62.3551 61.9119 61.7922 60.8125 60.6664C59.7131 59.5406 59.1511 57.9309 59.1265 55.8375C59.1015 54.5693 59.3951 53.3148 59.9811 52.1862C60.5182 51.164 61.3598 50.3292 62.3923 49.7946C63.5245 49.2204 64.7829 48.9319 66.0554 48.9548Z" fill="black"/>
<path d="M84.7079 57.1383C84.7079 58.9411 84.2829 60.2784 83.4376 61.141C82.5923 62.0037 81.2897 62.4418 79.539 62.4418C77.6913 62.4418 76.3501 62.0569 75.5156 61.2871C74.6888 60.5203 74.273 59.2743 74.273 57.5582V52.2045C74.2928 51.7425 74.2383 51.2803 74.1113 50.8352C74.0159 50.5581 73.8201 50.3257 73.5617 50.1826C73.2106 50.0176 72.8279 49.9289 72.4392 49.9224C72.4034 49.9233 72.3681 49.9144 72.3371 49.8967C72.3061 49.879 72.2807 49.8531 72.2636 49.822C72.2237 49.7525 72.203 49.6738 72.2036 49.5938C72.2027 49.521 72.2236 49.4495 72.2636 49.3884C72.2826 49.3597 72.3086 49.3362 72.3394 49.3202C72.3701 49.3042 72.4045 49.2963 72.4392 49.2971C72.8503 49.2971 73.3168 49.2971 73.848 49.361C74.3793 49.4249 74.8735 49.4295 75.3401 49.4295C75.8066 49.4295 76.2639 49.4295 76.8044 49.361C77.3448 49.2926 77.8021 49.2971 78.241 49.2971C78.3795 49.2971 78.4488 49.3839 78.4488 49.5573C78.4477 49.6449 78.4256 49.7309 78.3842 49.8083C78.3706 49.8403 78.3482 49.8679 78.3197 49.888C78.2911 49.9081 78.2575 49.9201 78.2225 49.9224C77.8303 49.9286 77.443 50.0092 77.0815 50.1598C76.8302 50.2807 76.6364 50.4935 76.5411 50.7531C76.4142 51.2308 76.3627 51.725 76.3886 52.2182V57.4395C76.3324 58.4936 76.673 59.5308 77.3448 60.3514C77.6586 60.7093 78.0499 60.9928 78.4897 61.1809C78.9296 61.3689 79.4066 61.4567 79.8854 61.4377C80.4092 61.4736 80.9348 61.4012 81.4287 61.2252C81.9226 61.0491 82.374 60.7733 82.754 60.4153C83.4161 59.7307 83.7456 58.649 83.7425 57.1703V53.1812C83.7425 52.6335 83.724 52.1132 83.6871 51.6203C83.666 51.2141 83.5754 50.8144 83.4191 50.4382C83.3594 50.3003 83.2593 50.1832 83.1317 50.1019C83.0042 50.0206 82.8549 49.9787 82.7032 49.9818L82.1165 49.9361C82.0846 49.9357 82.0535 49.9259 82.0272 49.908C82.0009 49.8902 81.9806 49.865 81.9687 49.8357C81.9351 49.7642 81.9177 49.6863 81.9179 49.6075C81.9179 49.4112 81.9826 49.3108 82.1165 49.3108C82.447 49.313 82.7771 49.3343 83.105 49.3747C83.4573 49.4205 83.8122 49.4434 84.1675 49.4432C84.5043 49.443 84.8408 49.4201 85.1745 49.3747C85.5454 49.331 85.9187 49.3096 86.2923 49.3108C86.3271 49.3095 86.3616 49.3173 86.3924 49.3333C86.4233 49.3493 86.4493 49.373 86.4679 49.4021C86.5093 49.4628 86.5318 49.5343 86.5325 49.6075C86.5317 49.6879 86.5094 49.7666 86.4679 49.8357C86.4512 49.8672 86.4259 49.8933 86.3948 49.9111C86.3638 49.9289 86.3282 49.9375 86.2923 49.9361L85.7473 49.9818C85.5924 49.983 85.4426 50.0361 85.3223 50.1324C85.1787 50.277 85.067 50.4495 84.9943 50.639C84.8701 50.9296 84.7921 51.2376 84.7633 51.5518C84.7154 51.9898 84.6938 52.4303 84.6987 52.8708V53.9799L84.7079 57.1383Z" fill="black"/>
<path d="M89.6505 52.5513C89.6705 52.0088 89.6114 51.4662 89.475 50.9402C89.3954 50.6366 89.2128 50.3691 88.9576 50.1826C88.5813 49.9973 88.1678 49.8975 87.7474 49.8905C87.5903 49.8905 87.5118 49.7901 87.5118 49.5938C87.511 49.5181 87.5318 49.4438 87.5719 49.3793C87.5917 49.3473 87.6208 49.3219 87.6554 49.3064C87.69 49.291 87.7285 49.2861 87.7659 49.2926C88.1955 49.2926 88.5881 49.2926 88.9392 49.3291C89.2902 49.3656 89.7013 49.3656 90.1679 49.3656L93.5538 49.2926C94.6462 49.2402 95.7233 49.5627 96.6025 50.2054C96.9761 50.5019 97.2736 50.8812 97.471 51.3126C97.6685 51.744 97.7602 52.2153 97.7388 52.6883C97.7388 54.4013 96.7688 55.4663 94.8287 55.8832C94.7409 55.9105 94.6947 55.9516 94.6947 56.0064C94.6947 56.0612 94.7409 56.1251 94.8287 56.1753C95.5081 56.4912 96.103 56.9601 96.5655 57.5445C97.0281 58.2303 97.3281 59.0103 97.4432 59.8266C97.5052 60.1962 97.5948 60.5608 97.7111 60.9174C97.7717 61.0724 97.8739 61.2081 98.0067 61.3099C98.1249 61.4089 98.277 61.4594 98.4317 61.4509C98.5864 61.4424 98.7319 61.3756 98.8382 61.2643C98.9992 61.1043 99.1126 60.9039 99.1662 60.6846C99.1732 60.6196 99.2056 60.5599 99.2565 60.5181C99.3074 60.4764 99.3728 60.4559 99.4387 60.461C99.5312 60.4591 99.6213 60.4898 99.6928 60.5477C99.7252 60.567 99.7526 60.5936 99.7727 60.6253C99.7927 60.657 99.8049 60.693 99.8083 60.7303V60.7029C99.7622 61.2179 99.5114 61.6939 99.1107 62.0265C98.6816 62.365 98.1445 62.5414 97.5956 62.524C97.2255 62.5336 96.8588 62.452 96.5286 62.2866C96.2513 62.1518 96.0236 61.9348 95.8773 61.6659C95.5833 60.8777 95.3486 60.0692 95.1751 59.2469L95.0088 58.5851C94.8527 57.9329 94.5353 57.3292 94.085 56.8279C93.879 56.6425 93.6377 56.4994 93.3753 56.4069C93.1128 56.3145 92.8343 56.2745 92.556 56.2894C92.0248 56.2894 91.7615 56.513 91.7615 56.9603V59.5345C91.7442 59.9374 91.8102 60.3397 91.9555 60.7166C92.0749 60.997 92.2909 61.2266 92.5653 61.3647C92.9832 61.5419 93.4317 61.638 93.8864 61.6477C93.9236 61.6456 93.9607 61.6539 93.9934 61.6716C94.026 61.6894 94.053 61.7159 94.0711 61.7481C94.1103 61.8163 94.131 61.8933 94.1312 61.9717C94.1333 62.051 94.1107 62.1291 94.0665 62.1954C94.0448 62.2271 94.015 62.2527 93.9802 62.2695C93.9453 62.2863 93.9066 62.2938 93.8679 62.2912C93.406 62.2912 92.8424 62.2684 92.168 62.2182C91.4936 62.168 91.0132 62.1406 90.7314 62.1406C90.2469 62.1409 89.7627 62.1668 89.281 62.2182C88.8207 62.2666 88.3581 62.291 87.8952 62.2912C87.86 62.292 87.8251 62.2836 87.7943 62.2668C87.7635 62.2499 87.7377 62.2253 87.7197 62.1954C87.6776 62.125 87.6568 62.0442 87.6596 61.9626C87.6596 61.777 87.7381 61.672 87.8952 61.6477C88.2969 61.6269 88.692 61.539 89.0639 61.3875C89.2816 61.2704 89.4466 61.0764 89.5258 60.8444C89.6309 60.4765 89.6761 60.0944 89.6598 59.7125L89.6505 52.5513ZM91.7569 54.8334C91.7569 55.1666 91.8493 55.3583 92.0294 55.4131C92.3074 55.48 92.5934 55.5092 92.8794 55.4998C93.8771 55.4998 94.5654 55.299 94.9488 54.8973C95.3322 54.4957 95.5262 53.77 95.5262 52.7248C95.5262 51.7572 95.3414 51.0817 94.9627 50.6846C94.5839 50.2875 93.9326 50.0913 92.9949 50.0913C92.6504 50.0554 92.3029 50.1222 91.9971 50.283C91.9025 50.3883 91.832 50.5125 91.7906 50.6472C91.7491 50.782 91.7376 50.9239 91.7569 51.0634V54.8334Z" fill="black"/>
<path d="M102.709 51.8622C102.699 52.3026 102.846 52.7325 103.125 53.0762C103.476 53.4615 103.912 53.7614 104.4 53.9525C105.38 54.3605 106.332 54.8317 107.25 55.3628C107.707 55.643 108.119 55.9908 108.469 56.3943C108.757 56.7285 108.982 57.1101 109.135 57.5217C109.281 57.9539 109.351 58.4078 109.342 58.8635C109.362 59.5589 109.151 60.2416 108.742 60.8078C108.317 61.3628 107.742 61.7883 107.084 62.0356C106.32 62.3294 105.506 62.4735 104.686 62.4601C104.273 62.454 103.862 62.3988 103.462 62.2958C103.029 62.1933 102.614 62.0288 102.229 61.8074C102.159 61.78 102.095 61.7572 102.039 61.7298C101.97 61.7039 101.896 61.6915 101.822 61.6933C101.577 61.6933 101.388 61.8667 101.254 62.209C101.227 62.2664 101.183 62.3144 101.127 62.3469C101.072 62.3794 101.009 62.395 100.945 62.3916C100.874 62.3943 100.804 62.3734 100.746 62.3323C100.72 62.3178 100.698 62.2966 100.682 62.2709C100.667 62.2453 100.658 62.216 100.658 62.1862C100.751 61.5588 100.802 60.9261 100.811 60.2921C100.813 59.6144 100.768 58.9373 100.677 58.2656V58.2291C100.678 58.1959 100.687 58.1634 100.703 58.1341C100.719 58.1049 100.742 58.0796 100.769 58.0602C100.834 58.0084 100.917 57.9824 101 57.9872C101.18 57.9872 101.286 58.0557 101.31 58.1926C101.422 59.151 101.856 60.0445 102.543 60.7303C102.848 61.0255 103.209 61.2582 103.605 61.4149C104.002 61.5716 104.426 61.6491 104.852 61.6431C105.53 61.6669 106.195 61.4572 106.733 61.0497C106.977 60.8621 107.172 60.6198 107.303 60.3429C107.434 60.066 107.497 59.7623 107.485 59.4569C107.497 59.0358 107.393 58.6195 107.185 58.2519C106.989 57.9168 106.736 57.6173 106.437 57.3665C106.135 57.1117 105.803 56.8941 105.448 56.7184C105.088 56.5313 104.746 56.3624 104.423 56.2072C103.998 56.0155 103.568 55.8193 103.143 55.6139C102.734 55.4213 102.351 55.1757 102.007 54.8836C101.671 54.5947 101.395 54.2444 101.194 53.8521C100.97 53.38 100.863 52.8624 100.88 52.3414C100.859 51.8743 100.957 51.4096 101.163 50.9889C101.37 50.5683 101.679 50.2049 102.062 49.9315C103.021 49.3145 104.153 49.0141 105.296 49.0735C105.605 49.0699 105.914 49.0912 106.22 49.1374C106.507 49.192 106.789 49.2668 107.065 49.361C107.301 49.4464 107.546 49.5031 107.795 49.5299C107.863 49.5357 107.931 49.5209 107.991 49.4875C108.05 49.454 108.098 49.4036 108.128 49.3428C108.169 49.256 108.266 49.215 108.419 49.215C108.485 49.2132 108.551 49.2256 108.613 49.2515C108.677 49.2515 108.71 49.3108 108.71 49.3519V49.3838C108.591 49.8429 108.538 50.3161 108.553 50.7896C108.549 51.0949 108.569 51.4001 108.613 51.7024C108.654 51.9717 108.686 52.2866 108.71 52.6563C108.71 52.6974 108.677 52.7385 108.608 52.7704C108.544 52.8042 108.473 52.8215 108.4 52.8206C108.243 52.8206 108.151 52.7659 108.128 52.6563C108.012 52.0555 107.813 51.4734 107.536 50.9265C107.337 50.5702 107.026 50.2881 106.649 50.1232C106.152 49.9414 105.623 49.8592 105.093 49.8813C104.465 49.8525 103.848 50.045 103.351 50.4245C103.139 50.5989 102.971 50.8194 102.859 51.0689C102.748 51.3183 102.697 51.5898 102.709 51.8622Z" fill="black"/>
<path d="M117.394 62.3733C115.367 62.3733 113.78 61.8074 112.631 60.6755C111.483 59.5436 110.91 57.8472 110.913 55.5865C110.897 54.3963 111.183 53.221 111.744 52.168C112.269 51.1762 113.071 50.3541 114.054 49.7992C115.091 49.2522 116.248 48.9661 117.424 48.9661C118.599 48.9661 119.757 49.2522 120.794 49.7992C121.765 50.3388 122.555 51.1481 123.066 52.1269C123.616 53.1865 123.892 54.364 123.87 55.5545C123.898 56.8042 123.617 58.0416 123.052 59.1602C122.539 60.167 121.735 61.0008 120.743 61.5564C119.718 62.1145 118.563 62.3963 117.394 62.3733ZM117.472 61.5701C118.237 61.5759 118.976 61.2935 119.537 60.7805C120.175 60.1928 120.652 59.4547 120.923 58.6353C121.244 57.6854 121.401 56.6884 121.385 55.6869C121.407 54.6162 121.251 53.5493 120.923 52.5285C120.678 51.7299 120.207 51.0172 119.565 50.4747C118.943 49.9896 118.168 49.736 117.375 49.7581C116.596 49.7443 115.839 50.0121 115.246 50.5112C114.603 51.0804 114.125 51.8081 113.86 52.6198C113.524 53.6015 113.36 54.6325 113.375 55.6686C113.375 57.6267 113.726 59.0963 114.428 60.0867C114.765 60.5706 115.221 60.961 115.754 61.2208C116.287 61.4805 116.879 61.6007 117.472 61.5701Z" fill="black"/>
<path d="M127.367 51.8622C127.356 52.3026 127.504 52.7325 127.783 53.0762C128.133 53.4615 128.57 53.7614 129.057 53.9525C130.038 54.3606 130.99 54.8317 131.907 55.3628C132.365 55.643 132.776 55.9908 133.127 56.3943C133.414 56.7285 133.639 57.1101 133.792 57.5217C133.939 57.9539 134.009 58.4078 134 58.8635C134.019 59.559 133.809 60.2416 133.4 60.8078C132.974 61.3628 132.4 61.7883 131.741 62.0356C130.977 62.3289 130.163 62.4731 129.344 62.4601C128.931 62.4542 128.52 62.3991 128.12 62.2958C127.687 62.1933 127.271 62.0288 126.886 61.8074C126.817 61.78 126.752 61.7572 126.697 61.7298C126.628 61.7043 126.554 61.6919 126.48 61.6933C126.23 61.6933 126.046 61.8667 125.912 62.209C125.884 62.2671 125.839 62.3156 125.783 62.3482C125.727 62.3808 125.662 62.3959 125.598 62.3916C125.527 62.3929 125.457 62.3722 125.399 62.3323C125.374 62.3168 125.353 62.2954 125.338 62.2698C125.324 62.2443 125.316 62.2155 125.316 62.1862C125.408 61.5588 125.459 60.9261 125.468 60.2921C125.47 59.6144 125.426 58.9373 125.334 58.2656V58.2291C125.336 58.1959 125.345 58.1634 125.361 58.1342C125.377 58.1049 125.399 58.0796 125.427 58.0602C125.492 58.0081 125.574 57.982 125.658 57.9872C125.838 57.9872 125.944 58.0557 125.967 58.1926C126.079 59.151 126.514 60.0445 127.2 60.7303C127.505 61.0255 127.866 61.2582 128.263 61.4149C128.659 61.5716 129.083 61.6491 129.51 61.6431C130.189 61.6669 130.855 61.4572 131.395 61.0497C131.639 60.8621 131.834 60.6198 131.965 60.3429C132.096 60.066 132.159 59.7623 132.148 59.4569C132.157 59.0361 132.053 58.6203 131.847 58.2519C131.651 57.9168 131.398 57.6173 131.099 57.3665C130.797 57.1117 130.465 56.8941 130.111 56.7184C129.75 56.5313 129.408 56.3624 129.085 56.2072C128.66 56.0155 128.231 55.8193 127.806 55.6139C127.396 55.4213 127.014 55.1757 126.669 54.8836C126.334 54.5947 126.058 54.2444 125.856 53.8521C125.633 53.38 125.525 52.8624 125.542 52.3414C125.522 51.8743 125.619 51.4096 125.825 50.989C126.032 50.5683 126.341 50.2049 126.725 49.9315C127.683 49.314 128.816 49.0135 129.958 49.0735C130.267 49.0699 130.576 49.0912 130.882 49.1374C131.169 49.192 131.451 49.2668 131.727 49.361C131.963 49.4464 132.208 49.5031 132.457 49.5299C132.525 49.536 132.593 49.5213 132.651 49.4878C132.71 49.4543 132.757 49.4036 132.785 49.3428C132.831 49.256 132.928 49.215 133.081 49.215C133.147 49.2146 133.213 49.227 133.275 49.2515C133.339 49.2515 133.372 49.3108 133.372 49.3519V49.3838C133.252 49.8426 133.197 50.3158 133.21 50.7896C133.208 51.095 133.23 51.4002 133.275 51.7024C133.316 51.9717 133.349 52.2866 133.372 52.6563C133.372 52.6974 133.339 52.7385 133.27 52.7704C133.206 52.8042 133.135 52.8215 133.062 52.8206C132.905 52.8206 132.813 52.7659 132.785 52.6563C132.674 52.0544 132.475 51.4717 132.194 50.9265C131.997 50.5705 131.687 50.2883 131.312 50.1232C130.814 49.9414 130.285 49.8592 129.755 49.8813C129.128 49.8525 128.51 50.045 128.013 50.4245C127.801 50.5984 127.631 50.8188 127.519 51.0682C127.407 51.3177 127.355 51.5894 127.367 51.8622Z" fill="black"/>
<path d="M1.5336 68.3797C1.48872 68.3765 1.44384 68.386 1.40426 68.4071C1.37178 68.4342 1.34643 68.4687 1.33035 68.5075L1.04396 69.2606C1.02541 69.3076 1.013 69.3566 1.007 69.4067C1.007 69.5847 1.1733 69.6851 1.5105 69.7079C1.57055 69.7079 1.59827 69.7444 1.59827 69.8129C1.59827 69.8813 1.57055 69.9224 1.5105 69.9224C1.39356 69.9284 1.27638 69.9284 1.15944 69.9224C0.983908 69.9224 0.859188 69.895 0.776041 69.895C0.667655 69.8948 0.559455 69.9039 0.452694 69.9224C0.340506 69.9321 0.227676 69.9321 0.115488 69.9224C0.103087 69.9222 0.0909733 69.9187 0.0804105 69.9123C0.0698478 69.9059 0.0612234 69.8967 0.0554375 69.8859C0.0479678 69.859 0.0479678 69.8306 0.0554375 69.8038C0.0534761 69.7926 0.0538653 69.7812 0.0565806 69.7702C0.059296 69.7592 0.064279 69.7489 0.0712174 69.7399C0.0781558 69.7309 0.0869002 69.7234 0.0969026 69.7179C0.106905 69.7124 0.11795 69.709 0.129346 69.7079H0.22635C0.35758 69.6868 0.479649 69.6281 0.577413 69.539C0.680643 69.4175 0.760486 69.2782 0.812995 69.1283L2.2773 65.477C2.2773 65.445 2.32349 65.4267 2.37892 65.4267C2.43136 65.425 2.48251 65.443 2.52212 65.477C3.13802 67.0409 3.63228 68.2687 4.0049 69.1602C4.04153 69.2605 4.09122 69.3556 4.15272 69.4432C4.19094 69.5042 4.24121 69.557 4.30053 69.5984C4.34636 69.6318 4.39804 69.6565 4.45297 69.6714L4.62388 69.7079C4.67007 69.7079 4.69317 69.7535 4.69317 69.822C4.69317 69.8905 4.69317 69.9224 4.6285 69.9224C4.49625 69.9316 4.3635 69.9316 4.23125 69.9224C4.08891 69.903 3.94533 69.8939 3.80165 69.895C3.63035 69.8943 3.45914 69.9034 3.28892 69.9224C3.13508 69.9315 2.98083 69.9315 2.82699 69.9224C2.8137 69.923 2.80047 69.9203 2.78841 69.9148C2.77635 69.9092 2.76582 69.9009 2.7577 69.8905C2.74261 69.8657 2.73463 69.8373 2.73461 69.8083C2.73334 69.796 2.73463 69.7835 2.73841 69.7716C2.7422 69.7598 2.74838 69.7488 2.7566 69.7394C2.76482 69.73 2.77489 69.7224 2.7862 69.717C2.7975 69.7115 2.80981 69.7085 2.82237 69.7079C2.93745 69.7013 3.05025 69.6734 3.15496 69.6258C3.18733 69.6026 3.21293 69.5714 3.22916 69.5354C3.24539 69.4993 3.25166 69.4596 3.24734 69.4204C3.24049 69.3047 3.21556 69.1908 3.17344 69.0826C3.12416 68.9366 3.05026 68.7449 2.95171 68.5075C2.94501 68.4851 2.93377 68.4642 2.91869 68.4462C2.90361 68.4281 2.88498 68.4133 2.86395 68.4026C2.80561 68.3851 2.74471 68.3773 2.68379 68.3797H1.5336ZM2.64684 68.1287C2.73923 68.1287 2.78542 68.1059 2.78542 68.0602L2.77156 68.0055L2.20339 66.4993C2.20019 66.4889 2.1933 66.4799 2.18398 66.474C2.17466 66.4682 2.16352 66.4658 2.15258 66.4674C2.14177 66.4666 2.13101 66.4694 2.12187 66.4751C2.11273 66.4808 2.10568 66.4893 2.10177 66.4993L1.5105 68.0055C1.50731 68.0297 1.50731 68.0543 1.5105 68.0785C1.5105 68.1196 1.54746 68.1378 1.62137 68.1378L2.64684 68.1287Z" fill="#E20613"/>
<path d="M7.65873 66.4354C7.65504 66.5827 7.70412 66.7266 7.79731 66.8416C7.91341 66.971 8.05911 67.0712 8.22228 67.1337C8.54899 67.2657 8.86683 67.4181 9.17385 67.5901C9.32736 67.6852 9.46588 67.8021 9.58496 67.937C9.67998 68.0483 9.75498 68.1749 9.80668 68.3113C9.85575 68.4584 9.87918 68.6128 9.87597 68.7677C9.88166 68.9998 9.81028 69.2275 9.67273 69.4158C9.52971 69.6005 9.3379 69.7426 9.11842 69.8266C8.86407 69.9253 8.59249 69.9734 8.31929 69.968C8.18053 69.966 8.04251 69.9476 7.90817 69.9133C7.7638 69.8785 7.62531 69.8231 7.49706 69.749L7.43239 69.7262C7.4096 69.7209 7.38589 69.7209 7.3631 69.7262C7.27995 69.7262 7.21528 69.7855 7.17371 69.8996C7.16382 69.9187 7.14848 69.9344 7.1296 69.945C7.11071 69.9555 7.08911 69.9604 7.06747 69.9589C7.04643 69.9656 7.02383 69.9656 7.0028 69.9589C6.99455 69.9533 6.98775 69.9458 6.98294 69.937C6.97813 69.9283 6.97544 69.9186 6.97508 69.9087C7.00527 69.6985 7.02224 69.4866 7.02589 69.2743C7.02525 69.0484 7.00982 68.8228 6.9797 68.5988C6.98032 68.5883 6.9831 68.578 6.98786 68.5686C6.99262 68.5592 6.99928 68.5508 7.00742 68.544C7.03279 68.535 7.06057 68.535 7.08594 68.544C7.14599 68.544 7.18295 68.544 7.19219 68.6125C7.23067 68.9325 7.37522 69.231 7.6033 69.4614C7.70495 69.5604 7.82549 69.6384 7.95793 69.6909C8.09036 69.7434 8.23204 69.7693 8.37472 69.7672C8.60083 69.7758 8.82293 69.7065 9.00293 69.571C9.08531 69.5084 9.15136 69.4273 9.19556 69.3344C9.23975 69.2415 9.26082 69.1395 9.25699 69.037C9.25858 68.8967 9.22358 68.7584 9.15537 68.6353C9.08888 68.5238 9.00466 68.4237 8.90593 68.3387C8.80498 68.2532 8.69317 68.1811 8.57334 68.1241L8.23152 67.9507L7.80655 67.7544C7.66818 67.6896 7.53923 67.6067 7.42315 67.508C7.31273 67.4117 7.22181 67.2955 7.15523 67.1657C7.07778 67.0081 7.04127 66.834 7.04899 66.6591C7.042 66.5035 7.07422 66.3487 7.14275 66.2085C7.21128 66.0683 7.31398 65.9471 7.44163 65.8558C7.76461 65.6474 8.14664 65.5466 8.53177 65.5682C8.63386 65.5675 8.73583 65.5751 8.83664 65.5911C8.93214 65.609 9.02628 65.6334 9.11842 65.6641C9.19703 65.6944 9.27935 65.7143 9.36324 65.7234C9.38594 65.7242 9.40841 65.7186 9.42803 65.7073C9.44765 65.696 9.46363 65.6794 9.4741 65.6595C9.48434 65.6437 9.49885 65.6311 9.516 65.623C9.53314 65.6149 9.55223 65.6118 9.5711 65.6139C9.59244 65.6096 9.61444 65.6096 9.63577 65.6139C9.65887 65.6139 9.66811 65.6139 9.66811 65.6504C9.6318 65.7998 9.61472 65.9532 9.6173 66.1068C9.60954 66.2071 9.60954 66.3078 9.6173 66.408C9.63427 66.5138 9.64507 66.6205 9.64963 66.7275C9.64963 66.7275 9.64963 66.7549 9.6173 66.764C9.59463 66.7703 9.57067 66.7703 9.54801 66.764C9.49258 66.764 9.46486 66.764 9.45562 66.7093C9.41689 66.5079 9.35004 66.3128 9.25699 66.1296C9.191 66.0113 9.08697 65.9182 8.96136 65.8649C8.79635 65.803 8.62032 65.7751 8.44401 65.7827C8.23408 65.7724 8.02742 65.8372 7.86198 65.9653C7.79425 66.0233 7.74076 66.0958 7.70555 66.1772C7.67034 66.2587 7.65433 66.347 7.65873 66.4354Z" fill="#E20613"/>
<path d="M14.6384 68.1972C14.6802 68.6822 14.5276 69.164 14.2134 69.539C14.0382 69.6945 13.8327 69.8131 13.6095 69.8876C13.3864 69.9622 13.1502 69.9911 12.9154 69.9726C12.4338 70.0163 11.9533 69.8777 11.5712 69.5847C11.4188 69.4165 11.3032 69.219 11.2316 69.0046C11.1601 68.7902 11.1342 68.5634 11.1555 68.3387V66.5495C11.1624 66.3954 11.1437 66.2412 11.1001 66.0931C11.0669 66.0006 11.0014 65.9229 10.9153 65.874C10.7977 65.8206 10.6705 65.7912 10.5411 65.7873C10.5292 65.7876 10.5174 65.7847 10.5069 65.7791C10.4963 65.7735 10.4875 65.7654 10.4811 65.7554C10.4763 65.7297 10.4763 65.7034 10.4811 65.6778C10.4769 65.6551 10.4769 65.632 10.4811 65.6093C10.488 65.5999 10.497 65.5921 10.5074 65.5866C10.5178 65.581 10.5293 65.5779 10.5411 65.5774C10.6797 65.5774 10.8368 65.5774 11.0031 65.6002C11.1694 65.623 11.3449 65.623 11.5019 65.623C11.659 65.623 11.8161 65.623 11.9916 65.6002C12.1671 65.5774 12.3242 65.5774 12.4535 65.5774C12.4997 65.5774 12.5228 65.6093 12.5228 65.6687C12.5216 65.6974 12.5137 65.7255 12.4997 65.7508C12.4947 65.7613 12.4869 65.7702 12.4771 65.7767C12.4673 65.7831 12.456 65.7868 12.4443 65.7873C12.3138 65.7901 12.1851 65.818 12.0655 65.8695C12.0238 65.8887 11.9864 65.916 11.9554 65.9497C11.9245 65.9834 11.9007 66.0228 11.8853 66.0657C11.8415 66.2247 11.8243 66.3897 11.8345 66.5541V68.3021C11.8163 68.6539 11.9297 69 12.1533 69.2743C12.2585 69.3936 12.3895 69.4879 12.5366 69.5503C12.6838 69.6127 12.8432 69.6416 13.0032 69.6349C13.178 69.6471 13.3534 69.623 13.5181 69.564C13.6828 69.505 13.8331 69.4126 13.9594 69.2926C14.2069 68.9877 14.326 68.6003 14.292 68.2109V66.8781C14.292 66.6956 14.292 66.5221 14.292 66.3578C14.2863 66.221 14.2549 66.0863 14.1996 65.9608C14.1809 65.9143 14.1483 65.8746 14.1062 65.8469C14.0642 65.8192 14.0146 65.8048 13.964 65.8056H13.7654C13.7552 65.806 13.7451 65.8032 13.7368 65.7974C13.7284 65.7916 13.7222 65.7832 13.7192 65.7736C13.7123 65.7482 13.7123 65.7215 13.7192 65.696C13.7192 65.6321 13.7423 65.5956 13.7839 65.5956C13.8951 65.597 14.0061 65.6047 14.1164 65.6184C14.2329 65.633 14.3501 65.6406 14.4675 65.6413C14.5803 65.6406 14.6929 65.633 14.8047 65.6184C14.9289 65.6035 15.0538 65.5958 15.1789 65.5956C15.1907 65.5958 15.2024 65.5988 15.2129 65.6043C15.2233 65.6099 15.2322 65.6179 15.2389 65.6276C15.2452 65.65 15.2452 65.6736 15.2389 65.696C15.2458 65.7215 15.2458 65.7482 15.2389 65.7736C15.2329 65.7839 15.2241 65.7924 15.2135 65.7981C15.2029 65.8037 15.1909 65.8063 15.1789 65.8056H14.9987C14.9463 65.8038 14.8951 65.8218 14.8555 65.8558C14.8063 65.9032 14.7684 65.9609 14.7447 66.0247C14.7039 66.1221 14.679 66.2253 14.6708 66.3304C14.6597 66.4824 14.6597 66.6349 14.6708 66.7869V68.2154L14.6384 68.1972Z" fill="#E20613"/>
<path d="M16.5185 68.3797C16.4736 68.3765 16.4287 68.386 16.3891 68.4071C16.3567 68.4333 16.3327 68.4682 16.3199 68.5075L16.0288 69.2606C16.0103 69.3076 15.9979 69.3566 15.9919 69.4067C15.9919 69.5847 16.1628 69.6851 16.4954 69.7079C16.5554 69.7079 16.5831 69.7444 16.5831 69.8129C16.5831 69.8813 16.5554 69.9224 16.4954 69.9224C16.3784 69.9284 16.2613 69.9284 16.1443 69.9224C15.9734 69.9224 15.8441 69.895 15.7609 69.895C15.6525 69.8948 15.5443 69.9039 15.4376 69.9224C15.3254 69.9321 15.2126 69.9321 15.1004 69.9224C15.088 69.9222 15.0759 69.9187 15.0653 69.9123C15.0547 69.9059 15.0461 69.8967 15.0403 69.8859C15.0328 69.859 15.0328 69.8306 15.0403 69.8038C15.0384 69.7926 15.0387 69.7812 15.0415 69.7702C15.0442 69.7592 15.0492 69.7489 15.0561 69.7399C15.063 69.7309 15.0718 69.7234 15.0818 69.7179C15.0918 69.7124 15.1028 69.709 15.1142 69.7079H15.2112C15.3425 69.6868 15.4645 69.6281 15.5623 69.539C15.6655 69.4175 15.7454 69.2782 15.7979 69.1283L17.2622 65.477C17.2622 65.445 17.3084 65.4267 17.3638 65.4267C17.4162 65.425 17.4674 65.443 17.507 65.477C18.1229 67.0409 18.6172 68.2687 18.9898 69.1602C19.0264 69.2605 19.0761 69.3556 19.1376 69.4432C19.1758 69.5042 19.2261 69.557 19.2854 69.5984C19.3312 69.6318 19.3829 69.6565 19.4378 69.6714L19.6088 69.7079C19.655 69.7079 19.678 69.7535 19.678 69.822C19.678 69.8905 19.678 69.9224 19.6134 69.9224C19.4811 69.9316 19.3484 69.9316 19.2161 69.9224C19.0738 69.903 18.9302 69.8939 18.7865 69.895C18.6152 69.8943 18.444 69.9034 18.2738 69.9224C18.12 69.9315 17.9657 69.9315 17.8119 69.9224C17.7986 69.923 17.7853 69.9203 17.7733 69.9148C17.7612 69.9092 17.7507 69.9009 17.7426 69.8905C17.7275 69.8657 17.7195 69.8373 17.7195 69.8083C17.7182 69.796 17.7195 69.7835 17.7233 69.7716C17.7271 69.7598 17.7333 69.7488 17.7415 69.7394C17.7497 69.73 17.7598 69.7224 17.7711 69.717C17.7824 69.7115 17.7947 69.7085 17.8072 69.7079C17.9223 69.7013 18.0351 69.6734 18.1398 69.6258C18.1722 69.6026 18.1978 69.5714 18.214 69.5354C18.2303 69.4993 18.2365 69.4596 18.2322 69.4204C18.2254 69.3047 18.2004 69.1908 18.1583 69.0826C18.109 68.9366 18.0351 68.7449 17.9366 68.5075C17.9299 68.4851 17.9187 68.4642 17.9036 68.4462C17.8885 68.4281 17.8699 68.4133 17.8488 68.4026C17.7905 68.3851 17.7296 68.3773 17.6687 68.3797H16.5185ZM17.6317 68.1287C17.7241 68.1287 17.7703 68.1059 17.7703 68.0602V67.9964L17.2021 66.4993C17.1989 66.4889 17.192 66.4799 17.1827 66.474C17.1734 66.4682 17.1623 66.4658 17.1513 66.4674C17.1405 66.4666 17.1297 66.4694 17.1206 66.4751C17.1115 66.4808 17.1044 66.4893 17.1005 66.4993L16.4954 68.0055C16.4922 68.0297 16.4922 68.0543 16.4954 68.0785C16.4954 68.1196 16.5323 68.1378 16.6062 68.1378L17.6317 68.1287Z" fill="#E20613"/>
<path d="M23.3226 69.005C23.3116 69.0992 23.3198 69.1945 23.3468 69.2855C23.3738 69.3764 23.419 69.4611 23.4797 69.5345C23.651 69.6536 23.8569 69.7145 24.0663 69.7079C24.1218 69.7079 24.1495 69.7444 24.1495 69.8174C24.1495 69.8905 24.1171 69.9224 24.0571 69.9224C23.8586 69.9328 23.6597 69.9328 23.4612 69.9224C23.3078 69.9053 23.1536 69.8961 22.9993 69.895C22.8372 69.8951 22.6753 69.9042 22.5143 69.9224C22.3604 69.9313 22.2062 69.9313 22.0523 69.9224C22.0402 69.9237 22.028 69.9214 22.0173 69.9157C22.0065 69.91 21.9978 69.9012 21.9923 69.8905C21.9858 69.865 21.9858 69.8384 21.9923 69.8129C21.9923 69.7535 21.9923 69.717 22.0708 69.7079C22.2044 69.7028 22.336 69.6734 22.4588 69.6212C22.5306 69.5818 22.5862 69.5188 22.6159 69.4432C22.6489 69.3197 22.6629 69.192 22.6575 69.0644V66.6773C22.6614 66.5245 22.6506 66.3717 22.6251 66.2209C22.6065 66.1312 22.5704 66.046 22.5189 65.9699C22.4708 65.9064 22.3995 65.8638 22.3203 65.8512C22.2234 65.8249 22.1245 65.8066 22.0246 65.7965C22.0127 65.7967 22.0009 65.7939 21.9903 65.7883C21.9798 65.7827 21.9709 65.7745 21.9646 65.7645C21.9571 65.7407 21.9571 65.7153 21.9646 65.6915C21.9583 65.6691 21.9583 65.6454 21.9646 65.623C21.9715 65.6136 21.9805 65.6058 21.9909 65.6003C22.0013 65.5947 22.0128 65.5916 22.0246 65.5911C22.1558 65.5909 22.287 65.5985 22.4173 65.6139C22.5327 65.6139 22.6713 65.6139 22.8284 65.6139C23.087 65.6139 23.2903 65.6139 23.4704 65.6139C23.6506 65.6139 23.803 65.6139 23.9555 65.6139C24.3213 65.59 24.6841 65.6933 24.9809 65.906C25.0965 66.0062 25.1877 66.1309 25.2477 66.2707C25.3077 66.4106 25.3349 66.5621 25.3274 66.7138C25.3349 66.8922 25.2965 67.0695 25.2157 67.2292C25.1349 67.3888 25.0144 67.5256 24.8655 67.6267C24.4464 67.8702 23.9656 67.9906 23.4797 67.9735C23.4481 67.964 23.4143 67.964 23.3827 67.9735C23.3827 67.9735 23.355 68.0237 23.355 68.0785L23.3226 69.005ZM23.3226 67.6358C23.3226 67.6677 23.3226 67.6906 23.3503 67.6997C23.3854 67.7065 23.4215 67.7065 23.4566 67.6997C23.6817 67.7092 23.9068 67.6798 24.1218 67.613C24.2677 67.562 24.3894 67.4596 24.4636 67.3254C24.5445 67.1447 24.5809 66.9476 24.5698 66.7504C24.5938 66.4998 24.5267 66.249 24.3804 66.0429C24.2932 65.9659 24.1906 65.9078 24.0792 65.8724C23.9678 65.837 23.8501 65.8251 23.7337 65.8375C23.6194 65.8259 23.5041 65.8465 23.4012 65.8969C23.37 65.933 23.3468 65.9753 23.3333 66.0209C23.3198 66.0666 23.3161 66.1145 23.3226 66.1616V67.6358Z" fill="#E20613"/>
<path d="M26.4222 66.5495C26.4285 66.3954 26.4098 66.2413 26.3667 66.0931C26.336 66.0018 26.2717 65.9252 26.1866 65.8786C26.0686 65.8263 25.9416 65.7969 25.8124 65.7919C25.757 65.7919 25.7339 65.7599 25.7339 65.6915C25.7339 65.623 25.7339 65.5819 25.8124 65.5819C25.9464 65.5819 26.1034 65.5819 26.2743 65.6048C26.4453 65.6276 26.6162 65.6048 26.7732 65.6048H27.0273L27.7386 65.5728C27.7848 65.5728 27.8079 65.6048 27.8079 65.6686C27.8148 65.6941 27.8148 65.7208 27.8079 65.7462C27.804 65.7574 27.7964 65.7671 27.7864 65.7736C27.7764 65.7802 27.7645 65.7834 27.7525 65.7828C27.619 65.7847 27.4871 65.8126 27.3645 65.8649C27.2811 65.9081 27.2181 65.9818 27.189 66.0703C27.1485 66.2267 27.1314 66.3882 27.1381 66.5495V68.7768C27.1285 68.9593 27.1535 69.142 27.2121 69.3154C27.2393 69.3689 27.2771 69.4167 27.323 69.4558C27.369 69.495 27.4223 69.5248 27.48 69.5436C27.6604 69.6005 27.8497 69.6252 28.0389 69.6166C28.2182 69.6245 28.3973 69.5966 28.5655 69.5345C28.6964 69.4754 28.806 69.3783 28.8796 69.2561C28.9782 69.0852 29.0498 68.9005 29.0921 68.7084C29.0921 68.6673 29.1429 68.649 29.2168 68.649C29.2428 68.6443 29.2694 68.6443 29.2953 68.649C29.3184 68.649 29.3323 68.6764 29.3323 68.6947C29.2883 69.0217 29.2621 69.3507 29.2538 69.6805V69.7718C29.2546 69.7866 29.2506 69.8013 29.2422 69.8136C29.2339 69.826 29.2217 69.8353 29.2076 69.8403C29.176 69.8557 29.1412 69.8636 29.1059 69.8631H26.7501C26.5792 69.8631 26.4175 69.8631 26.2605 69.8631L25.7986 69.8905C25.786 69.8906 25.7735 69.8878 25.7623 69.8823C25.751 69.8767 25.7413 69.8686 25.7339 69.8585C25.7188 69.8371 25.7107 69.8116 25.7107 69.7855C25.7107 69.7594 25.7188 69.7339 25.7339 69.7125C25.7411 69.7018 25.7506 69.693 25.7619 69.6866C25.7731 69.6803 25.7856 69.6766 25.7986 69.6759C25.9568 69.6661 26.1126 69.6322 26.2605 69.5755C26.2942 69.5585 26.3239 69.5346 26.3478 69.5055C26.3717 69.4765 26.3891 69.4428 26.3991 69.4067C26.4305 69.2814 26.443 69.1522 26.436 69.0233L26.4222 66.5495Z" fill="#E20613"/>
<path d="M31.1754 68.3797C31.132 68.3763 31.0885 68.3858 31.0507 68.4071C31.0182 68.4342 30.9928 68.4687 30.9767 68.5075L30.6857 69.2606C30.668 69.3075 30.6571 69.3567 30.6534 69.4067C30.6534 69.5847 30.8197 69.6851 31.1569 69.7079C31.2169 69.7079 31.2447 69.7444 31.2447 69.8129C31.2447 69.8813 31.2169 69.9224 31.1569 69.9224C31.04 69.9284 30.9228 69.9284 30.8058 69.9224C30.6303 69.9224 30.5056 69.895 30.4224 69.895C30.314 69.8948 30.2059 69.9039 30.0991 69.9224C29.9869 69.9319 29.8741 69.9319 29.7619 69.9224C29.7494 69.9227 29.737 69.9194 29.7264 69.913C29.7157 69.9065 29.7072 69.8971 29.7018 69.8859C29.6946 69.859 29.6946 69.8307 29.7018 69.8038C29.7006 69.7924 29.7016 69.7808 29.7048 69.7698C29.7081 69.7588 29.7135 69.7485 29.7208 69.7396C29.7281 69.7307 29.7372 69.7233 29.7474 69.7179C29.7576 69.7124 29.7688 69.709 29.7804 69.7079H29.8774C30.0086 69.6868 30.1307 69.6281 30.2284 69.539C30.3317 69.4175 30.4115 69.2782 30.464 69.1283L31.9283 65.477C31.9283 65.445 31.9745 65.4267 32.0299 65.4267C32.0824 65.425 32.1335 65.443 32.1731 65.477C32.789 67.0409 33.2818 68.2687 33.6513 69.1602C33.6892 69.2608 33.7405 69.3559 33.8037 69.4432C33.842 69.5042 33.8922 69.557 33.9516 69.5984C33.9974 69.6318 34.0491 69.6565 34.104 69.6714L34.2703 69.7079C34.3211 69.7079 34.3442 69.7535 34.3442 69.822C34.3442 69.8905 34.3442 69.9224 34.2795 69.9224C34.1473 69.9316 34.0145 69.9316 33.8823 69.9224C33.7399 69.9033 33.5963 69.8942 33.4527 69.895C33.2814 69.8943 33.1102 69.9034 32.9399 69.9224C32.7861 69.9315 32.6318 69.9315 32.478 69.9224C32.4647 69.923 32.4515 69.9203 32.4394 69.9148C32.4274 69.9092 32.4168 69.9009 32.4087 69.8905C32.3936 69.8657 32.3856 69.8373 32.3856 69.8083C32.3843 69.7963 32.3855 69.7842 32.389 69.7726C32.3925 69.7611 32.3983 69.7503 32.406 69.741C32.4137 69.7316 32.4233 69.7239 32.434 69.7182C32.4448 69.7126 32.4566 69.709 32.4688 69.7079C32.5853 69.7013 32.6997 69.6734 32.806 69.6258C32.8383 69.6026 32.8639 69.5714 32.8802 69.5354C32.8964 69.4993 32.9027 69.4596 32.8984 69.4204C32.8894 69.3045 32.8629 69.1907 32.8198 69.0826C32.769 68.9366 32.6997 68.7449 32.6027 68.5075C32.596 68.4851 32.5848 68.4642 32.5697 68.4462C32.5546 68.4281 32.536 68.4133 32.515 68.4026C32.4566 68.3851 32.3957 68.3773 32.3348 68.3797H31.1754ZM32.2932 68.1287C32.3856 68.1287 32.4318 68.1059 32.4318 68.0602V67.9964L31.8729 66.4993C31.8686 66.4895 31.8615 66.4812 31.8524 66.4754C31.8434 66.4695 31.8329 66.4664 31.8221 66.4664C31.8113 66.4664 31.8007 66.4695 31.7917 66.4754C31.7827 66.4812 31.7756 66.4895 31.7713 66.4993L31.1569 68.0055C31.1515 68.0295 31.1515 68.0545 31.1569 68.0785C31.1569 68.1196 31.1939 68.1378 31.2678 68.1378L32.2932 68.1287Z" fill="#E20613"/>
<path d="M36.4598 69.0552C36.4521 69.195 36.4661 69.335 36.5014 69.4706C36.5153 69.5057 36.5364 69.5377 36.5635 69.5644C36.5905 69.5911 36.6228 69.612 36.6584 69.6257C36.7963 69.6754 36.9413 69.7032 37.088 69.7079C37.1005 69.7098 37.1124 69.7144 37.1228 69.7216C37.1332 69.7287 37.1419 69.7381 37.1481 69.749C37.1632 69.7704 37.1712 69.7959 37.1712 69.822C37.1712 69.8481 37.1632 69.8736 37.1481 69.895C37.1402 69.9042 37.1302 69.9115 37.119 69.9163C37.1078 69.921 37.0956 69.9231 37.0834 69.9224C36.9172 69.9318 36.7507 69.9318 36.5845 69.9224C36.4312 69.9044 36.277 69.8952 36.1226 69.895C35.9528 69.8954 35.7832 69.9045 35.6145 69.9224C35.4606 69.9303 35.3064 69.9303 35.1525 69.9224C35.1416 69.9238 35.1305 69.922 35.1206 69.9171C35.1107 69.9122 35.1025 69.9045 35.0971 69.895C35.0902 69.8712 35.0902 69.8459 35.0971 69.822C35.0971 69.7535 35.0971 69.717 35.171 69.7079C35.3168 69.7045 35.4608 69.6751 35.596 69.6212C35.6334 69.6042 35.6668 69.5795 35.6939 69.5488C35.7209 69.5182 35.7411 69.4821 35.753 69.4432C35.7868 69.3167 35.8009 69.1859 35.7946 69.0552V66.2163C35.7946 66.0612 35.753 65.9653 35.6745 65.9242C35.5453 65.874 35.4066 65.8522 35.268 65.8603C35.1004 65.8524 34.9327 65.8756 34.7737 65.9288C34.6648 65.973 34.5738 66.0516 34.5151 66.1524C34.4302 66.3221 34.3725 66.5038 34.3442 66.691C34.3442 66.7321 34.3026 66.7503 34.2425 66.7503C34.2199 66.7571 34.1958 66.7571 34.1732 66.7503C34.1639 66.7462 34.1556 66.7399 34.1492 66.7319C34.1427 66.724 34.1383 66.7147 34.1363 66.7047C34.1584 66.5291 34.1692 66.3522 34.1686 66.1753C34.1703 66.0225 34.1594 65.8699 34.1363 65.7188C34.1363 65.6367 34.2333 65.6002 34.4273 65.6002H37.8871C37.9546 65.5921 38.0229 65.5921 38.0904 65.6002C38.1458 65.6002 38.1689 65.6458 38.1689 65.696C38.1491 65.8397 38.1399 65.9846 38.1412 66.1296C38.1412 66.2757 38.1412 66.4582 38.1689 66.6727C38.1686 66.6838 38.1649 66.6946 38.1583 66.7035C38.1517 66.7125 38.1425 66.7193 38.132 66.723C38.1073 66.7388 38.0782 66.7468 38.0488 66.7458C37.9888 66.7458 37.961 66.7458 37.9518 66.6864C37.9314 66.5097 37.8831 66.3372 37.8086 66.1753C37.7504 66.0658 37.6581 65.9778 37.5453 65.9242C37.3859 65.8658 37.2163 65.8394 37.0464 65.8466C36.9033 65.839 36.7602 65.8607 36.6261 65.9105C36.5383 65.9516 36.4967 66.0475 36.4967 66.2026L36.4598 69.0552Z" fill="#E20613"/>
<path d="M39.4715 68.3797C39.4281 68.3763 39.3847 68.3858 39.3468 68.4071C39.3143 68.4342 39.289 68.4687 39.2729 68.5075L38.9819 69.2606C38.9641 69.3075 38.9532 69.3567 38.9496 69.4067C38.9496 69.5847 39.1159 69.6851 39.4531 69.7079C39.5131 69.7079 39.5408 69.7444 39.5408 69.8129C39.5408 69.8813 39.5131 69.9224 39.4531 69.9224C39.3361 69.9284 39.2189 69.9284 39.102 69.9224C38.9265 69.9224 38.8017 69.895 38.7186 69.895C38.6102 69.8948 38.502 69.9039 38.3953 69.9224C38.2831 69.9319 38.1702 69.9319 38.058 69.9224C38.0455 69.9227 38.0332 69.9194 38.0225 69.913C38.0119 69.9065 38.0034 69.8971 37.998 69.8859C37.9829 69.8611 37.9749 69.8327 37.9749 69.8038C37.9736 69.7924 37.9746 69.7808 37.9779 69.7698C37.9812 69.7588 37.9866 69.7485 37.9939 69.7396C38.0012 69.7307 38.0102 69.7233 38.0205 69.7179C38.0307 69.7124 38.0419 69.709 38.0534 69.7079H38.1504C38.2817 69.6868 38.4037 69.6281 38.5015 69.539C38.6047 69.4175 38.6846 69.2782 38.7371 69.1283L40.2014 65.477C40.2014 65.445 40.2476 65.4267 40.303 65.4267C40.3554 65.425 40.4066 65.443 40.4462 65.477C41.0621 67.0409 41.5548 68.2687 41.9244 69.1602C41.9623 69.2608 42.0135 69.3559 42.0768 69.4432C42.115 69.5042 42.1653 69.557 42.2246 69.5984C42.2704 69.6318 42.3221 69.6565 42.377 69.6714L42.5433 69.7079C42.5942 69.7079 42.6173 69.7535 42.6173 69.822C42.6173 69.8905 42.5942 69.9224 42.5526 69.9224C42.4203 69.9316 42.2876 69.9316 42.1553 69.9224C42.013 69.9033 41.8694 69.8942 41.7257 69.895C41.5544 69.8943 41.3832 69.9034 41.213 69.9224C41.0592 69.9315 40.9049 69.9315 40.7511 69.9224C40.7378 69.923 40.7245 69.9203 40.7125 69.9148C40.7004 69.9092 40.6899 69.9009 40.6818 69.8905C40.6745 69.8636 40.6745 69.8352 40.6818 69.8083C40.6805 69.7963 40.6817 69.7842 40.6851 69.7726C40.6886 69.7611 40.6944 69.7503 40.7022 69.741C40.7099 69.7316 40.7194 69.7239 40.7302 69.7182C40.741 69.7126 40.7528 69.709 40.7649 69.7079C40.8815 69.7013 40.9958 69.6734 41.1021 69.6258C41.1345 69.6026 41.1601 69.5714 41.1763 69.5354C41.1926 69.4993 41.1988 69.4596 41.1945 69.4204C41.1856 69.3045 41.1591 69.1907 41.116 69.0826C41.0652 68.9366 40.9959 68.7449 40.8989 68.5075C40.8922 68.4851 40.881 68.4642 40.8659 68.4462C40.8508 68.4281 40.8322 68.4133 40.8111 68.4026C40.7528 68.3851 40.6919 68.3773 40.631 68.3797H39.4715ZM40.5894 68.1287C40.6818 68.1287 40.728 68.1059 40.728 68.0602V67.9964L40.1644 66.4993C40.1601 66.4895 40.153 66.4812 40.144 66.4754C40.135 66.4695 40.1244 66.4664 40.1136 66.4664C40.1028 66.4664 40.0923 66.4695 40.0832 66.4754C40.0742 66.4812 40.0671 66.4895 40.0628 66.4993L39.4531 68.0055C39.4477 68.0295 39.4477 68.0545 39.4531 68.0785C39.4531 68.1196 39.49 68.1378 39.5639 68.1378L40.5894 68.1287Z" fill="#E20613"/>
<path d="M46.1926 65.5956C46.2277 65.5896 46.2637 65.5896 46.2988 65.5956C46.2988 65.5956 46.3311 65.6276 46.3311 65.6641V65.7234C46.3311 65.8208 46.3311 65.9258 46.3311 66.0383V66.1479V66.6043C46.3311 66.6043 46.3311 66.6362 46.2988 66.6499C46.2744 66.6546 46.2493 66.6546 46.2249 66.6499C46.2018 66.6535 46.1782 66.6491 46.158 66.6375C46.1378 66.6258 46.1223 66.6077 46.114 66.586C46.0917 66.4225 46.0514 66.2618 45.9939 66.1068C45.9581 66.0303 45.8959 65.9688 45.8184 65.9334C45.6566 65.886 45.4882 65.8645 45.3195 65.8695H44.9269C44.7949 65.8609 44.6623 65.8732 44.5343 65.906C44.51 65.9167 44.4884 65.9324 44.4708 65.9521C44.4533 65.9718 44.4403 65.995 44.4326 66.0201C44.41 66.1127 44.4006 66.2079 44.4049 66.3031V67.476C44.4049 67.5628 44.4372 67.6084 44.4973 67.6084C44.6518 67.6109 44.8062 67.6017 44.9592 67.581C45.0518 67.5721 45.1406 67.5408 45.2179 67.4897C45.2782 67.4474 45.3196 67.3836 45.3334 67.3117C45.358 67.2205 45.375 67.1273 45.3842 67.0333C45.3842 66.9831 45.4304 66.9557 45.4997 66.9557C45.5225 66.9505 45.5462 66.9505 45.569 66.9557C45.5782 66.9626 45.5856 66.9716 45.5905 66.9819C45.5953 66.9923 45.5974 67.0037 45.5967 67.0151C45.5967 67.1063 45.5967 67.2205 45.5967 67.3574C45.5904 67.4805 45.5904 67.6039 45.5967 67.7271C45.5893 67.8426 45.5893 67.9584 45.5967 68.0739C45.6054 68.2001 45.6054 68.3266 45.5967 68.4528C45.5967 68.4938 45.569 68.5121 45.5089 68.5121C45.4831 68.5185 45.4562 68.5185 45.4304 68.5121C45.4181 68.5085 45.4071 68.5014 45.3988 68.4917C45.3906 68.4819 45.3855 68.47 45.3842 68.4573C45.3834 68.311 45.3469 68.167 45.278 68.0374C45.2159 67.9678 45.1307 67.9225 45.0378 67.9096C44.8559 67.8827 44.6719 67.872 44.4881 67.8777C44.428 67.8777 44.3957 67.9142 44.3957 67.9918V69.0142C44.3894 69.1502 44.4082 69.2863 44.4511 69.4158C44.4839 69.504 44.5502 69.576 44.6359 69.6166C44.7968 69.6777 44.967 69.7117 45.1394 69.717C45.1948 69.717 45.2225 69.7535 45.2225 69.822C45.2292 69.8474 45.2292 69.8741 45.2225 69.8996C45.2147 69.9103 45.2042 69.9189 45.1921 69.9245C45.18 69.93 45.1666 69.9325 45.1532 69.9315C44.9547 69.9419 44.7558 69.9419 44.5573 69.9315C44.404 69.9144 44.2498 69.9053 44.0954 69.9042C43.9334 69.9042 43.7714 69.9133 43.6104 69.9315C43.4566 69.9405 43.3023 69.9405 43.1485 69.9315C43.1364 69.9323 43.1245 69.9297 43.1138 69.924C43.1032 69.9184 43.0944 69.9099 43.0884 69.8996C43.0811 69.8742 43.0811 69.8474 43.0884 69.822C43.0884 69.7627 43.1115 69.7262 43.1669 69.717C43.3006 69.7119 43.4321 69.6825 43.555 69.6303C43.629 69.5915 43.6852 69.5262 43.712 69.4477C43.7471 69.3261 43.7627 69.1999 43.7582 69.0735V66.6682C43.765 66.4915 43.7463 66.3148 43.7028 66.1433C43.6769 66.0426 43.6185 65.9528 43.5365 65.8877C43.4088 65.8195 43.266 65.7834 43.1208 65.7828C43.0699 65.7828 43.0422 65.7462 43.0422 65.6823C43.0353 65.6585 43.0353 65.6332 43.0422 65.6093C43.0482 65.599 43.057 65.5905 43.0676 65.5849C43.0783 65.5792 43.0903 65.5766 43.1023 65.5774C43.2455 65.5774 43.3748 65.5774 43.4949 65.5774C43.615 65.5774 43.749 65.5774 43.906 65.5774L46.1926 65.5956Z" fill="#E20613"/>
<path d="M49.038 69.9498C48.7478 69.9664 48.4573 69.9244 48.184 69.8263C47.9108 69.7282 47.6607 69.5761 47.449 69.3793C47.243 69.1487 47.0857 68.8796 46.9866 68.588C46.8874 68.2964 46.8483 67.9882 46.8716 67.6814C46.8657 67.2841 46.961 66.8918 47.1488 66.5404C47.3246 66.2073 47.5941 65.9315 47.9248 65.7462C48.2721 65.5648 48.659 65.4699 49.0519 65.4699C49.4448 65.4699 49.8317 65.5648 50.179 65.7462C50.5014 65.9279 50.7644 66.1972 50.9366 66.5221C51.1208 66.8761 51.2128 67.2698 51.2045 67.6677C51.2126 68.0852 51.1191 68.4984 50.9319 68.8727C50.7608 69.2087 50.4922 69.4867 50.1605 69.6714C49.8177 69.8601 49.4305 69.9562 49.038 69.9498ZM49.0658 69.6805C49.3209 69.6821 49.5671 69.5874 49.754 69.4158C49.9668 69.2194 50.1257 68.9728 50.2159 68.6992C50.3257 68.382 50.3803 68.0487 50.3776 67.7134C50.3854 67.3557 50.3323 66.9993 50.2206 66.6591C50.1374 66.3913 49.9768 66.1533 49.7586 65.9744C49.5522 65.8106 49.2935 65.7249 49.0288 65.7326C48.7688 65.729 48.5163 65.8181 48.3174 65.9836C48.1031 66.1751 47.9437 66.4191 47.8555 66.691C47.7444 67.019 47.6898 67.363 47.6938 67.7088C47.6597 68.2238 47.782 68.7371 48.0449 69.183C48.1574 69.3457 48.3105 69.4769 48.4893 69.5641C48.6681 69.6512 48.8667 69.6913 49.0658 69.6805Z" fill="#E20613"/>
<path d="M52.4978 66.6682C52.5047 66.487 52.486 66.3058 52.4424 66.1296C52.4144 66.0287 52.3545 65.9391 52.2715 65.874C52.1438 65.8156 52.0056 65.783 51.865 65.7782C51.8142 65.7782 51.7865 65.7462 51.7865 65.6778C51.7797 65.6555 51.7797 65.6316 51.7865 65.6093C51.7918 65.5981 51.8004 65.5887 51.811 65.5823C51.8217 65.5758 51.834 65.5725 51.8465 65.5728C51.9897 65.5728 52.1191 65.5728 52.2392 65.5728C52.3593 65.5728 52.4932 65.5728 52.6503 65.5728L53.7774 65.5454C54.1427 65.5256 54.5037 65.6321 54.7982 65.8467C54.9232 65.9458 55.0226 66.0727 55.0885 66.2171C55.1543 66.3615 55.1846 66.5192 55.177 66.6773C55.186 66.9437 55.0898 67.2031 54.9088 67.4007C54.7278 67.5983 54.4761 67.7186 54.207 67.7362C54.1746 67.7362 54.1608 67.759 54.1608 67.7773C54.1608 67.7955 54.1608 67.8184 54.207 67.8366C54.4331 67.9418 54.6309 68.0981 54.7844 68.293C54.9419 68.5225 55.0431 68.785 55.08 69.0598C55.1001 69.1835 55.1294 69.3055 55.1678 69.4249C55.188 69.4778 55.2233 69.5238 55.2694 69.5573C55.3055 69.5843 55.3489 69.6001 55.3941 69.6029C55.4513 69.6014 55.5057 69.5786 55.5465 69.539C55.6 69.4867 55.637 69.4201 55.6528 69.3473C55.6551 69.3252 55.666 69.3047 55.6832 69.2903C55.7004 69.2758 55.7226 69.2685 55.7452 69.2698C55.7774 69.2692 55.8087 69.2806 55.8329 69.3017C55.8429 69.3085 55.8514 69.3173 55.8577 69.3275C55.8641 69.3378 55.8682 69.3492 55.8699 69.361C55.8644 69.449 55.8406 69.5349 55.8001 69.6134C55.7595 69.6919 55.7031 69.7614 55.6343 69.8174C55.4918 69.93 55.3131 69.9883 55.1308 69.9818C55.0075 69.9864 54.885 69.9597 54.7751 69.9042C54.6831 69.8594 54.6073 69.7877 54.558 69.6988C54.458 69.4361 54.3792 69.166 54.3224 68.8909L54.267 68.6673C54.2156 68.4494 54.1109 68.2472 53.9621 68.0785C53.8218 67.9545 53.6374 67.8905 53.4494 67.9005C53.2739 67.9005 53.1861 67.9735 53.1861 68.1242V68.9868C53.1813 69.1205 53.2033 69.2539 53.2508 69.3793C53.2919 69.4727 53.3634 69.5498 53.454 69.5984C53.6006 69.6578 53.7575 69.6888 53.916 69.6897C53.9285 69.6893 53.9408 69.6926 53.9515 69.6991C53.9621 69.7056 53.9706 69.715 53.976 69.7262C53.9881 69.7486 53.9945 69.7737 53.9945 69.7992C53.9945 69.8247 53.9881 69.8497 53.976 69.8722C53.9682 69.8829 53.9577 69.8915 53.9456 69.8971C53.9334 69.9027 53.9201 69.9051 53.9067 69.9042C53.7543 69.9042 53.5649 69.9042 53.3385 69.9042C53.1122 69.9042 52.9551 69.8768 52.8766 69.8768C52.7146 69.8768 52.5526 69.8859 52.3916 69.9042C52.2378 69.913 52.0835 69.913 51.9297 69.9042C51.9176 69.9049 51.9057 69.9023 51.895 69.8966C51.8844 69.891 51.8756 69.8825 51.8696 69.8722C51.8623 69.8469 51.8623 69.82 51.8696 69.7946C51.8696 69.7353 51.8927 69.6988 51.9482 69.6897C52.0818 69.6845 52.2133 69.6551 52.3362 69.6029C52.4102 69.5641 52.4664 69.4988 52.4932 69.4204C52.5263 69.2984 52.5403 69.1722 52.5348 69.0461L52.4978 66.6682ZM53.2046 67.4304C53.2046 67.54 53.2369 67.6038 53.297 67.6221C53.3892 67.6439 53.484 67.6532 53.5787 67.6495C53.8275 67.6756 54.0766 67.6034 54.2716 67.4487C54.4246 67.2387 54.4937 66.9802 54.4656 66.723C54.4896 66.481 54.4221 66.2388 54.2763 66.0429C54.1855 65.9672 54.0802 65.9104 53.9667 65.8759C53.8532 65.8414 53.7338 65.8299 53.6157 65.8421C53.5009 65.8314 53.3855 65.8536 53.2831 65.906C53.253 65.9419 53.2305 65.9835 53.217 66.0282C53.2035 66.0729 53.1993 66.1198 53.2046 66.1661V67.4304Z" fill="#E20613"/>
<path d="M56.9416 66.3715C56.9484 66.2556 56.9327 66.1394 56.8954 66.0292C56.8718 65.9566 56.8204 65.896 56.7522 65.8603C56.6273 65.8107 56.4942 65.7844 56.3596 65.7828C56.3475 65.7835 56.3355 65.7809 56.3249 65.7752C56.3143 65.7696 56.3055 65.7611 56.2995 65.7508C56.2815 65.7288 56.2718 65.7014 56.2718 65.6732C56.2727 65.6479 56.2825 65.6237 56.2995 65.6048C56.3062 65.5951 56.3151 65.5871 56.3256 65.5815C56.336 65.576 56.3477 65.573 56.3596 65.5728H56.5351C57.3065 65.5728 57.7038 65.6047 57.7176 65.6641L59.0295 68.7084C59.0295 68.7084 59.0295 68.7312 59.0572 68.7312C59.0849 68.7312 59.0803 68.7312 59.0895 68.7084L60.3829 65.6641C60.3829 65.6367 60.5585 65.6139 60.8864 65.6002C61.2144 65.5865 61.4823 65.5728 61.6856 65.5728C61.7364 65.5728 61.7595 65.6093 61.7595 65.6732C61.7595 65.7371 61.7595 65.7736 61.6856 65.7828C61.5424 65.8101 61.4269 65.833 61.3437 65.8558C61.3073 65.8628 61.2726 65.877 61.2417 65.8973C61.2107 65.9177 61.1842 65.9439 61.1636 65.9744C61.1184 66.0506 61.0944 66.1372 61.0943 66.2255C61.0943 66.335 61.0943 66.4948 61.0943 66.6819V69.037C61.0864 69.171 61.102 69.3053 61.1405 69.4341C61.1535 69.4726 61.1746 69.508 61.2025 69.5379C61.2304 69.5678 61.2643 69.5915 61.3022 69.6075C61.4373 69.6556 61.579 69.6833 61.7225 69.6896C61.7348 69.6921 61.7465 69.697 61.7568 69.7041C61.7672 69.7111 61.7759 69.7202 61.7826 69.7307C61.7977 69.7522 61.8058 69.7776 61.8058 69.8038C61.8058 69.8299 61.7977 69.8554 61.7826 69.8768C61.774 69.8864 61.7632 69.8938 61.7512 69.8986C61.7392 69.9033 61.7262 69.9052 61.7133 69.9042C61.5487 69.9136 61.3836 69.9136 61.219 69.9042C61.0657 69.8863 60.9115 69.8772 60.7571 69.8768C60.5889 69.877 60.4208 69.8862 60.2536 69.9042C60.0997 69.912 59.9455 69.912 59.7917 69.9042C59.7801 69.9049 59.7686 69.9028 59.7581 69.898C59.7476 69.8932 59.7385 69.8859 59.7316 69.8768C59.7195 69.8543 59.7131 69.8292 59.7131 69.8038C59.7131 69.7783 59.7195 69.7532 59.7316 69.7307C59.7378 69.7198 59.7464 69.7104 59.7568 69.7033C59.7672 69.6962 59.7792 69.6915 59.7917 69.6896C59.9375 69.6863 60.0814 69.6569 60.2166 69.6029C60.2536 69.5852 60.2866 69.5604 60.3136 69.5298C60.3405 69.4992 60.361 69.4635 60.3737 69.4249C60.403 69.2977 60.4154 69.1673 60.4106 69.037V66.6682C60.4114 66.6626 60.4109 66.6569 60.409 66.6516C60.4072 66.6463 60.4042 66.6415 60.4002 66.6375C60.3961 66.6335 60.3912 66.6305 60.3858 66.6287C60.3805 66.6269 60.3747 66.6264 60.3691 66.6271C60.3275 66.6271 60.3044 66.6271 60.2952 66.6682L59.3713 68.8316C59.2928 69.0187 59.1681 69.361 58.9972 69.854C58.9972 69.8813 58.9556 69.895 58.9048 69.895C58.854 69.895 58.8124 69.895 58.8031 69.854L57.3342 66.6362C57.3257 66.6318 57.3162 66.6295 57.3065 66.6295C57.2969 66.6295 57.2873 66.6318 57.2788 66.6362C57.2788 66.6362 57.2465 66.6362 57.2465 66.6819V69.0598C57.2423 69.1798 57.2563 69.2998 57.288 69.4158C57.3024 69.4866 57.3385 69.5513 57.3914 69.6011C57.4443 69.6509 57.5114 69.6834 57.5837 69.6942C57.6576 69.6942 57.7453 69.7262 57.8423 69.7399C57.9393 69.7535 57.907 69.7809 57.907 69.8448C57.907 69.9087 57.907 69.9452 57.8377 69.9452C57.7332 69.9536 57.6281 69.9536 57.5236 69.9452C57.389 69.9256 57.2531 69.9164 57.1171 69.9179C56.9719 69.9167 56.8268 69.9258 56.6829 69.9452C56.5768 69.9527 56.4703 69.9527 56.3642 69.9452C56.3528 69.9456 56.3416 69.9429 56.3318 69.9372C56.322 69.9315 56.314 69.9232 56.3087 69.9133C56.3026 69.8878 56.3026 69.8612 56.3087 69.8357C56.3087 69.7764 56.3365 69.7444 56.3873 69.7399C56.4805 69.7299 56.573 69.7146 56.6644 69.6942C56.7337 69.6852 56.7984 69.6549 56.8492 69.6075C56.8978 69.553 56.9312 69.4869 56.9462 69.4158C56.9675 69.2983 56.9768 69.1791 56.9739 69.0598L56.9416 66.3715Z" fill="#E20613"/>
<path d="M63.6395 68.3797C63.5946 68.3765 63.5497 68.386 63.5102 68.4071C63.4777 68.4333 63.4537 68.4682 63.4409 68.5075L63.1499 69.2606C63.1313 69.3076 63.1189 69.3566 63.1129 69.4067C63.1129 69.5847 63.2838 69.6851 63.621 69.7079C63.6764 69.7079 63.7042 69.7444 63.7042 69.8129C63.7042 69.8813 63.6764 69.9224 63.621 69.9224C63.5025 69.9285 63.3838 69.9285 63.2653 69.9224C63.0944 69.9224 62.9651 69.895 62.8819 69.895C62.7735 69.8948 62.6653 69.9039 62.5586 69.9224C62.4464 69.9321 62.3336 69.9321 62.2214 69.9224C62.209 69.9222 62.1969 69.9187 62.1863 69.9123C62.1757 69.9059 62.1671 69.8967 62.1613 69.8859C62.1539 69.859 62.1539 69.8306 62.1613 69.8038C62.1594 69.7926 62.1598 69.7812 62.1625 69.7702C62.1652 69.7592 62.1702 69.7489 62.1771 69.7399C62.184 69.7309 62.1928 69.7234 62.2028 69.7179C62.2128 69.7124 62.2238 69.709 62.2352 69.7079H62.3322C62.4635 69.6868 62.5855 69.6281 62.6833 69.539C62.7865 69.4175 62.8664 69.2782 62.9189 69.1283L64.3832 65.477C64.3832 65.445 64.4294 65.4267 64.4848 65.4267C64.5373 65.425 64.5884 65.443 64.628 65.477C65.2439 67.0409 65.7382 68.2687 66.1108 69.1602C66.1474 69.2605 66.1971 69.3556 66.2586 69.4432C66.2968 69.5042 66.3471 69.557 66.4064 69.5984C66.4536 69.6323 66.5069 69.6571 66.5635 69.6714L66.7298 69.7079C66.776 69.7079 66.8037 69.7535 66.8037 69.822C66.8037 69.8905 66.7806 69.9224 66.7344 69.9224C66.6021 69.9316 66.4694 69.9316 66.3371 69.9224C66.1948 69.903 66.0512 69.8939 65.9075 69.895C65.7362 69.8944 65.565 69.9036 65.3948 69.9224C65.241 69.9315 65.0867 69.9315 64.9329 69.9224C64.9196 69.923 64.9064 69.9203 64.8943 69.9148C64.8822 69.9092 64.8717 69.9009 64.8636 69.8905C64.8563 69.8636 64.8563 69.8352 64.8636 69.8083C64.8623 69.796 64.8636 69.7835 64.8674 69.7716C64.8712 69.7598 64.8774 69.7488 64.8856 69.7394C64.8938 69.73 64.9039 69.7224 64.9152 69.717C64.9265 69.7115 64.9388 69.7085 64.9514 69.7079C65.0666 69.702 65.1795 69.6741 65.2839 69.6258C65.3163 69.6026 65.3419 69.5714 65.3581 69.5354C65.3744 69.4993 65.3806 69.4596 65.3763 69.4204C65.3695 69.3047 65.3445 69.1908 65.3024 69.0826C65.2531 68.9366 65.1792 68.7449 65.0807 68.5075C65.074 68.4851 65.0628 68.4642 65.0477 68.4462C65.0326 68.4281 65.014 68.4133 64.9929 68.4026C64.9346 68.3851 64.8737 68.3773 64.8128 68.3797H63.6395ZM64.7527 68.1287C64.8451 68.1287 64.8913 68.1059 64.8913 68.0602V67.9964L64.3231 66.4993C64.3199 66.4889 64.3131 66.4799 64.3037 66.474C64.2944 66.4682 64.2833 66.4658 64.2723 66.4674C64.2615 66.4666 64.2508 66.4694 64.2416 66.4751C64.2325 66.4808 64.2254 66.4893 64.2215 66.4993L63.621 68.0055C63.6162 68.0296 63.6162 68.0544 63.621 68.0785C63.621 68.1196 63.658 68.1378 63.7319 68.1378L64.7527 68.1287Z" fill="#E20613"/>
<path d="M69.7508 66.6682C69.7584 66.4894 69.7365 66.3106 69.6861 66.1388C69.6525 66.0331 69.5843 65.9416 69.4921 65.8786C69.3767 65.8134 69.2462 65.7789 69.1133 65.7782C69.0625 65.7782 69.0348 65.7462 69.0348 65.6778C69.028 65.6554 69.028 65.6316 69.0348 65.6093C69.0402 65.5981 69.0487 65.5887 69.0593 65.5823C69.07 65.5758 69.0823 65.5725 69.0949 65.5728C69.238 65.5728 69.3674 65.5728 69.4875 65.5728C69.6076 65.5728 69.7415 65.5728 69.8986 65.5728C70.0557 65.5728 70.2497 65.5728 70.4206 65.5728C70.5915 65.5728 70.767 65.5728 70.9472 65.5728C71.3837 65.5686 71.8148 65.6689 72.2036 65.8649C72.5663 66.0448 72.8692 66.3236 73.0766 66.6682C73.2861 67.0125 73.3948 67.4075 73.3908 67.8092C73.4024 68.2057 73.3067 68.598 73.1136 68.9457C72.9305 69.2636 72.6532 69.5185 72.3191 69.6759C71.941 69.8464 71.529 69.9306 71.1135 69.9224C70.9195 69.9224 70.7301 69.9224 70.5453 69.9224C70.3811 69.9051 70.2161 69.8959 70.051 69.895C69.8201 69.895 69.5891 69.895 69.3812 69.927L69.1318 69.9544C69.1204 69.9527 69.1096 69.9485 69.1 69.9422C69.0904 69.9359 69.0823 69.9276 69.0764 69.9178C69.0612 69.8948 69.0532 69.8678 69.0533 69.8403C69.052 69.8275 69.0534 69.8147 69.0575 69.8025C69.0615 69.7904 69.0681 69.7792 69.0768 69.7697C69.0856 69.7603 69.0962 69.7527 69.108 69.7476C69.1199 69.7424 69.1327 69.7398 69.1457 69.7398C69.2734 69.7258 69.3981 69.6919 69.5152 69.6394C69.5881 69.6009 69.6465 69.54 69.6815 69.466C69.719 69.3637 69.7362 69.2552 69.7323 69.1465L69.7508 66.6682ZM70.4529 68.6855C70.4435 68.8985 70.4622 69.1117 70.5083 69.3199C70.5205 69.3719 70.5443 69.4206 70.5778 69.4624C70.6114 69.5043 70.6539 69.5382 70.7023 69.5618C70.8825 69.6196 71.0723 69.6429 71.2613 69.6303C71.4518 69.6356 71.6405 69.5926 71.8094 69.5056C71.9784 69.4185 72.122 69.2902 72.2267 69.1328C72.4822 68.7374 72.6065 68.2732 72.5824 67.8047C72.632 67.2708 72.4659 66.7393 72.1205 66.3259C71.9226 66.1596 71.6934 66.0336 71.446 65.9553C71.1987 65.877 70.9381 65.8478 70.6793 65.8695C70.6156 65.8633 70.5519 65.8795 70.4991 65.9151C70.4604 65.9627 70.4422 66.0233 70.4483 66.084L70.4529 68.6855Z" fill="#E20613"/>
<path d="M77.1416 65.5956C77.1767 65.5896 77.2127 65.5896 77.2478 65.5956C77.2478 65.5956 77.2802 65.6276 77.2802 65.6641V65.7234C77.2732 65.8009 77.2732 65.8787 77.2802 65.9562V66.0612V66.5952C77.2804 66.6047 77.2773 66.6139 77.2714 66.6214C77.2655 66.6289 77.2572 66.6341 77.2478 66.6362C77.2249 66.6406 77.2014 66.6406 77.1785 66.6362C77.1185 66.6362 77.0862 66.6362 77.0769 66.5815C77.0522 66.4253 77.0104 66.2723 76.9522 66.1251C76.915 66.0457 76.8514 65.9813 76.772 65.9425C76.6092 65.8922 76.4391 65.869 76.2685 65.874H75.8805C75.7459 65.8663 75.6109 65.8755 75.4786 65.9014C75.4565 65.9097 75.4364 65.9225 75.4197 65.939C75.403 65.9555 75.39 65.9754 75.3816 65.9973C75.3571 66.0988 75.3478 66.2034 75.3539 66.3076V67.4258C75.3539 67.5171 75.3863 67.5582 75.4509 67.5582C75.6273 67.5643 75.8038 67.5521 75.9775 67.5217C76.0728 67.5079 76.1607 67.4629 76.227 67.3939C76.3002 67.2706 76.34 67.1307 76.3425 66.9877C76.3425 66.942 76.3933 66.9192 76.4626 66.9192C76.5318 66.9192 76.5596 66.9192 76.5596 66.9877C76.5596 67.0561 76.5596 67.1885 76.5596 67.3254C76.5596 67.4623 76.5596 67.5902 76.5596 67.6951C76.5518 67.8106 76.5518 67.9265 76.5596 68.042C76.5686 68.1696 76.5686 68.2977 76.5596 68.4254C76.5596 68.4665 76.5226 68.4893 76.4579 68.4893C76.3933 68.4893 76.3517 68.4665 76.3425 68.4254C76.3384 68.2765 76.3021 68.1303 76.2362 67.9964C76.173 67.9251 76.0862 67.8782 75.9914 67.864C75.8128 67.8354 75.6318 67.8232 75.4509 67.8275C75.3863 67.8275 75.3539 67.8686 75.3539 67.9461V68.7814C75.3414 68.9796 75.3617 69.1784 75.414 69.3702C75.4333 69.4185 75.4632 69.4619 75.5015 69.4974C75.5399 69.5329 75.5857 69.5596 75.6357 69.5755C75.8369 69.6222 76.0437 69.6406 76.2501 69.6303C76.418 69.6403 76.5865 69.6234 76.7489 69.5801C76.907 69.5367 77.0475 69.4458 77.1508 69.32C77.2409 69.1698 77.2947 69.0011 77.3079 68.827C77.3079 68.7814 77.3541 68.7631 77.428 68.7631C77.4554 68.758 77.4837 68.758 77.5111 68.7631C77.5342 68.7631 77.5481 68.7905 77.5481 68.8088L77.488 69.3017C77.488 69.4386 77.4649 69.5755 77.4649 69.7033V69.7946C77.4655 69.8088 77.4618 69.8228 77.4544 69.835C77.4471 69.8471 77.4363 69.8569 77.4234 69.8631C77.3902 69.8786 77.3538 69.8864 77.3171 69.8859H74.9705C74.7488 69.8859 74.4439 69.8859 74.0467 69.9224C74.0347 69.9231 74.0227 69.9205 74.012 69.9149C74.0014 69.9093 73.9926 69.9008 73.9866 69.8905C73.9778 69.8653 73.9778 69.838 73.9866 69.8129C73.9866 69.7535 73.9866 69.717 74.0652 69.7079C74.2338 69.7037 74.3963 69.6443 74.5271 69.539C74.6238 69.421 74.6702 69.2704 74.6564 69.1191V66.6591C74.665 66.4791 74.6447 66.2988 74.5964 66.1251C74.5732 66.0244 74.512 65.9363 74.4255 65.8786C74.299 65.8161 74.1603 65.7818 74.019 65.7782C73.9728 65.7782 73.9497 65.7462 73.9497 65.6823C73.9422 65.6586 73.9422 65.6331 73.9497 65.6093C73.9534 65.5989 73.9603 65.5898 73.9693 65.5833C73.9784 65.5767 73.9893 65.5731 74.0005 65.5728L74.8042 65.5956H77.1416Z" fill="#E20613"/>
<path d="M82.2228 65.4678C82.58 65.4735 82.931 65.561 83.2482 65.7234L83.3776 65.7828C83.4108 65.7988 83.4469 65.8081 83.4838 65.8101C83.5531 65.8101 83.5993 65.7691 83.6178 65.6869C83.6363 65.6048 83.6594 65.6413 83.7194 65.6413C83.7795 65.6413 83.8164 65.6413 83.8164 65.6869C83.7821 65.8288 83.7665 65.9746 83.7702 66.1205C83.7703 66.2397 83.7795 66.3587 83.7979 66.4765C83.7979 66.5997 83.8303 66.723 83.8487 66.8462C83.8482 66.8567 83.8443 66.8667 83.8377 66.8749C83.8311 66.8831 83.822 66.889 83.8118 66.8918C83.7846 66.8992 83.7559 66.8992 83.7286 66.8918C83.664 66.8918 83.627 66.8736 83.6178 66.8371C83.5567 66.5109 83.3778 66.2178 83.1144 66.0121C82.8511 65.8065 82.5211 65.7023 82.1858 65.7189C81.9815 65.7116 81.7785 65.7534 81.5942 65.8409C81.4099 65.9284 81.2499 66.0588 81.128 66.2209C80.8454 66.6394 80.7106 67.1384 80.7446 67.6403C80.7374 67.9961 80.7953 68.3502 80.9155 68.6855C81.0174 68.9635 81.1928 69.2094 81.4236 69.3975C81.6478 69.5695 81.9252 69.6597 82.2089 69.6531C82.4636 69.6653 82.7181 69.6264 82.9572 69.539C83.1505 69.4504 83.3117 69.3055 83.4192 69.1237C83.5606 68.8938 83.6518 68.6373 83.6871 68.3706C83.6876 68.3612 83.6901 68.352 83.6945 68.3436C83.6988 68.3351 83.7048 68.3277 83.7122 68.3217C83.7196 68.3157 83.7281 68.3113 83.7373 68.3087C83.7465 68.3061 83.7561 68.3054 83.7656 68.3067C83.7985 68.3066 83.8306 68.3162 83.858 68.3341C83.8857 68.3341 83.8996 68.3706 83.8996 68.3843C83.8797 68.5509 83.8704 68.7186 83.8718 68.8864C83.8718 69.0005 83.8718 69.3108 83.918 69.7992C83.9188 69.8111 83.9161 69.8229 83.9104 69.8334C83.9047 69.8439 83.8961 69.8526 83.8857 69.8585C83.863 69.8647 83.8391 69.8647 83.8164 69.8585C83.761 69.8585 83.7286 69.8585 83.7194 69.7992C83.7085 69.734 83.6779 69.6735 83.6316 69.6257C83.5891 69.5859 83.5332 69.5631 83.4746 69.5618C83.4205 69.5632 83.3679 69.579 83.3222 69.6075C83.1542 69.7026 82.9739 69.7748 82.7863 69.822C82.5847 69.8662 82.3784 69.8862 82.172 69.8813C81.8694 69.9244 81.5609 69.8979 81.2705 69.8039C80.98 69.7099 80.7154 69.551 80.4973 69.3394C80.2792 69.1279 80.1134 68.8694 80.0129 68.5842C79.9124 68.299 79.8798 67.9948 79.9178 67.6951C79.909 67.2688 80.0074 66.8469 80.2042 66.4674C80.3854 66.1263 80.6673 65.8477 81.0125 65.6687C81.3934 65.5054 81.8088 65.4364 82.2228 65.4678Z" fill="#E20613"/>
<path d="M88.6204 68.1972C88.6602 68.682 88.5078 69.1631 88.1955 69.539C88.0195 69.6948 87.8132 69.8136 87.5893 69.8882C87.3653 69.9627 87.1284 69.9915 86.8928 69.9726C86.4112 70.0163 85.9307 69.8777 85.5486 69.5847C85.3962 69.4165 85.2806 69.219 85.209 69.0046C85.1375 68.7902 85.1116 68.5634 85.1329 68.3387V66.5495C85.1408 66.3957 85.1237 66.2416 85.0821 66.0931C85.0489 66.0006 84.9834 65.9229 84.8973 65.874C84.7795 65.8212 84.6524 65.7918 84.5232 65.7873C84.5111 65.788 84.4991 65.7854 84.4885 65.7798C84.4779 65.7742 84.4691 65.7657 84.4631 65.7554C84.4562 65.73 84.4562 65.7032 84.4631 65.6778C84.4568 65.6554 84.4568 65.6317 84.4631 65.6093C84.4698 65.5996 84.4787 65.5916 84.4892 65.5861C84.4996 65.5805 84.5113 65.5775 84.5232 65.5774C84.6571 65.5774 84.8142 65.5774 84.9851 65.6002C85.156 65.623 85.3269 65.623 85.484 65.623C85.641 65.623 85.7981 65.623 85.9736 65.6002C86.1491 65.5774 86.3062 65.5774 86.4355 65.5774C86.4817 65.5774 86.5048 65.6093 86.5048 65.6687C86.5036 65.6974 86.4957 65.7255 86.4817 65.7508C86.4767 65.7613 86.4689 65.7702 86.4591 65.7767C86.4494 65.7831 86.438 65.7868 86.4263 65.7873C86.2944 65.7907 86.1644 65.8186 86.0429 65.8695C85.961 65.9101 85.8981 65.9804 85.8674 66.0657C85.8235 66.2247 85.8063 66.3897 85.8165 66.5541V68.3021C85.7983 68.6539 85.9117 69 86.1353 69.2743C86.2405 69.3936 86.3715 69.4879 86.5186 69.5503C86.6658 69.6127 86.8252 69.6416 86.9852 69.6349C87.1599 69.6463 87.3351 69.6217 87.4996 69.5628C87.6642 69.5039 87.8147 69.4119 87.9414 69.2926C88.1873 68.987 88.3047 68.5997 88.2694 68.2109V66.8781C88.2694 66.6956 88.2694 66.5221 88.2694 66.3578C88.265 66.2213 88.2353 66.0867 88.1816 65.9608C88.1621 65.914 88.1287 65.8741 88.0858 65.8464C88.0429 65.8187 87.9926 65.8045 87.9414 65.8056H87.7474C87.7367 65.8056 87.7262 65.8027 87.7172 65.797C87.7082 65.7913 87.701 65.7832 87.6966 65.7736C87.6918 65.748 87.6918 65.7217 87.6966 65.696C87.6966 65.6321 87.6966 65.5956 87.7659 65.5956C87.8756 65.5969 87.9851 65.6045 88.0938 65.6184C88.2119 65.6329 88.3306 65.6405 88.4495 65.6413C88.5623 65.6404 88.6749 65.6328 88.7867 65.6184C88.9109 65.6032 89.0358 65.5955 89.1609 65.5956C89.1727 65.5961 89.1842 65.5993 89.1946 65.6048C89.205 65.6103 89.214 65.6181 89.2209 65.6276C89.2272 65.65 89.2272 65.6736 89.2209 65.696C89.2278 65.7215 89.2278 65.7482 89.2209 65.7736C89.2146 65.7836 89.2057 65.7918 89.1952 65.7974C89.1846 65.803 89.1728 65.8058 89.1609 65.8056H88.9761C88.925 65.8036 88.8752 65.8217 88.8375 65.8558C88.7883 65.9032 88.7505 65.9609 88.7267 66.0247C88.6842 66.1218 88.6577 66.225 88.6482 66.3304C88.6396 66.4825 88.6396 66.6348 88.6482 66.7869V68.2154L88.6204 68.1972Z" fill="#E20613"/>
<path d="M90.4266 66.6682C90.4334 66.487 90.4148 66.3057 90.3711 66.1296C90.3445 66.0268 90.2824 65.9365 90.1956 65.874C90.0698 65.8148 89.933 65.7822 89.7937 65.7782C89.7383 65.7782 89.7152 65.7462 89.7152 65.6778C89.7084 65.6554 89.7084 65.6316 89.7152 65.6093C89.7206 65.5981 89.7291 65.5887 89.7397 65.5822C89.7504 65.5758 89.7627 65.5725 89.7753 65.5728C89.9185 65.5728 90.0478 65.5728 90.1679 65.5728C90.288 65.5728 90.4219 65.5728 90.579 65.5728L91.7061 65.5454C92.0714 65.526 92.4322 65.6325 92.727 65.8466C92.8519 65.9458 92.9514 66.0727 93.0172 66.2171C93.083 66.3614 93.1134 66.5191 93.1057 66.6773C93.1147 66.9437 93.0185 67.2031 92.8375 67.4007C92.6565 67.5982 92.4048 67.7186 92.1357 67.7362C92.1034 67.7362 92.0895 67.759 92.0895 67.7773C92.0895 67.7955 92.0895 67.8183 92.1357 67.8366C92.3618 67.9418 92.5596 68.0981 92.7131 68.293C92.8693 68.5231 92.9704 68.7853 93.0087 69.0598C93.0288 69.1835 93.0581 69.3055 93.0965 69.4249C93.1167 69.4766 93.1501 69.5222 93.1935 69.5573C93.2317 69.5837 93.2764 69.5995 93.3228 69.6029C93.3798 69.6005 93.434 69.5778 93.4753 69.539C93.5288 69.4867 93.5657 69.4201 93.5815 69.3473C93.5839 69.3251 93.5948 69.3047 93.612 69.2902C93.6292 69.2758 93.6514 69.2684 93.6739 69.2697C93.7062 69.2692 93.7375 69.2806 93.7617 69.3017C93.7716 69.3085 93.7801 69.3173 93.7864 69.3275C93.7928 69.3377 93.7969 69.3491 93.7986 69.361C93.792 69.4487 93.7678 69.5343 93.7273 69.6127C93.6869 69.691 93.631 69.7606 93.563 69.8174C93.4205 69.93 93.2419 69.9883 93.0595 69.9817C92.9362 69.9868 92.8136 69.9601 92.7039 69.9041C92.6116 69.8581 92.5346 69.7868 92.4821 69.6988C92.387 69.4349 92.3098 69.165 92.2512 68.8909L92.1957 68.6673C92.143 68.4498 92.0384 68.248 91.8909 68.0785C91.7495 67.9562 91.5659 67.8924 91.3781 67.9005C91.2026 67.9005 91.1148 67.9735 91.1148 68.1241V68.9868C91.1078 69.1207 91.1299 69.2545 91.1795 69.3793C91.2206 69.4727 91.2922 69.5498 91.3828 69.5984C91.5294 69.6578 91.6862 69.6888 91.8447 69.6896C91.857 69.6903 91.8689 69.694 91.8794 69.7004C91.8899 69.7067 91.8986 69.7156 91.9047 69.7261C91.9169 69.7486 91.9232 69.7737 91.9232 69.7992C91.9232 69.8246 91.9169 69.8497 91.9047 69.8722C91.8969 69.8829 91.8864 69.8915 91.8743 69.8971C91.8622 69.9027 91.8488 69.9051 91.8354 69.9041C91.683 69.9041 91.4936 69.9041 91.2673 69.9041C91.0409 69.9041 90.8839 69.8768 90.8053 69.8768C90.651 69.8776 90.4968 69.8868 90.3434 69.9041C90.1896 69.9129 90.0353 69.9129 89.8815 69.9041C89.8701 69.9045 89.8589 69.9018 89.8491 69.8961C89.8393 69.8904 89.8313 69.8822 89.8261 69.8722C89.8109 69.8491 89.8029 69.8221 89.803 69.7946C89.8002 69.7705 89.8068 69.7463 89.8214 69.7269C89.8359 69.7074 89.8574 69.6941 89.8815 69.6896C90.0167 69.6849 90.1498 69.6555 90.2741 69.6029C90.347 69.5627 90.4028 69.4979 90.4312 69.4204C90.4642 69.2984 90.4782 69.1722 90.4728 69.0461L90.4266 66.6682ZM91.1333 67.4304C91.1333 67.5399 91.161 67.6038 91.2257 67.6221C91.3179 67.6439 91.4127 67.6531 91.5075 67.6495C91.7562 67.6756 92.0053 67.6034 92.2004 67.4486C92.3517 67.238 92.4191 66.9796 92.3897 66.723C92.415 66.4815 92.3492 66.2394 92.205 66.0429C92.1142 65.9672 92.0089 65.9104 91.8954 65.8759C91.7819 65.8414 91.6625 65.8299 91.5444 65.8421C91.4297 65.8314 91.3142 65.8536 91.2118 65.906C91.1817 65.9419 91.1592 65.9834 91.1458 66.0281C91.1323 66.0728 91.128 66.1198 91.1333 66.1661V67.4304Z" fill="#E20613"/>
<path d="M94.9488 66.4354C94.9451 66.5827 94.9942 66.7266 95.0874 66.8416C95.2025 66.9721 95.3485 67.0725 95.5124 67.1337C95.8386 67.2667 96.1564 67.4191 96.4639 67.5901C96.6169 67.6841 96.7541 67.8012 96.8704 67.937C96.9654 68.0483 97.0404 68.1749 97.0921 68.3113C97.1412 68.4585 97.1646 68.6128 97.1614 68.7677C97.1688 68.9994 97.099 69.2271 96.9628 69.4158C96.8198 69.6005 96.628 69.7426 96.4085 69.8266C96.1526 69.9253 95.8795 69.9734 95.6047 69.9681C95.4675 69.9657 95.3311 69.9473 95.1983 69.9133C95.0536 69.8793 94.915 69.8239 94.7871 69.749L94.7225 69.7262C94.6982 69.7205 94.6729 69.7205 94.6486 69.7262C94.57 69.7262 94.5054 69.7855 94.4592 69.8996C94.4506 69.9187 94.4362 69.9347 94.418 69.9453C94.3998 69.956 94.3786 69.9607 94.3576 69.9589C94.335 69.9657 94.3109 69.9657 94.2883 69.9589C94.28 69.9533 94.2732 69.9458 94.2684 69.9371C94.2636 69.9283 94.2609 69.9186 94.2605 69.9087C94.293 69.6988 94.31 69.4867 94.3114 69.2743C94.3122 69.0485 94.2983 68.8229 94.2698 68.5988C94.2704 68.5883 94.2732 68.578 94.2779 68.5686C94.2827 68.5592 94.2894 68.5508 94.2975 68.544C94.3227 68.5341 94.3508 68.5341 94.376 68.544C94.4361 68.544 94.473 68.5441 94.4776 68.6125C94.5197 68.9325 94.6656 69.2303 94.8934 69.4614C94.995 69.5604 95.1156 69.6384 95.248 69.6909C95.3804 69.7434 95.5221 69.7693 95.6648 69.7672C95.8908 69.7751 96.1127 69.7058 96.293 69.571C96.3743 69.5077 96.4392 69.4264 96.4826 69.3335C96.5259 69.2407 96.5464 69.1391 96.5425 69.037C96.5455 68.8971 96.5121 68.7588 96.4454 68.6353C96.379 68.5239 96.2947 68.4237 96.196 68.3387C96.0935 68.2552 95.982 68.1833 95.8634 68.1242L95.5216 67.9507L95.092 67.7545C94.9557 67.6885 94.8284 67.6057 94.7132 67.508C94.6014 67.4119 94.5089 67.2957 94.4407 67.1657C94.3671 67.007 94.3323 66.8335 94.3391 66.6591C94.3321 66.5035 94.3643 66.3487 94.4328 66.2085C94.5014 66.0683 94.6041 65.9471 94.7317 65.8558C95.053 65.6474 95.4335 65.5466 95.8172 65.5682C95.9209 65.5674 96.0244 65.5751 96.1267 65.5911C96.2221 65.6096 96.3162 65.634 96.4085 65.6641C96.4871 65.6944 96.5694 65.7144 96.6533 65.7234C96.676 65.7242 96.6985 65.7186 96.7181 65.7073C96.7377 65.696 96.7537 65.6794 96.7642 65.6595C96.7744 65.6437 96.7889 65.6311 96.8061 65.623C96.8232 65.6149 96.8423 65.6118 96.8612 65.6139H96.9259C96.9259 65.6139 96.9582 65.6139 96.9582 65.6504C96.9181 65.7992 96.8994 65.9529 96.9028 66.1068C96.9025 66.2077 96.9102 66.3084 96.9259 66.408C96.9259 66.4993 96.9259 66.6043 96.9582 66.7275C96.9582 66.7275 96.9582 66.7549 96.9259 66.764C96.9016 66.7702 96.8762 66.7702 96.8519 66.764C96.8011 66.764 96.7734 66.764 96.7642 66.7093C96.7254 66.5079 96.6586 66.3128 96.5656 66.1296C96.4982 66.0124 96.3946 65.9196 96.2699 65.8649C96.1034 65.8027 95.9258 65.7747 95.7479 65.7828C95.538 65.7724 95.3314 65.8372 95.1659 65.9653C95.0962 66.0224 95.0404 66.0944 95.0028 66.1758C94.9653 66.2572 94.9468 66.346 94.9488 66.4354Z" fill="#E20613"/>
<path d="M100.012 69.9498C99.7207 69.966 99.4295 69.9237 99.1556 69.8257C98.8817 69.7276 98.6308 69.5758 98.4179 69.3793C98.2115 69.149 98.0544 68.8799 97.956 68.5882C97.8576 68.2964 97.8199 67.988 97.8451 67.6814C97.8392 67.2841 97.9345 66.8917 98.1223 66.5404C98.2981 66.2073 98.5676 65.9315 98.8983 65.7462C99.2448 65.5648 99.6309 65.4699 100.023 65.4699C100.415 65.4699 100.801 65.5648 101.148 65.7462C101.472 65.9252 101.736 66.1952 101.905 66.5221C102.091 66.8757 102.185 67.2694 102.178 67.6677C102.187 68.0858 102.092 68.4995 101.901 68.8727C101.73 69.2087 101.461 69.4867 101.129 69.6714C100.788 69.8596 100.402 69.9556 100.012 69.9498ZM100.035 69.6805C100.29 69.683 100.536 69.5882 100.723 69.4158C100.935 69.2191 101.094 68.9727 101.185 68.6992C101.293 68.3817 101.346 68.0484 101.342 67.7134C101.349 67.3561 101.297 67.0001 101.189 66.6591C101.106 66.3913 100.946 66.1533 100.728 65.9744C100.521 65.8113 100.262 65.7257 99.9977 65.7325C99.7363 65.7291 99.4824 65.8181 99.2817 65.9836C99.0671 66.1749 98.9078 66.419 98.8198 66.691C98.7064 67.0184 98.6517 67.3628 98.6581 67.7088C98.6217 68.224 98.7441 68.738 99.0091 69.183C99.1221 69.3464 99.2759 69.4781 99.4556 69.5652C99.6353 69.6524 99.8348 69.6921 100.035 69.6805Z" fill="#E20613"/>
<path d="M103.494 66.4354C103.491 66.5827 103.54 66.7266 103.633 66.8416C103.75 66.9722 103.897 67.0725 104.063 67.1337C104.388 67.2677 104.706 67.4201 105.014 67.5901C105.167 67.6841 105.304 67.8012 105.421 67.937C105.516 68.0483 105.591 68.1749 105.642 68.3113C105.691 68.4584 105.715 68.6128 105.712 68.7677C105.719 68.9994 105.649 69.2271 105.513 69.4158C105.37 69.6005 105.178 69.7426 104.959 69.8266C104.703 69.9253 104.43 69.9734 104.155 69.9681C104.018 69.966 103.881 69.9476 103.748 69.9133C103.604 69.8801 103.465 69.8247 103.337 69.749L103.273 69.7262C103.248 69.721 103.223 69.721 103.199 69.7262C103.116 69.7262 103.056 69.7855 103.009 69.8996C103.001 69.9187 102.986 69.9347 102.968 69.9453C102.95 69.956 102.929 69.9607 102.908 69.9589C102.885 69.9662 102.861 69.9662 102.839 69.9589C102.83 69.9533 102.823 69.9458 102.819 69.9371C102.814 69.9283 102.811 69.9186 102.811 69.9087C102.841 69.6985 102.858 69.4866 102.862 69.2743C102.863 69.0483 102.848 68.8225 102.815 68.5988C102.819 68.5772 102.83 68.5576 102.848 68.544C102.873 68.5341 102.901 68.5341 102.926 68.544C102.986 68.544 103.019 68.5441 103.028 68.6125C103.068 68.932 103.213 69.2299 103.439 69.4614C103.542 69.5603 103.663 69.6382 103.796 69.6907C103.929 69.7432 104.072 69.7692 104.215 69.7672C104.441 69.7751 104.663 69.7058 104.843 69.571C104.925 69.5077 104.989 69.4264 105.033 69.3335C105.076 69.2407 105.097 69.1391 105.093 69.037C105.096 68.8964 105.061 68.7576 104.991 68.6353C104.928 68.5218 104.843 68.4212 104.742 68.3387C104.642 68.2542 104.531 68.1822 104.414 68.1242L104.072 67.9507L103.642 67.7545C103.505 67.6896 103.378 67.6067 103.263 67.508C103.15 67.3887 103.064 67.2472 103.009 67.0927C102.934 66.9344 102.898 66.7608 102.903 66.586C102.897 66.4301 102.93 66.2752 103 66.135C103.069 65.9949 103.172 65.8738 103.3 65.7828C103.622 65.5744 104.002 65.4736 104.386 65.4952C104.49 65.4944 104.593 65.502 104.695 65.518C104.791 65.5366 104.885 65.561 104.977 65.5911C105.056 65.6218 105.138 65.6418 105.222 65.6504C105.244 65.6521 105.267 65.6469 105.286 65.6354C105.305 65.6239 105.32 65.6068 105.328 65.5865C105.34 65.571 105.355 65.5587 105.373 65.5507C105.391 65.5428 105.41 65.5394 105.43 65.5409H105.495C105.495 65.5409 105.527 65.5409 105.527 65.5774C105.487 65.7262 105.468 65.8798 105.471 66.0338C105.471 66.1346 105.479 66.2354 105.495 66.335C105.495 66.4263 105.495 66.5313 105.527 66.6545C105.527 66.6545 105.527 66.6819 105.49 66.691C105.467 66.6972 105.443 66.6972 105.421 66.691C105.37 66.691 105.338 66.691 105.328 66.6362C105.291 66.4352 105.225 66.2401 105.134 66.0566C105.067 65.9394 104.963 65.8466 104.839 65.7919C104.672 65.7302 104.494 65.7022 104.317 65.7097C104.107 65.6994 103.9 65.7642 103.735 65.8923C103.649 65.9534 103.582 66.036 103.54 66.1315C103.497 66.227 103.482 66.332 103.494 66.4354Z" fill="#E20613"/>
<path d="M110.4 69.9498C110.109 69.966 109.818 69.9237 109.544 69.8257C109.27 69.7276 109.019 69.5758 108.807 69.3793C108.602 69.1478 108.446 68.8785 108.348 68.587C108.25 68.2956 108.211 67.9878 108.234 67.6814C108.228 67.2841 108.323 66.8917 108.511 66.5404C108.687 66.2073 108.956 65.9315 109.287 65.7462C109.633 65.5648 110.02 65.4699 110.412 65.4699C110.804 65.4699 111.19 65.5648 111.537 65.7462C111.861 65.9264 112.126 66.196 112.299 66.5221C112.483 66.8761 112.575 67.2698 112.567 67.6677C112.575 68.0852 112.481 68.4984 112.294 68.8727C112.122 69.2077 111.853 69.4854 111.523 69.6714C111.18 69.8601 110.793 69.9562 110.4 69.9498ZM110.4 69.6805C110.657 69.6823 110.904 69.5877 111.093 69.4158C111.306 69.2194 111.465 68.9728 111.555 68.6992C111.665 68.382 111.719 68.0486 111.717 67.7134C111.724 67.3557 111.671 66.9993 111.56 66.6591C111.476 66.3913 111.316 66.1533 111.098 65.9744C110.901 65.815 110.655 65.7265 110.4 65.7234C110.14 65.7198 109.888 65.809 109.689 65.9744C109.474 66.1659 109.315 66.41 109.227 66.6819C109.116 67.0098 109.061 67.3539 109.065 67.6997C109.031 68.2147 109.153 68.728 109.416 69.1739C109.527 69.3376 109.679 69.4702 109.857 69.5589C110.035 69.6477 110.233 69.6895 110.433 69.6805H110.4Z" fill="#E20613"/>
<path d="M113.818 66.2894C113.822 66.2233 113.811 66.1573 113.787 66.0958C113.762 66.0343 113.724 65.9789 113.675 65.9334C113.541 65.8372 113.379 65.7846 113.213 65.7828C113.172 65.7828 113.149 65.7508 113.149 65.6778C113.149 65.6047 113.172 65.5728 113.223 65.5728H113.463H113.809C114.105 65.5728 114.271 65.6139 114.271 65.6504L116.876 68.7084C116.881 68.7108 116.887 68.712 116.893 68.712C116.898 68.712 116.904 68.7108 116.909 68.7084C116.941 68.7084 116.955 68.7084 116.955 68.6627V66.9466C116.972 66.641 116.952 66.3345 116.895 66.0338C116.879 65.9741 116.854 65.9171 116.821 65.8649C116.792 65.8279 116.754 65.7995 116.71 65.7828C116.612 65.7563 116.511 65.741 116.41 65.7371C116.368 65.7371 116.345 65.7006 116.345 65.6276C116.345 65.5545 116.368 65.5272 116.41 65.5272C116.521 65.5283 116.632 65.5359 116.742 65.55C116.863 65.55 116.983 65.55 117.103 65.55C117.223 65.55 117.325 65.55 117.435 65.55C117.559 65.5345 117.684 65.5269 117.81 65.5272C117.821 65.5277 117.833 65.5314 117.842 65.5378C117.852 65.5443 117.86 65.5532 117.865 65.5637C117.88 65.5851 117.888 65.6106 117.888 65.6367C117.888 65.6614 117.88 65.6854 117.865 65.7052C117.86 65.7151 117.852 65.7234 117.842 65.7291C117.832 65.7347 117.821 65.7375 117.81 65.7371H117.625C117.565 65.7413 117.509 65.7636 117.463 65.801C117.407 65.864 117.363 65.9367 117.334 66.0155C117.253 66.3671 117.223 66.7283 117.246 67.0881V69.854C117.246 69.854 117.246 69.8813 117.191 69.8905C117.154 69.8977 117.116 69.8977 117.08 69.8905C117.024 69.8905 116.987 69.8905 116.973 69.854L114.202 66.5952C114.182 66.5886 114.161 66.5886 114.142 66.5952C114.11 66.5952 114.096 66.5952 114.096 66.6454V68.9731C114.093 69.0928 114.105 69.2124 114.133 69.3291C114.147 69.3996 114.183 69.464 114.236 69.5132C114.289 69.5623 114.356 69.5937 114.428 69.6029C114.502 69.6029 114.59 69.6303 114.687 69.644C114.784 69.6577 114.761 69.6897 114.761 69.749C114.761 69.7751 114.753 69.8006 114.738 69.822C114.732 69.832 114.724 69.8403 114.715 69.8459C114.705 69.8516 114.694 69.8544 114.682 69.854C114.577 69.8525 114.472 69.8449 114.368 69.8311C114.233 69.8231 114.097 69.8231 113.962 69.8311C113.817 69.8232 113.672 69.8232 113.527 69.8311C113.422 69.8443 113.315 69.8519 113.209 69.854C113.197 69.8544 113.186 69.8516 113.176 69.8459C113.167 69.8403 113.159 69.832 113.153 69.822C113.147 69.7981 113.147 69.7729 113.153 69.749C113.151 69.7249 113.157 69.7007 113.172 69.6812C113.186 69.6618 113.208 69.6485 113.232 69.644C113.325 69.6353 113.417 69.6216 113.509 69.6029C113.577 69.5936 113.641 69.5651 113.694 69.5208C113.741 69.4658 113.772 69.3997 113.786 69.3291C113.812 69.2122 113.823 69.0926 113.818 68.9731V66.2894Z" fill="#E20613"/>
<path d="M119.108 66.5495C119.114 66.3954 119.095 66.2413 119.052 66.0931C119.021 66.0006 118.955 65.9236 118.867 65.8786C118.75 65.8252 118.623 65.7957 118.493 65.7919C118.442 65.7919 118.415 65.7599 118.415 65.6915C118.415 65.623 118.442 65.5819 118.493 65.5819C118.632 65.5819 118.789 65.5819 118.955 65.6048C119.121 65.6276 119.297 65.6048 119.454 65.6048H119.708L120.424 65.5728C120.47 65.5728 120.493 65.6048 120.493 65.6686C120.493 65.6961 120.485 65.7228 120.47 65.7462C120.466 65.7567 120.46 65.7658 120.451 65.7723C120.441 65.7788 120.431 65.7825 120.419 65.7828C120.286 65.7847 120.154 65.8126 120.031 65.8649C119.99 65.8857 119.953 65.9146 119.922 65.9499C119.892 65.9852 119.87 66.0261 119.856 66.0703C119.815 66.2267 119.798 66.3882 119.805 66.5495V68.7768C119.793 68.9594 119.818 69.1425 119.879 69.3154C119.906 69.3689 119.944 69.4167 119.99 69.4558C120.036 69.495 120.089 69.5248 120.147 69.5436C120.326 69.6002 120.513 69.6249 120.701 69.6166C120.882 69.6245 121.063 69.5966 121.232 69.5345C121.363 69.4742 121.472 69.3774 121.547 69.2561C121.643 69.0849 121.713 68.9002 121.754 68.7084C121.754 68.6673 121.805 68.649 121.879 68.649C121.907 68.6438 121.935 68.6438 121.962 68.649C121.985 68.649 121.995 68.6764 121.995 68.6947C121.944 69.1511 121.916 69.4843 121.916 69.6805V69.7718C121.917 69.786 121.913 69.8 121.906 69.8121C121.898 69.8243 121.887 69.8341 121.874 69.8403C121.841 69.8558 121.805 69.8636 121.768 69.8631H119.422C119.251 69.8631 119.089 69.8631 118.937 69.8631L118.475 69.8905C118.461 69.891 118.448 69.8884 118.436 69.8828C118.424 69.8773 118.414 69.8689 118.405 69.8585C118.39 69.8371 118.382 69.8116 118.382 69.7855C118.382 69.7594 118.39 69.7339 118.405 69.7125C118.413 69.7015 118.424 69.6925 118.436 69.6861C118.448 69.6798 118.461 69.6763 118.475 69.6759C118.633 69.6647 118.788 69.6309 118.937 69.5755C119.002 69.5383 119.052 69.478 119.075 69.4067C119.104 69.281 119.117 69.1521 119.112 69.0233L119.108 66.5495Z" fill="#E20613"/>
<path d="M123.186 66.5495C123.193 66.3954 123.175 66.2412 123.131 66.0931C123.099 66.0012 123.035 65.9234 122.951 65.874C122.831 65.8213 122.703 65.7919 122.572 65.7873C122.561 65.7877 122.549 65.7849 122.54 65.7793C122.53 65.7736 122.522 65.7653 122.517 65.7554C122.502 65.732 122.494 65.7052 122.493 65.6778C122.495 65.6533 122.503 65.6297 122.517 65.6093C122.522 65.6 122.531 65.5922 122.54 65.5866C122.55 65.5811 122.561 65.5779 122.572 65.5774C122.711 65.5774 122.868 65.5774 123.034 65.6002C123.2 65.623 123.38 65.6002 123.533 65.6002H123.791L124.503 65.5682C124.549 65.5682 124.572 65.6002 124.572 65.6595C124.573 65.6886 124.565 65.7173 124.549 65.7417C124.544 65.7515 124.537 65.76 124.528 65.7664C124.52 65.7728 124.509 65.7769 124.498 65.7782C124.366 65.781 124.236 65.8089 124.115 65.8603C124.073 65.8796 124.036 65.9069 124.005 65.9405C123.974 65.9742 123.95 66.0137 123.935 66.0566C123.893 66.216 123.876 66.3806 123.884 66.545V69.0507C123.878 69.1846 123.894 69.3185 123.93 69.4477C123.945 69.4862 123.967 69.5214 123.995 69.5512C124.024 69.581 124.058 69.6048 124.096 69.6212C124.23 69.6695 124.37 69.6972 124.512 69.7033C124.525 69.7052 124.536 69.7099 124.547 69.717C124.557 69.7241 124.566 69.7335 124.572 69.7444C124.587 69.7658 124.595 69.7913 124.595 69.8174C124.595 69.8435 124.587 69.869 124.572 69.8905C124.564 69.9 124.553 69.9075 124.541 69.9123C124.529 69.917 124.516 69.9189 124.503 69.9178C124.338 69.9273 124.173 69.9273 124.009 69.9178C123.855 69.8999 123.701 69.8908 123.547 69.8905C123.377 69.8906 123.207 69.8997 123.039 69.9178C122.885 69.9257 122.73 69.9257 122.577 69.9178C122.526 69.9178 122.498 69.8859 122.498 69.8174C122.498 69.749 122.526 69.7125 122.577 69.7033C122.72 69.6976 122.862 69.6699 122.997 69.6212C123.069 69.5886 123.125 69.5297 123.154 69.4569C123.188 69.3243 123.202 69.1874 123.196 69.0507L123.186 66.5495Z" fill="#E20613"/>
<path d="M125.75 66.2894C125.754 66.2233 125.743 66.1573 125.718 66.0958C125.693 66.0343 125.655 65.9789 125.607 65.9334C125.472 65.8372 125.311 65.7846 125.145 65.7828C125.099 65.7828 125.08 65.7508 125.08 65.6778C125.08 65.6047 125.103 65.5728 125.15 65.5728H125.394H125.741C126.036 65.5728 126.203 65.6139 126.203 65.6504L128.808 68.7084C128.808 68.7084 128.808 68.7084 128.84 68.7084C128.847 68.7091 128.853 68.7084 128.859 68.7064C128.865 68.7043 128.87 68.701 128.875 68.6966C128.879 68.6922 128.882 68.6869 128.884 68.681C128.887 68.6751 128.887 68.6689 128.886 68.6627V66.9466C128.904 66.641 128.884 66.3345 128.826 66.0338C128.809 65.9737 128.783 65.9167 128.748 65.8649C128.722 65.8271 128.685 65.7983 128.642 65.7828C128.544 65.7563 128.443 65.741 128.341 65.7371C128.3 65.7371 128.277 65.7006 128.277 65.6276C128.277 65.5545 128.3 65.5272 128.341 65.5272C128.453 65.5283 128.564 65.5359 128.674 65.55C128.794 65.55 128.914 65.55 129.034 65.55C129.154 65.55 129.256 65.55 129.367 65.55C129.489 65.5347 129.613 65.5271 129.736 65.5272C129.749 65.5269 129.761 65.5301 129.772 65.5366C129.783 65.5431 129.791 65.5525 129.796 65.5637C129.812 65.5851 129.82 65.6106 129.82 65.6367C129.82 65.6614 129.811 65.6854 129.796 65.7052C129.79 65.7155 129.782 65.724 129.771 65.7296C129.76 65.7352 129.748 65.7378 129.736 65.7371H129.556C129.497 65.7413 129.44 65.7636 129.395 65.801C129.338 65.864 129.295 65.9367 129.265 66.0155C129.184 66.3671 129.155 66.7283 129.177 67.0881V69.854C129.177 69.854 129.177 69.8813 129.122 69.8905C129.085 69.8971 129.048 69.8971 129.011 69.8905C128.951 69.8905 128.919 69.8905 128.905 69.854L126.133 66.5952C126.114 66.5892 126.093 66.5892 126.073 66.5952C126.041 66.5952 126.027 66.5952 126.027 66.6454V68.9731C126.024 69.0928 126.037 69.2124 126.064 69.3291C126.078 69.3996 126.114 69.464 126.167 69.5132C126.22 69.5623 126.288 69.5937 126.36 69.6029C126.434 69.6029 126.521 69.6303 126.618 69.644C126.642 69.6494 126.662 69.6632 126.676 69.6825C126.689 69.7019 126.695 69.7256 126.692 69.749C126.692 69.7751 126.684 69.8006 126.669 69.822C126.664 69.832 126.656 69.8403 126.646 69.8459C126.636 69.8516 126.625 69.8544 126.614 69.854C126.509 69.8527 126.404 69.845 126.3 69.8311C126.164 69.8232 126.029 69.8232 125.893 69.8311C125.749 69.8232 125.604 69.8232 125.459 69.8311C125.352 69.8444 125.244 69.8521 125.136 69.854C125.124 69.8544 125.113 69.8516 125.103 69.8459C125.093 69.8403 125.085 69.832 125.08 69.822C125.073 69.7981 125.073 69.7728 125.08 69.749C125.08 69.6896 125.08 69.6531 125.154 69.644C125.249 69.6356 125.343 69.6219 125.436 69.6029C125.504 69.5936 125.568 69.5651 125.621 69.5208C125.668 69.4657 125.699 69.3997 125.713 69.3291C125.739 69.2122 125.75 69.0926 125.745 68.9731L125.75 66.2894Z" fill="#E20613"/>
<path d="M133.533 65.5956C133.569 65.5896 133.605 65.5896 133.64 65.5956C133.663 65.5956 133.672 65.6276 133.672 65.6641V65.7234C133.665 65.8009 133.665 65.8787 133.672 65.9562V66.0612V66.5952C133.672 66.6047 133.669 66.6139 133.663 66.6214C133.657 66.6289 133.649 66.6341 133.64 66.6362C133.617 66.6406 133.593 66.6406 133.57 66.6362C133.51 66.6362 133.478 66.6362 133.469 66.5815C133.444 66.4253 133.402 66.2723 133.344 66.1251C133.308 66.0448 133.244 65.98 133.164 65.9425C133.001 65.8922 132.831 65.869 132.66 65.874H132.272C132.138 65.8663 132.003 65.8755 131.871 65.9014C131.848 65.9097 131.828 65.9225 131.812 65.939C131.795 65.9555 131.782 65.9754 131.774 65.9973C131.749 66.0988 131.74 66.2034 131.746 66.3076V67.4258C131.746 67.5171 131.778 67.5582 131.843 67.5582C132.019 67.5643 132.196 67.5521 132.369 67.5217C132.466 67.5066 132.555 67.4619 132.623 67.3939C132.692 67.2689 132.73 67.1298 132.734 66.9877C132.734 66.942 132.785 66.9192 132.854 66.9192C132.924 66.9192 132.951 66.9192 132.951 66.9877C132.951 67.0561 132.951 67.1885 132.951 67.3254C132.936 67.448 132.928 67.5715 132.928 67.6951C132.921 67.8106 132.921 67.9265 132.928 68.042C132.945 68.1691 132.953 68.2972 132.951 68.4254C132.951 68.4665 132.915 68.4893 132.85 68.4893C132.785 68.4893 132.744 68.4665 132.734 68.4254C132.73 68.2765 132.694 68.1303 132.628 67.9964C132.565 67.9251 132.478 67.8782 132.383 67.864C132.205 67.8354 132.024 67.8232 131.843 67.8275C131.778 67.8275 131.746 67.8686 131.746 67.9461V68.7814C131.733 68.9796 131.754 69.1784 131.806 69.3702C131.825 69.4185 131.855 69.4619 131.893 69.4974C131.932 69.5329 131.978 69.5596 132.028 69.5755C132.229 69.6222 132.436 69.6406 132.642 69.6303C132.81 69.6403 132.978 69.6234 133.141 69.5801C133.299 69.5367 133.439 69.4458 133.543 69.32C133.633 69.1698 133.687 69.0011 133.7 68.827C133.7 68.7814 133.746 68.7631 133.82 68.7631C133.847 68.758 133.876 68.758 133.903 68.7631C133.926 68.7631 133.94 68.7905 133.94 68.8088L133.88 69.3017C133.88 69.4386 133.88 69.5755 133.88 69.7033V69.7946C133.88 69.8088 133.877 69.8228 133.869 69.835C133.862 69.8471 133.851 69.8569 133.838 69.8631C133.805 69.8786 133.769 69.8864 133.732 69.8859H131.386C131.164 69.8859 130.859 69.8859 130.462 69.9224C130.45 69.9231 130.438 69.9205 130.427 69.9149C130.416 69.9093 130.408 69.9008 130.402 69.8905C130.385 69.8681 130.377 69.8406 130.379 69.8129C130.379 69.7535 130.402 69.717 130.457 69.7079C130.626 69.7037 130.788 69.6443 130.919 69.539C131.016 69.421 131.062 69.2704 131.048 69.1191V66.6591C131.057 66.4791 131.037 66.2988 130.988 66.1251C130.965 66.0244 130.904 65.9363 130.817 65.8786C130.691 65.8148 130.552 65.7805 130.411 65.7782C130.365 65.7782 130.342 65.7462 130.342 65.6823C130.334 65.6586 130.334 65.6331 130.342 65.6093C130.345 65.5989 130.352 65.5898 130.361 65.5833C130.37 65.5767 130.381 65.5731 130.392 65.5728L131.196 65.5956H133.533Z" fill="#E20613"/>
<path d="M98.889 37.1063C98.7748 36.9446 98.6256 36.8099 98.4522 36.712C98.2789 36.6142 98.0857 36.5555 97.8867 36.5404L97.3139 36.7321C95.2785 38.1119 92.968 39.0456 90.5374 39.4706V39.6577L87.1423 45.55C88.0153 45.3948 88.8791 45.2077 89.7337 44.9795C92.2491 44.3584 94.5885 43.18 96.5748 41.5335C98.4625 39.93 99.4079 38.8148 99.411 38.188C99.3495 37.7843 99.1678 37.4078 98.889 37.1063ZM86.0198 39.8859C83.8188 39.9264 81.6365 39.4807 79.6322 38.5813C77.6278 37.6819 75.8521 36.3515 74.4347 34.6874C71.3552 31.2186 69.8154 26.8158 69.8154 21.4788C69.8154 15.8558 70.9903 11.4438 73.3399 8.24281C75.6896 5.04184 78.9231 3.44135 83.0404 3.44135C84.7905 3.42891 86.5277 3.73846 88.1631 4.35418C89.766 4.96577 90.5698 5.85577 90.5698 7.01506C90.5266 7.63561 90.2651 8.2217 89.8307 8.67184C89.3327 9.30185 89.0788 10.0869 89.1147 10.8854C89.0781 11.467 89.1798 12.0489 89.4116 12.5847C89.6434 13.1204 89.9989 13.5951 90.4497 13.9708C91.4189 14.7029 92.6165 15.0774 93.8356 15.0297C95.4862 14.9992 96.7088 14.482 97.5033 13.4779C98.2647 12.561 98.6853 11.4142 98.695 10.2282C98.695 7.24327 97.2738 4.79385 94.4315 2.87996C91.5891 0.966073 88.0384 0.0060855 83.7795 0C78.9477 0 74.6903 0.949338 71.0072 2.84801C69.465 3.63332 68.0268 4.60369 66.7252 5.73711C65.038 7.20997 63.6166 8.95551 62.5216 10.8991C61.2387 13.1669 60.3649 15.638 59.9395 18.2017C59.9025 18.4071 59.8702 18.6171 59.8378 18.827C59.7778 19.256 59.7224 19.6942 59.6854 20.1324C59.6207 20.8626 59.5792 21.602 59.5745 22.3597C59.5745 22.4783 59.5745 22.6016 59.5745 22.7202C59.4952 26.9491 60.5011 31.129 62.4985 34.8699L62.614 35.0753C63.3479 36.4 64.2178 37.6465 65.21 38.7951C66.7079 40.5264 68.4895 41.9968 70.4806 43.1447C73.816 45.0817 77.6196 46.0911 81.4883 46.0657C82.3136 46.0657 83.1312 46.0338 83.9411 45.9699L87.4194 39.854C86.9637 39.8752 86.4971 39.8859 86.0198 39.8859Z" fill="#1D70B7"/>
<path d="M69.1688 15.3994C69.1688 9.87069 67.6752 5.92272 64.6881 3.55545C61.701 1.18819 57.6021 0.00304275 52.3916 0C47.643 0 43.6073 1.1456 40.2845 3.43679C36.9618 5.72798 35.2942 8.46646 35.2819 11.6522C35.2511 12.8812 35.6455 14.0839 36.3997 15.0616C37.1481 16.0018 38.4107 16.4719 40.1875 16.4719C41.4011 16.4817 42.5715 16.027 43.4534 15.2031C44.3772 14.3542 44.8468 13.49 44.8622 12.6107C44.852 11.8624 44.6013 11.1368 44.1462 10.5386C43.7319 9.92304 43.4999 9.20534 43.4764 8.46645C43.4764 6.99072 44.1924 5.78275 45.6244 4.84254C47.1089 3.88209 48.8531 3.38877 50.6271 3.42766C53.7743 3.42766 56.1178 4.34048 57.6576 6.16614C59.1973 7.99179 59.9672 10.9661 59.9672 15.089C59.9672 16.3122 59.9672 17.2661 59.9672 17.937C59.9672 18.6079 59.9349 19.1146 59.921 19.4477C59.9303 19.6485 59.8972 19.849 59.824 20.0365C59.7982 20.067 59.7656 20.0911 59.7287 20.107C59.6918 20.1228 59.6517 20.13 59.6115 20.1278H69.1919L69.1688 15.3994Z" fill="#1D70B7"/>
<path d="M59.1265 38.503C56.9853 39.6767 54.5815 40.3042 52.1329 40.3286C49.9573 40.3286 48.2989 39.7079 47.1441 38.471C45.9893 37.2342 45.4073 35.4222 45.4073 33.0762C45.4073 30.1035 46.7623 27.651 49.4722 25.7189C52.1822 23.7867 56.3395 22.5894 61.9442 22.1269C62.0111 22.1269 62.0778 22.1346 62.1429 22.1497V18.8088C53.354 18.8088 46.6761 20.1293 42.1091 22.7704C37.5422 25.4115 35.2665 29.2317 35.2819 34.231C35.2819 38.0283 36.3597 40.9509 38.5154 42.9986C40.671 45.0464 43.7213 46.0703 47.6661 46.0703C50.9427 46.0703 53.6927 45.6245 55.9161 44.733C58.004 43.8932 63.3069 40.7805 65.2609 38.7449L62.6371 35.0616C62.129 35.7828 60.6416 37.6997 59.1265 38.503Z" fill="#1D70B7"/>
</svg>
