<svg width="65" height="47" viewBox="0 0 65 47" fill="none" xmlns="http://www.w3.org/2000/svg">
<path d="M63.889 37.1063C63.7748 36.9446 63.6256 36.8099 63.4522 36.712C63.2789 36.6142 63.0857 36.5555 62.8867 36.5404L62.3139 36.7321C60.2785 38.1119 57.968 39.0456 55.5374 39.4706V39.6577L52.1423 45.55C53.0153 45.3948 53.8791 45.2077 54.7337 44.9795C57.2491 44.3584 59.5885 43.18 61.5748 41.5335C63.4625 39.93 64.4079 38.8148 64.411 38.188C64.3495 37.7843 64.1678 37.4078 63.889 37.1063V37.1063ZM51.0198 39.8859C48.8188 39.9264 46.6365 39.4807 44.6322 38.5813C42.6278 37.6819 40.8521 36.3515 39.4347 34.6874C36.3552 31.2186 34.8154 26.8158 34.8154 21.4788C34.8154 15.8558 35.9903 11.4438 38.3399 8.24281C40.6896 5.04184 43.9231 3.44135 48.0404 3.44135C49.7905 3.42891 51.5277 3.73846 53.1631 4.35418C54.766 4.96577 55.5698 5.85577 55.5698 7.01506C55.5266 7.63561 55.2651 8.2217 54.8307 8.67184C54.3327 9.30185 54.0788 10.0869 54.1147 10.8854C54.0781 11.467 54.1798 12.0489 54.4116 12.5847C54.6434 13.1204 54.9989 13.5951 55.4497 13.9708C56.4189 14.7029 57.6165 15.0774 58.8356 15.0297C60.4862 14.9992 61.7088 14.482 62.5033 13.4779C63.2647 12.561 63.6853 11.4142 63.695 10.2282C63.695 7.24327 62.2738 4.79385 59.4315 2.87996C56.5891 0.966073 53.0384 0.0060855 48.7795 0C43.9477 0 39.6903 0.949338 36.0072 2.84801C34.465 3.63332 33.0268 4.60369 31.7252 5.73711C30.038 7.20997 28.6166 8.95551 27.5216 10.8991C26.2387 13.1669 25.3649 15.638 24.9395 18.2017C24.9025 18.4071 24.8702 18.6171 24.8378 18.827C24.7778 19.256 24.7224 19.6942 24.6854 20.1324C24.6207 20.8626 24.5792 21.602 24.5745 22.3597C24.5745 22.4783 24.5745 22.6016 24.5745 22.7202C24.4952 26.9491 25.5011 31.129 27.4985 34.8699L27.614 35.0753C28.3479 36.4 29.2178 37.6465 30.21 38.7951C31.7079 40.5264 33.4895 41.9968 35.4806 43.1447C38.816 45.0817 42.6196 46.0911 46.4883 46.0657C47.3136 46.0657 48.1312 46.0338 48.9411 45.9699L52.4194 39.8539C51.9637 39.8752 51.4971 39.8859 51.0198 39.8859V39.8859Z" fill="#1D70B7"/>
<path d="M34.1688 15.3994C34.1688 9.87069 32.6752 5.92272 29.6881 3.55545C26.701 1.18819 22.6021 0.00304275 17.3916 0C12.643 0 8.60732 1.1456 5.28454 3.43679C1.96175 5.72798 0.2942 8.46646 0.281882 11.6522C0.251149 12.8812 0.645468 14.0839 1.39975 15.0616C2.14806 16.0018 3.41066 16.4719 5.18753 16.4719C6.40115 16.4817 7.57149 16.027 8.45335 15.2031C9.3772 14.3542 9.84683 13.49 9.86223 12.6107C9.85201 11.8624 9.60127 11.1368 9.14624 10.5386C8.7319 9.92304 8.49991 9.20534 8.47645 8.46645C8.47645 6.99072 9.19243 5.78275 10.6244 4.84254C12.1089 3.88209 13.8531 3.38877 15.6271 3.42766C18.7743 3.42766 21.1178 4.34048 22.6576 6.16614C24.1973 7.99179 24.9672 10.9661 24.9672 15.089C24.9672 16.3122 24.9672 17.2661 24.9672 17.937C24.9672 18.6079 24.9349 19.1146 24.921 19.4477C24.9303 19.6485 24.8972 19.849 24.824 20.0365C24.7982 20.067 24.7656 20.0911 24.7287 20.107C24.6918 20.1228 24.6517 20.13 24.6115 20.1278H34.1919L34.1688 15.3994Z" fill="#1D70B7"/>
<path d="M24.1265 38.503C21.9853 39.6767 19.5815 40.3042 17.1329 40.3286C14.9573 40.3286 13.2989 39.7079 12.1441 38.471C10.9893 37.2342 10.4073 35.4222 10.4073 33.0762C10.4073 30.1035 11.7623 27.651 14.4722 25.7189C17.1822 23.7867 21.3395 22.5894 26.9442 22.1269C27.0111 22.1269 27.0778 22.1346 27.1429 22.1497V18.8088C18.354 18.8088 11.6761 20.1293 7.10914 22.7704C2.54224 25.4115 0.266479 29.2317 0.281877 34.231C0.281877 38.0283 1.3597 40.9509 3.51536 42.9986C5.67101 45.0464 8.72126 46.0703 12.6661 46.0703C15.9427 46.0703 18.6927 45.6245 20.9161 44.733C23.004 43.8932 28.3069 40.7805 30.2609 38.7449L27.6371 35.0616C27.129 35.7828 25.6416 37.6997 24.1265 38.503Z" fill="#1D70B7"/>
</svg>
